<?xml version="1.0" encoding="utf-8"?>
<!-- Generator: Adobe Illustrator 25.2.0, SVG Export Plug-In . SVG Version: 6.00 Build 0)  -->
<svg version="1.1" id="Layer_1" xmlns="http://www.w3.org/2000/svg" xmlns:xlink="http://www.w3.org/1999/xlink" x="0px" y="0px"
	 viewBox="0 0 720 720" style="enable-background:new 0 0 720 720;" xml:space="preserve">
<style type="text/css">
	.st0{fill:#507736;}
	.st1{fill:#87B212;}
	.st2{font-family:'AbrilFatface-Regular';}
	.st3{font-size:84.0855px;}
</style>
<g>
	<g>
		<path class="st0" d="M197.58,349.52c-0.65-2.72-1.95-4.97-2.54-5.79c-1.06-1.24-1.54-1.71-5.03-1.71h-3.78v27.79
			c0,4.97,0.59,5.32,5.85,5.74v2.19h-19.63v-2.19c5.03-0.41,5.56-0.77,5.56-5.74v-27.79h-3.61c-3.31,0-4.26,0.53-5.38,1.95
			c-0.83,1.12-1.66,3.25-2.42,5.62h-2.25c0.41-4.32,0.83-8.93,0.95-11.77h1.77c0.89,1.36,1.6,1.48,3.37,1.48h23.65
			c1.6,0,2.42-0.35,3.43-1.48h1.71c0.06,2.48,0.3,7.69,0.59,11.53L197.58,349.52z"/>
		<path class="st0" d="M203.67,377.73v-2.19c4.49-0.41,5.03-0.77,5.03-5.74v-22.53c0-4.97-0.59-5.44-5.03-5.79v-2.19h18.27v2.19
			c-4.43,0.41-5.03,0.83-5.03,5.79v22.53c0,4.91,0.53,5.26,5.03,5.74v2.19H203.67z"/>
		<path class="st0" d="M259.13,367.68c-0.3,1.6-1.95,8.4-2.48,10.05h-30.69v-2.13c5.38-0.53,5.74-0.83,5.74-5.79v-22.59
			c0-5.03-0.71-5.38-4.73-5.74v-2.19h19.22c6.21,0,8.28-0.06,9.11-0.12c0.06,1.06,0.35,5.91,0.59,9.58l-2.31,0.3
			c-0.53-2.01-1.54-4.43-2.54-5.5c-1.06-1.18-1.83-1.54-4.85-1.54h-3.84c-2.25,0-2.48,0.12-2.48,2.13v12.36h5.79
			c3.31,0,3.9-0.89,4.79-5.08h2.31v13.19h-2.31c-0.95-4.38-1.42-5.09-4.85-5.09h-5.74v10.17c0,4.08,0.12,5.32,3.78,5.38h4.2
			c3.31,0,4.2-0.41,5.5-2.01c1.48-1.71,2.66-3.9,3.61-5.91L259.13,367.68z"/>
		<path class="st0" d="M284.74,349.05c-1.18-3.78-2.84-8.1-8.28-8.1c-3.43,0-5.68,2.42-5.68,5.74c0,3.25,2.19,5.2,7.39,7.8
			c6.33,3.13,10.35,6.21,10.35,12.06c0,6.98-5.79,12.06-14.25,12.06c-3.78,0-7.15-1-9.93-1.83c-0.35-1.36-1.36-7.51-1.77-10.29
			l2.31-0.53c1.18,3.73,4.49,10.17,10.29,10.17c3.61,0,5.79-2.25,5.79-6.03c0-3.43-2.13-5.44-7.1-8.1
			c-6.15-3.31-10.17-6.27-10.17-12.42c0-6.21,4.85-11.12,13.72-11.12c4.08,0,7.15,0.89,8.46,1.06c0.24,2.19,0.65,5.26,1.12,8.99
			L284.74,349.05z"/>
	</g>
</g>
<text transform="matrix(1 0 0 1 374.5599 375.9328)" class="st1 st2 st3">gric</text>
<g>
	<path class="st0" d="M356.36,385.21H331.3c-0.68,0-1.23-0.55-1.23-1.23l0,0c0-0.68,0.55-1.23,1.23-1.23h25.06
		c0.68,0,1.23,0.55,1.23,1.23l0,0C357.59,384.65,357.04,385.21,356.36,385.21z"/>
	<path class="st0" d="M352.43,389.5h-18.22c-0.68,0-1.23-0.55-1.23-1.23l0,0c0-0.68,0.55-1.23,1.23-1.23h18.22
		c0.68,0,1.23,0.55,1.23,1.23l0,0C353.66,388.95,353.11,389.5,352.43,389.5z"/>
	<path class="st0" d="M348.67,394.15h-10.41c-0.68,0-1.23-0.55-1.23-1.23l0,0c0-0.68,0.55-1.23,1.23-1.23h10.41
		c0.68,0,1.23,0.55,1.23,1.23l0,0C349.9,393.6,349.35,394.15,348.67,394.15z"/>
</g>
<path class="st1" d="M314.59,335.6c-1.21-0.29-2.42-0.56-3.63-0.84c-0.27-0.06-0.54-0.15-0.71,0.22c-0.61,1.39-1.23,2.77-1.86,4.18
	c0.2,0.15,0.37,0.28,0.55,0.41c0.95,0.68,1.91,1.37,2.87,2.05C312.43,339.46,313.38,337.44,314.59,335.6z"/>
<path class="st1" d="M319.12,328.53c-1.13-0.51-2.28-1-3.42-1.5c-0.26-0.11-0.51-0.25-0.73,0.09c-0.85,1.25-1.72,2.49-2.6,3.76
	c0.17,0.18,0.31,0.35,0.46,0.5c0.81,0.85,1.62,1.7,2.44,2.54C316.29,331.93,317.59,330.12,319.12,328.53z"/>
<path class="st1" d="M326.51,322.97c-0.93-0.83-1.88-1.64-2.81-2.45c-0.21-0.19-0.41-0.39-0.73-0.14c-1.19,0.94-2.39,1.87-3.61,2.82
	c0.11,0.23,0.2,0.42,0.29,0.61c0.52,1.05,1.04,2.1,1.57,3.15C322.79,325.37,324.57,324.03,326.51,322.97z"/>
<path class="st1" d="M311.07,344.81c-1.18,0.11-2.36,0.24-3.54,0.34c-0.45,0.04-0.63,0.21-0.67,0.67c-0.09,1.21-0.2,2.43-0.37,3.64
	c-0.08,0.56,0.12,0.77,0.62,0.92c1.09,0.31,2.18,0.65,3.27,0.98c-0.04-1.04-0.01-2.1,0.09-3.16
	C310.59,347.03,310.79,345.9,311.07,344.81z"/>
<path class="st1" d="M311.04,354.98c-1.05,0.54-2.08,1.11-3.13,1.64c-0.37,0.19-0.5,0.38-0.36,0.81c0.4,1.22,0.76,2.45,1.09,3.69
	c0.11,0.41,0.27,0.55,0.72,0.5c1.18-0.13,2.36-0.23,3.54-0.34C311.98,359.3,311.35,357.18,311.04,354.98z"/>
<path class="st1" d="M362.21,358.17c-3.24,8.65-11.58,14.81-21.36,14.81c-12.6,0-22.81-10.21-22.81-22.81
	c0-10.38,6.94-19.13,16.42-21.9c-0.68-1.51-1.75-4.16-2.67-7.47c-12.43,3.86-21.46,15.45-21.46,29.15
	c0,16.86,13.67,30.52,30.52,30.52c8.32,0,15.86-3.34,21.36-8.74V358.17z"/>
<path class="st1" d="M362.76,358.37v18.86c0,1.95,1.42,3.71,3.37,3.87c2.19,0.19,4.03-1.53,4.03-3.68v-11.73
	c0-4.06-3.29-7.36-7.36-7.36h0C362.78,358.33,362.76,358.35,362.76,358.37z"/>
<path class="st0" d="M370.53,359.5c-1.24-5.94-3.51-11.53-5.96-17.05c-1.61-3.63-3.78-6.91-6.8-9.54c-5.53-4.82-12-6.48-19.2-5.65
	c-0.36,0.04-0.71,0.09-1.12,0.14c0,0-0.91,0.15-1.93,0.37c0.12,1.06,0.24,2.12,0.36,3.19c0.33,2.85,1.42,5.39,3.24,7.59
	c1.83,2.22,4.12,3.87,6.63,5.24c2.91,1.59,6.07,2.54,9.16,3.66c1.66,0.6,3.23,1.47,4.82,2.26c0.45,0.22,0.83,0.59,1.24,0.9
	c-0.26,0.07-0.46,0.03-0.64-0.04c-3.11-1.32-6.34-2.22-9.62-2.98c-4.16-0.95-8.01-2.58-11.14-5.59c-2.36-2.27-4.28-4.81-4.98-8.11
	c-0.25-1.19-0.52-2.37-0.79-3.55c-0.06-0.25-0.17-0.48-0.31-0.9c-0.91,2.79-1.74,5.38-2.06,8.1c-0.57,4.8,0.76,8.99,4.26,12.36
	c3.8,3.66,8.33,5.46,13.68,5.25c3.29-0.13,6.58-0.02,9.87,0.04c3.6,0.06,6.66,1.43,9.21,3.96c0.76,0.75,1.51,1.5,2.3,2.29
	c0.03-0.14,0.06-0.2,0.05-0.27C370.72,360.63,370.65,360.06,370.53,359.5z"/>
</svg>
