<?xml version="1.0" encoding="UTF-8"?>
<!DOCTYPE svg  PUBLIC '-//W3C//DTD SVG 1.1//EN'  'http://www.w3.org/Graphics/SVG/1.1/DTD/svg11.dtd'>
<svg enable-background="new 0 0 550 400" version="1.1" viewBox="0 0 550 400" xml:space="preserve" xmlns="http://www.w3.org/2000/svg">
		<path d="m414.11 142.12c3.246 0.403 5.067 0.611 5.471 0.611 5.673 0 9.928-0.611 12.759-1.828 2.029-0.807 4.053-2.226 6.076-4.249l4.255-3.649c-0.403 3.24-0.808 5.471-1.217 6.688-0.403 1.62-1.009 3.039-1.821 4.249 2.836-1.21 4.658-2.225 5.471-3.038l4.86-3.039-1.822 4.255c-2.029 1.62-3.441 3.038-4.255 4.255-0.813 0.813-1.619 1.62-2.433 2.433h5.472l5.471 0.605-4.255 1.822c-2.433 1.62-4.255 3.038-5.471 4.254 2.029 0 3.851 0.202 5.471 0.605l1.822 0.611-1.217 1.216c-3.24 3.644-5.465 5.869-6.682 6.682-3.24 2.023-7.293 3.039-12.153 3.039-2.029 0-5.874-1.418-11.547-4.255-0.404-0.403-1.009-0.605-1.822-0.605l0.605 0.605c0.409 2.836 0.611 7.495 0.611 13.975 0 10.942-2.029 20.662-6.077 29.172-3.649 6.076-6.889 11.945-9.726 17.618-0.807 1.216-1.62 2.635-2.427 4.255-1.62 3.239-3.038 6.076-4.255 8.509-0.813 4.86-1.217 10.533-1.217 17.013 0 5.673 0.202 10.937 0.611 15.797 0.808 2.836 1.62 6.076 2.428 9.726v1.211c0.813 2.836 1.418 5.067 1.821 6.688v0.605l-0.605 0.611v0.604c0 1.217-0.201 2.023-0.605 2.434 0 0.403-0.409 0.605-1.216 0.605l-0.611-0.605c-1.211 2.023-2.427 4.456-3.644 7.287-0.813 2.029-1.821 4.254-3.038 6.688-0.403 0-0.605 0.201-0.605 0.605-0.409 1.216-0.813 2.634-1.217 4.254v-0.604c-1.216 3.643-2.433 7.696-3.649 12.152-1.62 6.076-2.629 9.72-3.038 10.937 0.409 0.807 1.015 2.226 1.828 4.255v0.605c0.403 4.859-0.611 7.696-3.038 8.509h-0.611c0 1.62-0.202 3.846-0.605 6.682-0.813 2.434-1.217 4.255-1.217 5.472v0.605h-1.216c-1.217 0.813-2.837 1.418-4.86 1.821-1.62 0.403-2.837 0.813-3.644 1.217h-6.076c-2.029-0.403-3.852-0.813-5.472-1.217-0.813-0.403-1.418-0.605-1.821-0.605l-1.822-0.611 0.605-1.21c1.62-2.837 3.441-6.486 5.472-10.942 2.427-5.667 4.456-9.316 6.076-10.937 1.62-7.293 2.629-13.571 3.038-18.835 0.403-2.433 0.807-5.067 1.211-7.897 0.409-6.89 0.611-15.191 0.611-24.917l-0.611-10.331c-2.023-3.644-4.86-8.907-8.504-15.797l-1.821-2.433c-0.41 0.409-0.611 1.015-0.611 1.827v9.115c0 4.456 0.813 9.518 2.433 15.19 1.62 4.86 2.635 8.302 3.038 10.325v0.611h-0.611c-0.807 1.217-3.845 4.86-9.114 10.937l-9.114 23.7c0 2.831 0.409 5.466 1.216 7.898v0.605l-0.605 0.611h-0.61c-1.211 0.403-2.428 0.807-3.644 1.21v0.611c-0.404 0-0.605 0.202-0.605 0.605l-4.255 10.937h-0.611c0 0.409-0.202 0.813-0.605 1.217-0.403 1.216-1.418 1.821-3.038 1.821-0.813 0-1.217-0.201-1.217-0.605h-17.617v-5.471l1.21-0.605c1.217-0.813 3.852-3.441 7.904-7.898 3.24-3.649 5.465-6.076 6.682-7.293 0.813-2.836 1.821-6.479 3.038-10.937 0.813-4.456 1.62-8.308 2.434-11.547 1.21-5.264 2.023-8.712 2.427-10.331v-0.605c0.403-4.86-2.023-14.177-7.293-27.949-4.86-12.153-7.696-19.446-8.504-21.879h-3.038c-6.076 0-12.354-1.009-18.841-3.038h-0.604c-6.48-2.023-10.331-3.038-11.548-3.038-3.644 0-6.884 0.201-9.72 0.61-1.62 0.404-3.24 1.009-4.86 1.822-1.216 3.644-2.433 8.504-3.649 14.58-2.023 10.942-2.629 20.46-1.822 28.561 0 0.403-0.202 1.015-0.605 1.821 0 3.649-0.403 9.928-1.216 18.841v2.427c-0.403 1.217-0.813 3.649-1.216 7.293-0.807 4.86-1.217 9.316-1.217 13.369 0 6.48 0.41 12.557 1.217 18.229 0.403 2.837 0.813 5.062 1.216 6.682 0 1.62 0.202 2.837 0.605 3.649v0.605h-0.605v0.611h-0.605c-0.409 0.403-0.813 1.009-1.216 1.821h-0.611v11.542h-1.21c-0.813 0-2.029 0.208-3.649 0.611h-1.821c-3.644 1.62-5.875 2.427-6.682 2.427h-0.611c-3.643 0-6.48-0.605-8.503-1.821-0.813-0.403-2.231-1.418-4.254-3.038l-0.611-0.605 0.611-1.217c0.807-0.813 2.635-4.456 5.465-10.937 3.246-7.293 5.471-12.152 6.688-14.586v-0.604c-1.217-16.609-2.029-25.926-2.433-27.956-0.403-0.403-0.807-0.807-1.216-1.21-1.62-2.029-2.427-3.246-2.427-3.649 0-0.808 0.202-1.62 0.605-2.427 0-4.866 0.611-9.928 1.822-15.191-0.807-6.076-1.822-13.773-3.039-23.096-1.21-7.696-2.83-12.96-4.86-15.796-1.216 3.644-2.225 8.913-3.038 15.796-1.62 12.563-2.635 21.066-3.038 25.522h0.611v0.611c0 0.403 0.202 0.807 0.605 1.211h-0.605c1.211 2.836 1.822 4.456 1.822 4.865 0 0.808-0.202 2.831-0.611 6.077-0.404 1.619-0.807 3.643-1.211 6.076 1.211 10.937 1.62 19.85 1.211 26.732v0.611c0 0.808-0.202 1.62-0.605 2.427-0.403 0.404-0.605 0.813-0.605 1.217-0.409 0.403-0.611 0.813-0.611 1.217h-0.605c-0.813 0.807-1.62 2.427-2.433 4.859-0.403 1.62-0.807 2.837-1.216 3.644-0.403 0.813-1.009 1.015-1.822 0.611-1.62 1.62-4.254 2.427-7.898 2.427-2.433 0-4.658-0.403-6.682-1.21-0.813 0-2.634-0.813-5.471-2.434l-1.821-0.604 1.216-1.217c2.023-2.433 4.457-5.471 7.287-9.114 1.216-1.62 2.635-3.442 4.254-5.472l0.611-0.605c0.403-1.216 0.807-2.029 1.21-2.433 0.41-1.217 0.611-3.644 0.611-7.293 0-3.24-0.403-7.898-1.216-13.975v0.611c-0.404-0.409-0.605-0.813-0.605-1.217 0-1.217-0.208-2.635-0.611-4.255v-0.604c-0.403-0.813-0.807-1.62-1.216-2.434 0-0.813-0.202-1.418-0.605-1.821-2.023-4.053-3.038-6.48-3.038-7.293h-0.605v-11.548h0.605v-3.644c0-6.479-0.403-13.168-1.216-20.051-0.404-4.053-1.62-8.51-3.644-13.369-2.433-4.457-5.27-8.51-8.509-12.153l-0.605-0.605c-5.673-3.649-10.937-11.144-15.802-22.483-3.644-8.913-6.278-18.841-7.898-29.777-1.62-8.913-3.24-17.215-4.86-24.911-0.813-3.24-1.62-6.278-2.433-9.115-2.023-6.889-3.24-10.937-3.643-12.153-0.404-0.813-1.217-2.635-2.433-5.471-0.404-0.403-0.605-0.807-0.605-1.216-2.433 0-4.254-0.605-5.471-1.822-2.023-1.217-3.644-4.255-4.86-9.115v-0.605h-0.605c-1.62-2.836-3.441-6.688-5.471-11.547-1.217-2.836-2.226-5.264-3.039-7.293-0.403-1.21-0.605-2.225-0.605-3.038h-0.611c-1.62-3.24-3.038-6.884-4.249-10.937-0.409-2.427-0.813-4.255-1.216-5.465v-0.611l-0.611-4.254c0-0.404-0.202-0.807-0.605-1.21v-3.65c-1.62 0.813-2.836 1.418-3.644 1.822-2.029 1.217-3.448 2.433-4.255 3.649v1.217c-0.813 2.427-2.231 4.86-4.254 7.287h-0.605c-3.246 3.649-7.091 5.471-11.547 5.471-0.404 0-1.418-0.202-3.039-0.605-0.403-0.41-0.813-0.611-1.216-0.611h-0.605l-1.216-1.216c-0.403-0.807-0.605-1.62-0.605-2.427 0-0.813 1.009-2.433 3.039-4.86 2.427-2.836 4.249-5.471 5.465-7.904 4.86-8.1 8.913-14.176 12.153-18.229l0.611-0.605c2.831-3.24 5.465-4.86 7.898-4.86 0.807 0 2.225 0.605 4.254 1.822 0.404-0.813 0.605-1.418 0.605-1.822h0.605c1.62-4.053 1.828-7.293 0.611-9.726-0.813-2.427-0.403-4.86 1.217-7.287 1.62-2.03 3.644-1.62 6.076 1.21 2.427 2.836 4.047 4.457 4.86 4.866h9.115c0.807 0 3.845-0.208 9.115-0.611h4.254c0-0.403 0.202-0.605 0.605-0.605 0.404 0 0.813-0.202 1.217-0.611h0.605c0.813-0.403 1.822-1.009 3.039-1.822 2.433-1.62 4.053-2.836 4.86-3.644l0.611-0.611c4.047-2.023 5.673 0.41 4.86 7.293-0.404 1.217-0.813 2.836-1.217 4.86-0.403 1.62-0.807 2.836-1.216 3.649 0.813 0.807 1.62 1.822 2.433 3.038 0.403 0.403 0.813 0.807 1.216 1.216 1.217 0 2.023-0.208 2.427-0.611 1.216-0.807 2.635-1.217 4.254-1.217 3.649 0 9.726 3.649 18.229 10.942 13.773 12.96 22.081 20.455 24.917 22.478l1.21 0.611-0.605 1.216c-0.404 0.807-1.217 1.62-2.433 2.427-2.023 1.216-4.86 1.822-8.503 1.822-8.913 0-16.206-3.24-21.879-9.72-2.023-3.24-3.442-5.471-4.249-6.682-1.217-1.62-2.231-2.433-3.039-2.433h-1.216v0.605l-3.038 3.038c-0.404 0.813-0.813 1.418-1.217 1.828 2.836 15.393 9.115 25.925 18.835 31.593 8.106 5.269 18.437 9.927 30.993 13.98h4.86c7.697 0.807 16.004 1.418 24.911 1.822h4.255c9.316 0 15.595-0.202 18.841-0.611 11.743-0.807 21.268-2.629 28.555-5.465v-0.611c2.433-0.403 5.673-1.21 9.726-2.427 8.503-2.433 17.416-4.457 26.732-6.077h4.255c4.053 0.807 10.734 2.836 20.051 6.077 3.649 1.216 6.89 2.427 9.727 3.644 2.427 2.836 5.062 6.889 7.897 12.153 1.62 2.836 3.442 6.48 5.472 10.937l0.605 0.611c0.799 1e-3 3.025 0.203 6.668 0.606z" clip-rule="evenodd" fill="#B89C3E" fill-opacity=".9882" fill-rule="evenodd"/>
		<path d="m426.87 164.6c1.217 0.404 2.226 0.605 3.038 0.605 2.428 0 4.86-0.404 7.293-1.21-1.62 0.403-3.246 0.605-4.865 0.605h-5.466zm14.58-5.471c-0.403 0-0.605 0.208-0.605 0.611h2.434c0.807-0.403 1.418-1.015 1.821-1.822h-7.293c-2.023 0.404-5.264 0.605-9.72 0.605h-2.433c4.254 0.576 9.316 0.374 15.19-0.605l0.606 1.211zm-18.835 3.649c-0.403-0.403-0.604-0.813-0.604-1.216-1.508-0.374-2.926-0.884-4.255-1.519 0.688 0.344 1.299 0.653 1.821 0.914 1.217 0.807 2.226 1.418 3.038 1.821zm-7.897-4.86v0.605c0.913 0.457 1.821 0.86 2.735 1.216-1.086-0.473-1.994-1.079-2.735-1.821zm-9.115-14.586c-0.403-0.403-0.611-0.813-0.611-1.216-2.427-4.457-4.456-8.1-6.076-10.937-2.427-4.457-6.884-9.115-13.363-13.975-0.409 0-1.217-0.202-2.433-0.611-8.913-2.831-15.394-4.658-19.446-5.465h-3.644c-9.316 1.62-18.229 3.441-26.738 5.465h-0.605c-2.434 0.813-4.457 1.418-6.076 1.828-0.813 0.404-1.62 0.605-2.434 0.605-7.696 3.24-17.618 5.264-29.771 6.077-3.246 0.403-9.524 0.605-18.841 0.605h-4.255c-8.907-0.403-17.214-0.807-24.911-1.21-2.023-0.41-3.851-0.611-5.471-0.611h-0.605c-12.557-4.047-22.888-8.711-30.988-13.975-9.726-6.076-16.206-16.609-19.446-31.599-0.403 2.433-1.015 5.875-1.821 10.331h0.605c0.404 3.644 0.605 7.697 0.605 12.153 0 0.813-0.202 2.023-0.605 3.644-0.403 2.03-0.605 3.649-0.605 4.866h-0.611v-4.255c-0.404-2.029-0.605-3.24-0.605-3.649v-5.465c-0.813 3.24-1.418 6.077-1.822 8.503 0.404-0.403 0.807-0.807 1.21-1.21 0.41 0 0.611 0.403 0.611 1.21 0 0.813-1.015 3.039-3.038 6.688 0 1.62-0.404 3.845-1.216 6.682-1.217 5.673-2.226 9.115-3.039 10.331h-0.605v-3.644c-0.41 1.62-0.611 3.038-0.611 4.249-0.404 1.62-0.605 3.448-0.605 5.471v10.332h-0.611c-0.404-1.62-0.605-4.053-0.605-7.293-0.403 4.053-0.605 7.293-0.605 9.72h-0.611v2.433h-0.605c0-0.404-0.202-1.418-0.611-3.038-0.403-0.813-0.605-1.822-0.605-3.039-0.404 2.836-0.813 5.471-1.217 7.898 1.217 2.029 1.822 3.24 1.822 3.649 0 1.21-0.403 1.418-1.21 0.605v2.433l-1.216 1.21c-1.217-3.644-2.231-6.48-3.039-8.503-0.403-0.403-0.813-1.216-1.216-2.433-0.813-3.643-1.418-5.673-1.822-6.076v-0.605h-0.611c0.41 2.023 1.217 4.658 2.433 7.898v0.605c0.813 2.837 1.62 5.875 2.433 9.115 1.62 7.697 3.24 16.206 4.86 25.522 1.62 10.533 4.255 20.259 7.898 29.166 4.456 10.532 9.518 17.624 15.191 21.268 0.813 0.409 1.62 0.813 2.433 1.216h1.21c-0.404-0.403-0.807-0.604-1.21-0.604-6.89-6.89-10.332-10.735-10.332-11.548 0-0.403 0.202-1.009 0.605-1.822-0.807-1.216-1.216-2.433-1.216-3.644v-1.216h1.216c0.813 3.644 4.658 8.503 11.548 14.58 2.427 2.029 5.465 4.658 9.114 7.903h1.822c-4.456-2.836-8.711-6.284-12.758-10.331-3.246-3.649-7.091-9.114-11.548-16.407v-0.605l0.605-0.611c0.813 0.813 4.866 5.875 12.153 15.191v-0.605l0.611-0.611c1.216 0.813 2.427 1.828 3.643 3.038 0.404 0.41 1.015 0.813 1.822 1.217-2.023-3.24-3.845-6.076-5.465-8.504-0.404 0-0.611-0.207-0.611-0.61-2.831-4.048-5.062-7.086-6.682-9.115 0.403 0.403 1.015 0.813 1.822 1.217-2.024-4.053-3.644-7.495-4.86-10.331l0.605-0.605c0.41 0.807 2.433 4.255 6.077 10.331v-0.611c0.409-0.403 1.015-0.605 1.828-0.605 2.023 3.24 4.456 7.495 7.287 12.759 0.41 0 0.611 0.201 0.611 0.611h1.216l-1.828-3.039c3.649 2.024 5.471 3.24 5.471 3.644 1.217 1.217 3.852 4.86 7.898 10.937 2.029 2.837 4.254 5.472 6.688 7.898 2.831 2.837 5.667 5.472 8.503 7.904v0.605c3.649 2.433 6.077 8.711 7.293 18.834 0.813 7.293 1.62 13.571 2.433 18.841v6.681c-0.813 4.86-1.216 9.115-1.216 12.765v2.427l1.821 2.433c0 0.403 0.202 0.808 0.605 1.217h0.611c0.403 2.023 1.418 11.743 3.038 29.166v0.604l-0.611 0.611v0.605c-1.21 2.433-3.441 7.091-6.682 13.975v0.611c-2.433 5.264-4.254 8.705-5.471 10.325 1.217 0.813 2.231 1.418 3.038 1.828l3.039-5.472c-0.404 4.456 1.015 6.682 4.254 6.682 0.813-0.403 1.822-0.605 3.039-0.605v-0.604c-0.404 0-0.605-0.41-0.605-1.217 0-1.62 1.009-2.635 3.038-3.038 0-1.217 0.202-2.231 0.605-3.038 0.403-1.217 0.813-2.231 1.216-3.039-0.403-0.403-0.813-0.61-1.216-0.61-0.742-0.368-1.65-0.57-2.736-0.605h-1.519v-0.605h-0.605v-1.828c0-0.807 1.62-1.619 4.86-2.427 1.216-0.403 2.231-0.611 3.038-0.611v-0.605c-0.403-1.216-0.605-2.634-0.605-4.254-0.404-0.808-0.813-2.023-1.217-3.644 0-1.217-0.202-2.231-0.605-3.038v-1.822c-0.41-1.217-0.813-3.038-1.217-5.471-0.813-4.457-1.216-7.293-1.216-8.51 0-2.427 0.202-5.062 0.605-7.898v-9.72c0.409-1.62 1.015-2.635 1.828-3.038 0 1.217 0.202 2.427 0.605 3.644l0.605-0.605c0.813-0.403 1.418-0.813 1.828-1.217 0.403-1.216 0.807-2.433 1.21-3.644-0.403-0.813-0.605-1.827-0.605-3.038-0.404-2.029-0.605-3.851-0.605-5.471-0.813-3.24-1.216-5.264-1.216-6.076v-1.822c0-2.433 0.202-4.86 0.605-7.293v-3.644c0.404-0.813 0.813-2.433 1.217-4.865 0.403-0.808 0.605-1.62 0.605-2.428 0.41-1.216 0.813-3.038 1.216-5.471 0-0.403-0.202-0.808-0.605-1.217-2.433 4.053-3.649 7.904-3.649 11.548h-0.605c-0.813-1.217-1.216-2.635-1.216-4.255s1.015-4.255 3.038-7.898c0.404-0.403 0.813-0.813 1.217-1.216l-0.605-0.605c0-0.813 0.202-1.418 0.605-1.822 1.216-4.053 2.433-6.889 3.643-8.509 1.217-4.054 2.433-7.092 3.649-9.115l0.605-0.605v6.077c1.216-4.053 2.029-7.293 2.433-9.727-0.404-0.807-0.611-1.821-0.611-3.038-0.807-2.836-1.21-4.658-1.21-5.465l0.605-18.229h0.605c0.41 2.831 0.813 7.495 1.216 13.975 0 5.264 0.611 9.519 1.822 12.758 0-0.807 0.208-1.619 0.611-2.427 0-0.409 0.202-1.015 0.605-1.827-0.807-1.211-1.418-3.846-1.822-7.898-0.404-4.86-0.605-7.495-0.605-7.898v-0.605c0.404-2.433 0.605-3.851 0.605-4.254v-7.293c1.62 5.263 2.225 9.316 1.822 12.152 0.813-2.836 1.822-4.456 3.038-4.859l1.217 0.604 0.604 0.611c0.41-0.813 0.813-1.62 1.217-2.433h1.217s0.605 0.403 0.605 1.217c0 0.807-1.009 3.441-3.039 7.897-1.619 4.457-2.83 7.495-3.643 9.115 0 0.403 0.202 0.813 0.605 1.216v-0.61c0-0.404 0.208-1.009 0.611-1.822 0-0.807 0.202-1.62 0.605-2.427 0.813-1.217 1.62-2.635 2.433-4.255 1.62-2.837 2.837-4.456 3.644-4.86h1.217s0.605 0.404 0.605 1.211l-2.428 4.866h0.605c0.403 0 0.611 0.403 0.611 1.21 2.023-3.644 3.644-6.076 4.86-7.287h1.216c0.404 0 0.605 0.404 0.605 1.211 0 0.409-0.201 1.015-0.605 1.827 0.404-0.409 0.808-0.813 1.211-1.216 0.409 0.403 0.813 0.605 1.217 0.605l0.611 0.61c0.807-0.409 1.619-0.813 2.427-1.216h0.611c0.403 0 0.604 0.403 0.604 1.216 0 0.808-2.023 3.442-6.076 7.898 0 0.403-0.201 0.808-0.605 1.217h0.605c0.403-0.813 1.015-1.828 1.822-3.038 4.456-4.866 7.293-7.495 8.509-7.904l0.605-0.605v3.038c1.62-2.023 2.635-3.038 3.038-3.038-1.62 3.24-3.644 7.092-6.076 11.548 1.62-0.813 2.635-1.217 3.038-1.217v1.217c0.403 0 0.813-0.208 1.217-0.611 0.403-0.807 0.813-1.62 1.216-2.427 3.24-5.27 5.264-8.308 6.077-9.115h0.604c0.404 0 0.611 0.404 0.611 1.211 0 0.789-1.115 3.323-3.347 7.596l0.309 0.309c2.023-4.053 3.644-6.486 4.86-7.293h0.605v0.605c0 0.813-0.605 2.635-1.822 5.471h0.605c1.62-1.62 3.246-2.836 4.866-3.649v0.611c0.403 0 0.604 0.403 0.604 1.217v0.604c0 0.813-0.403 1.822-1.216 3.039 2.836-3.644 5.27-6.48 7.293-8.51h0.605v3.038c0.813-0.403 1.216-0.807 1.216-1.211l0.611 1.822c-1.217 2.427-2.836 4.86-4.866 7.293-2.427 2.83-4.658 5.264-6.682 7.287-2.433 2.836-4.255 4.456-5.471 4.865-0.403 0-0.605-0.207-0.605-0.61-0.403 0-0.605-0.404-0.605-1.217 0-0.403 1.009-2.023 3.038-4.86-2.836 3.24-4.865 5.068-6.076 5.472h-1.827v-2.434c-0.808 0.404-1.419 1.016-1.822 1.822-0.807 0-1.217-0.202-1.217-0.605-0.403 0-0.604-0.403-0.604-1.217l0.604-1.216c-0.403 0.409-0.807 0.813-1.21 1.216-1.217 0.813-2.231 1.419-3.038 1.822 1.62 0.409 3.239 1.015 4.859 1.827 6.48 1.62 12.557 2.428 18.229 2.428h4.255c4.456-0.403 8.907-1.217 13.363-2.428 3.649-1.619 9.115-4.658 16.407-9.114 0-3.649 0.404-7.494 1.217-11.548-0.403 1.217-1.015 2.434-1.821 3.644-0.813 1.217-1.419 2.434-1.822 3.649-1.216 2.837-2.231 4.658-3.038 5.466h-0.611c0.403-0.404 0.813-1.009 1.217-1.822h-0.605c-1.217 2.837-2.029 4.457-2.433 4.86l-0.605 0.611c-0.409 0-0.611-0.404-0.611-1.217 0-1.62 0.611-4.456 1.822-8.51-1.211 2.03-2.629 3.246-4.249 3.649 0.807-1.619 1.821-3.851 3.038-6.688-3.246 6.077-5.472 9.524-6.688 10.331v-1.216c-1.217 2.029-2.635 3.245-4.255 3.649 0.813-1.62 1.828-4.054 3.038-7.293-2.427 3.644-4.86 5.874-7.287 6.682 0.808-0.808 1.62-1.822 2.427-3.038-1.619 1.216-3.239 2.029-4.859 2.433 2.433-2.023 4.658-5.471 6.682-10.331-0.403 0.813-0.807 1.62-1.211 2.433-2.836 4.457-5.067 6.884-6.688 7.293 2.029-4.053 3.649-7.091 4.86-9.114 0.409-0.813 0.813-1.828 1.216-3.038-0.807 2.023-1.821 3.845-3.038 5.465-3.239 4.86-7.696 8.711-13.369 11.548-0.403 0.403-0.605 0-0.605-1.217 0-0.813 2.226-3.851 6.682-9.114 2.434-2.434 6.284-6.48 11.548-12.153v-1.217h1.822c0.403 0.813 0.611 2.231 0.611 4.255 1.21-2.433 2.225-4.053 3.038-4.859h0.604v1.821c1.62-2.836 3.039-4.859 4.255-6.076 0.403 0 0.605 0.403 0.605 1.217 0 1.216-0.403 2.836-1.217 4.859 2.03-4.053 3.246-6.682 3.649-7.898l0.605 0.605v3.038c0.813-1.62 1.62-3.644 2.434-6.076 0.807 0.403 1.216 0.813 1.216 1.217l0.605 0.605c0-0.404 0.202-0.605 0.605-0.605 1.62-5.264 3.246-8.913 4.865-10.937h1.211v2.426c0.813-0.807 1.418-1.62 1.828-2.427h1.21c2.837-7.697 5.27-14.183 7.293-19.446-0.807 6.48-3.038 14.788-6.682 24.911-3.649 11.75-5.471 21.678-5.471 29.777v1.217c0 1.216 0.61 3.845 1.821 7.897 0.409 2.434 1.015 5.264 1.828 8.51h0.604l3.039 5.465c4.053 6.89 7.091 12.354 9.114 16.408h0.605v10.937c0 9.726-0.202 18.027-0.605 24.917 0 2.83-0.202 5.465-0.605 7.897-0.813 5.673-2.029 12.153-3.649 19.446v0.605h-0.605c-1.216 1.619-3.038 5.263-5.471 10.937-1.62 3.649-3.24 6.889-4.86 9.726h0.605c0.813 0.403 2.433-1.62 4.866-6.076-0.813 4.456-0.813 6.682 0 6.682 1.21 0.403 2.629 0.604 4.248 0.604h1.217c0.813-0.403 2.029-0.807 3.649-1.21 1.62-0.409 3.038-0.813 4.249-1.217 0-1.217 0.409-2.836 1.217-4.859 0-2.434-1.419-3.852-4.255-4.255l-1.211-0.611h-0.611c-1.216 1.217-2.225 1.827-3.038 1.827-0.403 0.808-0.605 0.605-0.605-0.61v-1.822c0-0.813 0.808-1.821 2.428-3.038 0.409-0.403 0.813-0.605 1.216-0.605v-0.611c0.403-3.644 2.434-11.749 6.077-24.306 2.029-10.937 3.851-17.618 5.471-20.051 2.023-6.48 3.846-11.139 5.465-13.975-0.403-0.813-0.604-1.62-0.604-2.434v-10.935c-0.403-2.434-0.605-5.674-0.605-9.721-0.409-0.409-0.611-1.015-0.611-1.827-0.403-0.808-0.605-2.226-0.605-4.249-0.403 0-0.813-0.208-1.216-0.611 0 4.457-0.605 8.106-1.822 10.937h-0.611c0-2.427-0.201-5.465-0.605-9.114-0.403-2.831-0.604-4.86-0.604-6.077 0-3.239 1.21-9.72 3.644-19.439-0.813 1.211-1.62 2.427-2.434 3.644h-0.605l4.86-9.72c0.403-0.813 0.611-1.62 0.611-2.434-2.837 5.673-5.067 9.316-6.688 10.937v-0.605c2.029-3.649 4.859-9.518 8.509-17.624-4.053 7.293-8.509 13.571-13.369 18.841 0.813-1.62 5.062-10.533 12.758-26.738 5.27-10.937 8.913-16.61 10.942-17.013-2.184 5.572-4.005 10.129-5.471 13.672 4.521-9.993 7.156-15.358 7.898-16.105v-0.605c0.403 0 0.611 0.403 0.611 1.216 0 1.762-1.62 6.219-4.866 13.363 3.364-6.937 5.798-12.206 7.293-15.796-0.808 4.053-1.62 7.697-2.427 10.937 2.83-8.913 4.658-14.176 5.465-15.796-1.063 4.759-2.278 11.239-3.644 19.446 0.403-0.813 0.807-1.418 1.217-1.828 1.21-3.24 2.225-6.077 3.038-8.503 1.21-5.27 2.023-10.331 2.427-15.191h0.611c0.403 0.807 0.605 2.226 0.605 4.255 0 4.457-1.217 11.138-3.644 20.051-0.409 1.216-0.611 2.427-0.611 3.644 3.24-9.316 5.673-14.177 7.293-14.58-1.217 3.24-2.226 6.076-3.038 8.503 0.813-1.216 1.418-2.225 1.821-3.038-1.62 3.649-3.441 9.115-5.465 16.408 0.807-1.62 1.62-3.24 2.427-4.86h0.611c3.644-8.106 5.465-17.422 5.465-27.955 0-6.48-0.201-10.937-0.604-13.363-0.404-0.41-0.611-0.813-0.611-1.217-0.403-0.813-0.808-1.62-1.211-2.433l-0.611-0.605c-0.403-1.216-0.605-2.635-0.605-4.255-2.428-4.467-4.451-8.52-6.071-12.164zm9.719 7.899c0-1.62 0.611-2.635 1.822-3.039 3.246 5.27 7.494 8.106 12.764 8.51 2.837 0.403 5.875 0 9.115-1.217 0.807-1.216 2.427-2.634 4.859-4.254h-3.038l-3.644-1.217 3.038-3.038h-7.293c3.24-2.831 5.264-5.263 6.077-7.287-2.029 1.62-3.852 2.831-5.472 3.644-3.239 1.217-7.696 1.822-13.369 1.822-0.807 0-3.038-0.202-6.682-0.605-2.433-0.404-4.053-0.611-4.86-0.611 1.217 2.433 2.428 5.067 3.644 7.904 0.403 0.403 0.813 0.807 1.217 1.21 1.62 1.216 3.24 2.231 4.86 3.038 0.367 0.202 0.777 0.403 1.216 0.611-0.932-0.528-1.744-1.14-2.433-1.822-1.209-1.216-1.821-2.433-1.821-3.649zm-1.216-9.115c3.246 0.403 5.27 0.611 6.076 0.611 5.27 0 9.322-0.611 12.153-1.828 2.029-0.807 4.053-2.226 6.076-4.249l4.255-3.649c-0.403 3.24-0.808 5.471-1.217 6.688-0.403 1.62-1.009 3.039-1.821 4.249 3.239-1.21 5.067-2.225 5.471-3.038l4.86-3.039-1.822 4.255-4.255 4.255c-0.813 0.813-1.619 1.62-2.433 2.433h5.472l5.471 0.605-4.255 1.822c-2.433 1.62-4.255 3.038-5.471 4.254 2.029 0 3.851 0.202 5.471 0.605l1.822 0.611-1.217 1.216c-3.24 3.644-5.465 5.869-6.682 6.682-3.24 2.023-7.293 3.039-12.153 3.039-2.029 0-5.874-1.418-11.547-4.255-0.404-0.403-1.009-0.605-1.822-0.605l0.605 0.605c0.409 2.836 0.611 7.495 0.611 13.975 0 10.942-2.029 20.662-6.077 29.172-3.239 6.076-6.479 11.945-9.726 17.618-0.807 1.216-1.62 2.635-2.427 4.255-1.62 3.239-3.038 6.076-4.255 8.509-0.813 4.86-1.217 10.533-1.217 17.013 0 5.673 0.404 10.937 1.217 15.797 0.403 2.836 1.015 6.076 1.822 9.726v1.211c0.813 2.836 1.418 5.067 1.821 6.688v0.605l-0.605 0.611v0.604c0 1.217-0.201 2.023-0.605 2.434 0 0.403-0.409 0.605-1.216 0.605v-0.605c-1.217 2.023-2.635 4.456-4.255 7.287-0.813 2.029-1.821 4.254-3.038 6.688-0.403 0-0.605 0.201-0.605 0.605-0.409 1.216-0.813 2.634-1.217 4.254v-0.604c-1.216 3.643-2.433 7.696-3.649 12.152-1.62 6.076-2.427 9.72-2.427 10.937 0.403 0.807 0.807 2.226 1.217 4.255h0.605v0.605c0 4.859-1.217 7.696-3.644 8.509h-0.611c0 1.62-0.202 3.846-0.605 6.682-0.813 2.434-1.217 4.255-1.217 5.472v0.605h-1.216c-1.217 0.813-2.635 1.418-4.255 1.821h-0.605c-1.62 0.403-2.837 0.813-3.644 1.217h-6.076c-2.029-0.403-3.852-0.813-5.472-1.217-0.813-0.403-1.418-0.605-1.821-0.605l-1.822-0.611 0.605-1.21c1.62-2.837 3.441-6.486 5.472-10.942 2.427-5.667 4.456-9.316 6.076-10.937 1.62-7.293 2.83-13.571 3.644-18.835 0-2.433 0.201-5.067 0.605-7.897 0.409-6.89 0.611-15.191 0.611-24.917l-0.611-10.331c-2.023-3.644-4.86-8.907-8.504-15.797l-1.821-2.433c-0.41 0.409-0.611 1.015-0.611 1.827v9.115c0 4.456 0.813 9.518 2.433 15.19 1.62 4.86 2.635 8.302 3.038 10.325v0.611h-0.611c-0.807 1.217-3.845 4.86-9.114 10.937l-9.114 23.7c0 2.831 0.409 5.466 1.216 7.898v0.605l-0.605 0.611h-0.61c-1.211 0.403-2.428 0.807-3.644 1.21v0.611l-0.605 0.605-4.255 10.937c-0.403 0.409-0.813 0.813-1.217 1.217-0.403 1.216-1.418 1.821-3.038 1.821-0.403 0-0.813-0.201-1.217-0.605h-17.617v-5.471l1.21-0.605c1.217-0.813 3.852-3.441 7.904-7.898 3.24-3.649 5.465-6.076 6.682-7.293 0.813-2.836 1.821-6.479 3.038-10.937 1.217-4.456 2.226-8.308 3.038-11.547 0.813-5.264 1.419-8.712 1.822-10.331v-0.605c0.403-4.86-2.023-14.177-7.293-27.949-4.457-12.153-7.287-19.446-8.504-21.879h-3.038c-6.076 0-12.354-1.009-18.841-3.038-6.479-2.023-10.532-3.038-12.152-3.038-3.644 0-6.884 0.201-9.72 0.61-1.62 0.404-3.24 1.009-4.86 1.822-1.216 3.644-2.433 8.504-3.649 14.58-1.62 10.942-2.225 20.46-1.822 28.561v1.821c-0.403 3.649-1.009 9.928-1.822 18.841v2.427c-0.403 1.217-0.813 3.649-1.216 7.293-0.404 4.86-0.605 9.316-0.605 13.369 0 6.48 0.202 12.557 0.605 18.229 0.403 2.837 0.813 5.062 1.216 6.682s0.605 2.837 0.605 3.649v0.605h-0.605v0.611c-0.813 0.403-1.418 1.009-1.822 1.821v0.605c0 3.649-0.202 6.89-0.611 9.727v1.21h-1.21c-0.813 0-1.828 0.208-3.038 0.611h-2.433c-3.24 1.62-5.471 2.427-6.682 2.427h-0.611c-3.643 0-6.48-0.605-8.503-1.821-0.813-0.403-2.231-1.418-4.254-3.038l-0.611-0.605 0.611-1.217c0.807-0.813 2.635-4.456 5.465-10.937 3.246-7.293 5.471-12.152 6.688-14.586v-0.604c-1.217-16.609-2.029-25.926-2.433-27.956-0.403-0.403-0.807-0.807-1.216-1.21-1.62-2.029-2.226-3.246-1.822-3.649v-2.427c0-4.866 0.611-9.928 1.822-15.191-0.807-6.076-1.822-13.773-3.039-23.096-1.21-7.696-2.83-12.96-4.86-15.796-0.807 3.644-1.822 8.913-3.038 15.796-1.62 12.563-2.635 21.066-3.038 25.522h0.611v0.611c0 0.403 0.202 0.807 0.605 1.211 0.813 2.836 1.216 4.456 1.216 4.865 0 0.808-0.202 2.831-0.611 6.077-0.404 1.619-0.807 3.643-1.211 6.076 1.211 10.937 1.822 19.85 1.822 26.732 0 0.403-0.202 0.611-0.611 0.611 0 0.808-0.202 1.62-0.605 2.427-0.403 0.404-0.605 0.813-0.605 1.217-0.409 0.403-0.611 0.813-0.611 1.217h-0.605c-0.813 0.807-1.62 2.427-2.433 4.859-0.403 1.62-0.807 2.837-1.216 3.644-0.403 0.813-0.807 1.015-1.21 0.611-2.029 1.62-4.866 2.427-8.509 2.427-2.433 0-4.658-0.403-6.682-1.21-0.813 0-2.634-0.813-5.471-2.434l-1.821-0.604 1.216-1.217c2.427-2.433 4.86-5.471 7.287-9.114 1.216-1.62 2.836-3.442 4.866-5.472v-0.605c0.403-1.216 0.807-2.029 1.21-2.433 0.41-1.217 0.611-3.644 0.611-7.293 0-3.24-0.403-7.898-1.216-13.975v0.611c-0.404-0.409-0.605-0.813-0.605-1.217 0-1.217-0.208-2.635-0.611-4.255v-0.604c-0.403-0.813-0.605-1.62-0.605-2.434-0.404-0.813-0.813-1.418-1.217-1.821-1.62-4.053-2.635-6.48-3.038-7.293h-0.605v-11.548h0.605v-3.644c0-6.479-0.403-13.168-1.216-20.051-0.404-4.053-1.62-8.51-3.644-13.369-2.433-4.457-5.27-8.51-8.509-12.153 0-0.403-0.202-0.605-0.605-0.605-5.673-3.649-10.937-11.144-15.802-22.483-3.644-8.913-6.278-18.841-7.898-29.777-1.62-8.913-3.24-17.215-4.86-24.911-0.813-3.24-1.62-6.278-2.433-9.115-2.023-6.889-3.24-10.937-3.643-12.153 0-0.813-0.813-2.635-2.433-5.471-0.404-0.403-0.605-0.807-0.605-1.216-2.433 0-4.254-0.605-5.471-1.822-2.023-1.217-3.644-4.255-4.86-9.115v-0.605h-0.605c-1.62-2.836-3.441-6.688-5.471-11.547-1.217-2.836-2.226-5.264-3.039-7.293-0.403-1.21-0.605-2.225-0.605-3.038h-0.611c-1.62-3.24-3.038-6.884-4.249-10.937-0.409-2.427-0.813-4.255-1.216-5.465v-0.611l-0.611-4.254c0-0.404-0.202-0.807-0.605-1.21v-3.65c-1.62 0.813-2.836 1.418-3.644 1.822-2.029 1.217-3.246 2.433-3.649 3.649l-0.605 0.605v0.611c-0.403 2.427-1.822 4.86-4.254 7.287-3.644 3.649-7.697 5.471-12.153 5.471-0.404 0-1.418-0.202-3.039-0.605-0.403-0.41-0.813-0.611-1.216-0.611h-0.605l-0.611-0.605v-0.611c-0.807-0.807-1.211-1.62-1.211-2.427 0-0.813 1.009-2.433 3.039-4.86 2.427-2.836 4.249-5.471 5.465-7.904 4.86-8.1 8.913-14.176 12.153-18.229 0.403 0 0.611-0.202 0.611-0.605 2.831-3.24 5.465-4.86 7.898-4.86 0.807 0 2.225 0.605 4.254 1.822 0.404-0.813 0.807-1.418 1.211-1.822 1.62-4.053 2.029-7.293 1.216-9.726-1.216-2.427-1.009-4.86 0.611-7.287 1.62-2.03 3.644-1.62 6.076 1.21 2.427 2.836 4.249 4.457 5.465 4.866h9.115c0.403 0 3.442-0.208 9.115-0.611h3.649c0-0.403 0.202-0.605 0.605-0.605 0.404 0 0.813-0.202 1.217-0.611h1.216c0.403-0.403 1.21-1.009 2.427-1.822 2.433-1.62 4.053-2.836 4.86-3.644l0.611-0.611c4.047-2.023 5.673 0.41 4.86 7.293-0.404 1.217-0.813 2.836-1.217 4.86-0.403 1.62-0.807 2.836-1.216 3.649 0.813 0.807 1.62 1.822 2.433 3.038 0.403 0.403 0.813 0.807 1.216 1.216 1.217 0 2.023-0.208 2.427-0.611 1.216-0.807 2.635-1.217 4.254-1.217 3.649 0 9.726 3.649 18.229 10.942 14.182 12.96 22.484 20.455 24.917 22.478l1.21 0.611-0.605 1.216c-0.404 0.807-1.217 1.62-2.433 2.427-2.023 1.216-4.86 1.822-8.503 1.822-8.913 0-16.206-3.24-21.879-9.72-2.023-3.24-3.442-5.471-4.249-6.682-1.217-1.62-2.231-2.433-3.039-2.433h-1.216v0.605l-3.038 3.038c-0.404 0.813-0.813 1.418-1.217 1.828 2.836 15.393 9.115 25.925 18.835 31.593 8.106 5.269 18.437 9.927 30.993 13.98h4.86c7.697 0.807 16.004 1.418 24.911 1.822h4.255c9.316 0 15.595-0.202 18.841-0.611 11.743-0.807 21.268-2.629 28.555-5.465v-0.611c1.216 0 2.433-0.202 3.649-0.605 1.619-0.404 3.643-1.015 6.076-1.822 8.503-2.433 17.416-4.457 26.732-6.077h4.866c3.644 0.807 10.123 2.836 19.439 6.077 3.649 1.216 6.89 2.427 9.727 3.644h0.604c2.03 2.836 4.457 6.889 7.293 12.153 1.62 2.836 3.442 6.48 5.472 10.937 0.403 0 0.605 0.208 0.605 0.611 0.81 2e-3 3.036 0.204 6.679 0.607zm-53.471-8.503c6.89 2.023 10.533 3.038 10.937 3.038-0.808 0.404-1.822 0.605-3.038 0.605-8.101-1.62-13.364-3.442-15.797-5.471 0.813 0 3.441 0.611 7.898 1.828zm-11.542 4.86c2.023 2.023 6.48 4.255 13.363 6.682 6.486 2.836 10.13 4.658 10.942 5.471-0.409 0-1.418 0.202-3.038 0.605h-3.649c-4.859 0-9.316-2.023-13.369-6.077-2.427-2.023-4.249-4.254-5.465-6.682h1.216zm-6.076 3.038c2.427 0.404 5.667 2.226 9.72 5.465 5.673 4.457 9.928 7.495 12.758 9.115-0.403 0.41-1.008 0.611-1.821 0.611-5.264-0.813-9.72-3.039-13.369-6.688-3.644-4.047-6.076-6.682-7.287-7.898v-0.605zm4.249-6.076c2.433-0.404 5.067 0 7.903 1.216-1.619-1.62-2.433-2.635-2.433-3.038 1.217 0 3.644 0.807 7.293 2.427 4.047 1.62 7.898 3.649 11.542 6.077 0 0.403-0.403 0.611-1.211 0.611-0.409 0.403-0.813 0.605-1.216 0.605 1.216 0.404 2.634 1.015 4.254 1.822-0.409 0.404-1.418 0.611-3.038 0.611-4.866 0-9.322-1.216-13.369-3.649-4.053-2.836-7.293-4.86-9.726-6.077v-0.605zm44.967 74.133c-0.214 0.415-0.415 0.818-0.605 1.211-0.112 0.338-0.214 0.641-0.309 0.913 0.369-0.694 0.671-1.4 0.914-2.124zm1.52 6.682l-0.303-1.217c0 0.404-0.202 0.611-0.611 0.611l0.611 1.211c0.154-0.148 0.255-0.356 0.303-0.605zm-2.736 4.86c0.813-1.62 1.62-3.039 2.434-4.255-0.813 0.813-1.62 1.827-2.434 3.038v1.217zm-23.089 9.115c2.433-3.24 6.278-9.114 11.548-17.618 4.456-6.89 8.1-11.75 10.937-14.586-5.27 10.13-8.106 15.393-8.51 15.797-3.644 6.485-8.302 11.951-13.975 16.407zm-190.19-154.95c0.807-1.217 1.418-2.023 1.822-2.427 0.813-1.216 2.023-1.828 3.644-1.828s2.635 0.208 3.038 0.611c0.41 0.403 0.813 0.807 1.217 1.216l0.611 0.605-1.217-0.605c0.404 1.62 0.404 3.039 0 4.249h-0.611c-0.807 1.62-2.023 2.433-3.643 2.433-1.217 0-2.226-0.403-3.039-1.216-0.403 0-0.605-0.202-0.605-0.605-0.41 0.404-1.217 0.807-2.433 1.217 0.403-2.03 0.813-3.246 1.216-3.65zm-40.714 0.612c-0.813 0-1.216 0.403-1.216 1.21l1.216 1.216c1.217-0.807 1.217-1.62 0-2.426zm-7.897-23.096c-1.62 0.41-3.649 1.828-6.077 4.255l-0.611 0.611c-3.24 3.644-7.085 9.518-11.542 17.618-1.62 2.433-3.649 5.27-6.076 8.509-1.217 1.62-2.03 2.635-2.433 3.038 0 0.404 0.202 0.807 0.611 1.217 0.403 0 0.807 0.202 1.21 0.605h2.433c3.643 0 6.889-1.216 9.72-3.644 0-0.409 0.208-0.611 0.611-0.611 2.023-2.024 3.24-4.047 3.644-6.077 0-0.403 0.202-0.807 0.611-1.216 0.807-2.023 2.427-3.845 4.86-5.465 1.216-0.813 3.038-1.62 5.465-2.433l0.611-0.605v-6.688c0.404-3.24 0.605-5.667 0.605-7.287-1.619-1.216-2.835-1.827-3.642-1.827zm103.9 32.815c0.813-0.403 1.216-0.813 1.216-1.216-3.24-2.836-11.34-10.124-24.306-21.873-7.696-6.889-13.167-10.331-16.408-10.331-1.216 0-2.023 0.202-2.427 0.605-1.217 0.813-2.836 1.217-4.866 1.217h-0.605c-0.813-0.404-1.418-1.217-1.822-2.427-0.813-1.216-1.62-2.029-2.433-2.433h-0.605v-0.605h-0.611c-0.807-2.029-1.62-3.649-2.427-4.866-1.216-2.024-2.836-3.24-4.86-3.644-0.409 0.403-0.813 0.605-1.216 0.605l-0.611 0.611h-4.86c-5.673 0.807-8.711 1.216-9.115 1.216h-0.605c-2.433-0.409-4.658-0.409-6.688 0h-1.822c-1.216-0.813-2.023-1.216-2.427-1.216-2.03 0-4.053 1.822-6.077 5.465-1.216 1.62-2.029 3.038-2.433 4.255-0.403 0-0.605 0.202-0.605 0.611-0.41 0.807-0.611 1.62-0.611 2.427v0.611c-0.403 1.21-0.605 3.845-0.605 7.898-0.403 0.403-0.403 0.807 0 1.216-0.403 1.62 0.202 1.62 1.822 0-2.023 4.457-3.038 6.884-3.038 7.287v0.611c-0.403 0.403-0.605 0.807-0.605 1.216 0.404-0.409 1.009-0.611 1.822-0.611 0.807 0 2.226 1.015 4.255 3.039 0.403 0.403 0.807 0.813 1.21 1.216 0.813 0.813 1.217 1.62 1.217 2.433 0.403 0.807 1.216 3.441 2.433 7.898 1.62 5.264 2.427 8.711 2.427 10.331 0 1.211-0.202 2.629-0.605 4.249h-0.605c-0.41-2.831-1.015-6.48-1.828-10.937l-1.821-9.72c-0.404 0-1.009-0.611-1.822-1.822l-1.217 1.21c-0.807 0.813-2.023 1.216-3.644 1.216h-0.611c0.409 1.217 0.813 3.039 1.216 5.471 1.216 3.644 2.635 6.884 4.255 9.72 0 0.403 0.202 0.813 0.605 1.216 0 0.813 0.208 1.62 0.611 2.433v0.605c0.807 1.62 1.822 4.053 3.038 7.293 2.023 4.457 3.845 8.1 5.465 10.937 0.41 0 0.611 0.202 0.611 0.605l1.216 1.216v0.611h0.605c0.403 0 0.813 0.202 1.216 0.605 0.807 0.404 1.822 0.605 3.038 0.605 0-1.21 0.404-3.442 1.217-6.682 0 3.24 0.403 5.263 1.21 6.076 3.649 0.404 6.688-1.216 9.115-4.86 1.216-1.216 3.246-2.836 6.076-4.86-1.21 2.831-2.628 5.062-4.249 6.682-1.217 1.62-2.635 2.836-4.255 3.644-1.216 1.62-2.231 2.635-3.038 3.038-0.813 0.813-2.029 1.217-3.649 1.217s-2.831-0.202-3.644-0.605h-0.605v-0.611c-0.813-0.403-1.62-0.807-2.433-1.21 0-0.41-0.202-0.611-0.605-0.611 0.807 2.03 1.822 3.442 3.038 4.255 0.807 0.813 2.226 1.216 4.249 1.216h1.828c0.807-0.403 1.822-0.813 3.038-1.216 1.21-0.813 2.023-1.216 2.427-1.216 0.403-0.807 1.418-2.427 3.038-4.86 0-0.403 0.403-1.015 1.216-1.822 0.813-1.216 2.024-2.836 3.644-4.86 0.41-0.409 0.813-0.813 1.217-1.216v-0.611c0.403-1.62 1.418-3.845 3.038-6.682 2.029-2.433 3.24-3.644 3.649-3.644 0.403 0 0.605 0.202 0.605 0.605 0.403-1.62 0.813-3.442 1.216-5.471-1.62 2.433-4.053 5.673-7.293 9.726-0.813 0-1.418-0.202-1.822-0.611 2.836-4.457 4.658-6.884 5.465-7.287 1.216-2.03 2.635-3.649 4.254-4.866 0.404-1.21 0.611-2.225 0.611-3.038v-1.21c-0.409 0.807-1.216 1.822-2.433 3.038-2.837 3.644-5.062 5.869-6.682 6.682 1.211-1.216 2.831-3.644 4.86-7.293 1.62-3.24 3.24-5.263 4.86-6.076 0.813-6.48 1.418-10.331 1.822-11.542v-1.217h1.216c0.404 0 0.813-0.202 1.216-0.611 0.404-0.403 0.807-0.807 1.217-1.21 0.807-0.813 1.62-1.828 2.427-3.038 0.404-0.813 1.015-1.418 1.822-1.828v-0.605h1.827c1.211 0 2.831 1.217 4.86 3.644 0.807 1.216 2.427 3.448 4.86 6.688 4.86 6.077 11.34 9.115 19.446 9.115 2.842 1e-3 5.067-0.403 6.687-1.216zm-66.841 7.293c0-4.053 0.403-7.696 1.216-10.937 1.216-3.246 2.836-6.688 4.86-10.331-1.216 10.124-3.038 17.826-5.465 23.089 0-0.404-0.208-0.605-0.611-0.605v-1.216zm4.255-4.255h-0.605c0.807-4.457 2.023-8.302 3.644-11.547 2.023-4.457 4.456-7.697 7.293-9.72-1.217 2.836-3.039 6.48-5.471 10.937-2.428 4.456-4.048 7.898-4.861 10.33zm12.758-13.369c0 0.813 0.41 1.015 1.216 0.611 0.813 0 1.015-0.41 0.611-1.217-0.812-0.812-1.417-0.61-1.827 0.606zm2.433 9.115c0 1.216-0.813 2.836-2.433 4.86-1.21 2.029-2.629 3.246-4.249 3.649 0.807-1.217 1.822-2.635 3.038-4.255 1.621-2.432 2.831-3.851 3.644-4.254zm-16.407 13.369c0.403 0.813 0.611 2.023 0.611 3.644 0 1.216-0.208 3.448-0.611 6.688h-0.605c-0.403-1.62-0.611-3.851-0.611-6.688v-3.644h1.216zm-5.466 33.421l-2.433 1.217c0.813 1.216 1.418 2.225 1.822 3.038v-1.217c0-0.813 0.202-1.822 0.611-3.038zm-2.432-21.268c1.62-1.62 2.225-1.822 1.822-0.605-2.024 5.263-3.24 7.898-3.644 7.898l1.822-7.293zm-9.721 0.606c-0.409-1.21 0-1.418 1.21-0.605l3.039 5.471c-1.211-0.814-2.628-2.434-4.249-4.866zm-1.216-6.077c4.457-0.807 8.913-0.807 13.369 0 3.644 0.813 5.062 2.03 4.249 3.649-0.807 3.24-2.226 5.673-4.249 7.293h-1.216c3.24-4.457 4.255-7.091 3.038-7.904-5.673-2.427-10.937-2.629-15.802-0.605-1.21 1.216 0.208 4.457 4.255 9.72-3.24-2.831-5.465-5.062-6.682-6.682-0.813-2.836 0.202-4.658 3.038-5.471zm21.268 18.229v0.611c-0.813 1.216-1.62 2.427-2.433 3.644 0 0.403 0.202 1.015 0.611 1.821 0.403-2.83 1.009-4.249 1.822-4.249 0.397-0.403 0.599-1.21 0.605-2.433-0.012 0.405-0.214 0.606-0.605 0.606zm35.242 122.14c-0.813-0.403-1.62-0.403-2.433 0 0.41 0 1.418 1.217 3.038 3.644 2.433 5.27 3.852 10.129 4.255 14.586 0.403 6.479 0.611 13.161 0.611 20.051v14.585c0.403 0.807 1.418 3.038 3.038 6.682 0.403 0.813 0.605 1.418 0.605 1.822h0.605c0 1.216 0.208 2.23 0.611 3.038v0.611c0.403 1.619 0.807 3.239 1.216 4.859v0.605c0.807 6.076 1.211 10.734 1.211 13.975 0 4.053-0.202 6.688-0.605 7.904-0.403 0.807-0.813 1.821-1.216 3.038h-0.605v0.605c-1.62 2.433-3.24 4.456-4.86 6.076-2.03 3.24-4.053 5.875-6.077 7.898 2.023 0.813 4.457-0.403 7.287-3.644l-3.038 4.859c1.216 0.813 3.038 1.217 5.471 1.217 3.24 0 5.673-0.813 7.293-2.433l0.605-0.605c0.404-0.403 0.611-1.015 0.611-1.821 1.21-3.246-1.62-4.658-8.509-4.255 8.1-2.029 12.354-3.442 12.758-4.255 0.41-0.403 0.611-0.813 0.611-1.217-0.403 0.813-1.015 1.419-1.822 1.822-0.813 0-1.418-0.202-1.828-0.605v-6.076c-0.403-2.434-0.807-5.063-1.21-7.898v-12.764c0-1.21 0.202-2.225 0.605-3.038 0-1.62-0.202-2.83-0.605-3.644 0-0.813-0.208-1.62-0.611-2.433-2.427-7.287-3.644-11.743-3.644-13.363v-0.611h1.217l2.427 5.471v-2.433c-2.023-4.859-3.038-7.696-3.038-8.503v-2.434h1.216c0.528 1.585 1.133 3.306 1.822 5.163v-0.303c-1.216-4.047-1.822-9.115-1.822-15.191v-3.038c0-0.807 0.404-1.418 1.217-1.821v-2.434c0-1.21 0.202-2.427 0.605-3.644-0.807-2.836-1.822-5.874-3.038-9.114-0.404-0.403-0.605-1.015-0.605-1.822-1.216-2.029-2.433-3.851-3.649-5.471l-0.605-0.605c0.813 1.62 2.023 4.047 3.644 7.293l-0.605 0.605c-0.813-0.813-2.225-2.635-4.255-5.472 0.404 1.62 1.015 3.246 1.822 4.866v0.605c-3.24-2.433-6.076-5.472-8.503-9.115-0.405-0.81-0.815-1.415-1.218-1.818zm3.952-18.23l0.302 0.303v-0.303h-0.302zm-44.666-93.58c-0.404-0.807-0.605-1.822-0.605-3.038l-0.611 0.611c0.41 1.21 0.813 2.427 1.217 3.643-1e-3 -0.403-1e-3 -0.812-1e-3 -1.216zm138.54-2.426c-3.644-0.41-5.667-0.611-6.077-0.611 6.486-0.404 13.981-1.418 22.484-3.038 2.029-0.404 3.852-0.807 5.472-1.217 2.023-0.403 3.845-0.807 5.465-1.21-0.807 0.807-2.629 1.62-5.465 2.427-0.813 0.403-1.419 0.813-1.822 1.216-5.27 1.62-9.524 2.433-12.764 2.433h-7.293zm21.268 3.038c-1.211 0.403-3.038 1.009-5.466 1.822-2.029 0.807-5.673 1.216-10.937 1.216-8.105 0-12.764-0.611-13.98-1.828-0.403-0.807-0.807-1.21-1.21-1.21h-4.866c3.649-0.813 9.114-1.015 16.407-0.611 8.51 0.813 14.586 1.015 18.229 0.611h1.823zm-56.51 107.55v3.038c0.018-0.849 0.226-1.655 0.611-2.427l-0.611-0.611zm4.86-1.822c0.018-0.415 0.219-0.818 0.611-1.216v-0.605c-0.397 0.397-0.605 1.008-0.611 1.821zm15.802-4.86h0.605v-0.605c-5e-3 0.392-0.213 0.594-0.605 0.605zm-29.166 54.688c0.285-1.43 0.487-3.15 0.605-5.162-0.119 1.198-0.32 2.516-0.605 3.946v1.216zm-7.903 29.777h-0.605c-0.403 0-0.605-0.208-0.605-0.611 0.391 0.392 0.794 0.594 1.21 0.611zm9.725-10.331l-0.611 0.605c0 1.519-0.403 3.75-1.21 6.688 0.196-0.202 0.397-0.403 0.605-0.611 0.813-1.62 1.216-3.644 1.216-6.076v-0.606zm-3.038 63.803v-0.611c-0.404 0.409-1.015 0.611-1.822 0.611v0.605c0.807-0.404 1.418-0.605 1.822-0.605zm0.605-29.475v2.735c0 0.404 0.202 0.813 0.611 1.217-0.38-1.133-0.581-2.45-0.611-3.952zm70.49-9.417c-1.216 0.813-3.649 3.24-7.293 7.293-3.649 4.456-6.277 7.091-7.897 7.898v1.216c2.023 0.403 6.883 0.605 14.579 0.605h2.434c0-0.403 0.201-0.807 0.605-1.211l1.821-7.293-6.076-1.216 8.509-3.038 0.605-0.605c0.41 0 0.813-0.208 1.217-0.611-0.403-0.403-0.807-0.605-1.217-0.605v-1.217c0-0.813 0.208-1.821 0.611-3.038-0.403-1.216-0.611-2.635-0.611-4.254 0-5.674 0.611-9.922 1.828-12.759 0.403-2.433 1.21-5.471 2.427-9.114 0.403-1.62 0.611-3.24 0.611-4.86 1.211-5.673 2.226-10.331 3.038-13.98-0.409-1.211-0.813-3.846-1.217-7.898-0.397 0-0.599-0.201-0.61-0.605v0.605c-0.808-2.023-1.211-4.456-1.211-7.293-0.409-2.023-0.611-3.644-0.611-4.859-0.403 2.836-1.217 6.278-2.427 10.331h-0.611c0-0.813-0.202-1.62-0.605-2.433 0 1.216-0.201 2.23-0.611 3.038 0.41 2.029 0.611 3.649 0.611 4.865v0.605c0 0.403-0.201 0.813-0.611 1.217-0.807-0.813-1.62-2.231-2.427-4.255 0-0.403-0.202-0.813-0.611-1.217 2.837 9.316 4.053 16.004 3.649 20.052v0.61c0 1.62-0.611 5.063-1.821 10.332-0.813 3.239-1.828 7.085-3.038 11.541-1.217 4.053-2.231 7.696-3.039 10.937v1.216zm61.37-66.84c-0.374-1.116-0.575-2.226-0.605-3.341v2.124c0 0.409 0.202 0.813 0.605 1.217zm-52.254 69.878c0.807-0.807 1.821-1.418 3.038-1.822-0.409-1.216-0.813-2.433-1.217-3.643-0.813 2.427-1.418 4.249-1.821 5.465z" clip-rule="evenodd" fill="#4D0F0F" fill-opacity=".9882" fill-rule="evenodd"/>
			<path d="m166.19 121.46c4.86 0.403 12.556 2.023 23.089 4.86l-4.86 0.605c-9.316-2.837-15.998-4.457-20.051-4.86 0.814-0.403 1.419-0.605 1.822-0.605zm-15.796 3.038v-0.611l-2.433 1.217h-0.605c-0.813 0.403-1.821 1.216-3.038 2.433-1.216 0.807-3.038 2.226-5.471 4.249l-1.216-1.21c2.433-1.62 4.457-3.039 6.076-4.255 0.41-0.403 0.813-0.813 1.217-1.216-0.807 0-1.822-0.404-3.038-1.217-1.217-0.403-3.039-1.216-5.465-2.427l0.605-1.828c2.433 1.62 4.255 2.635 5.471 3.038 1.62 0.813 3.24 1.216 4.86 1.216 0.404-0.403 1.822-0.807 4.255-1.216l2.427 0.611c-1.217 0.403-2.226 1.216-3.039 2.427-1.216 1.62-2.023 3.038-2.427 4.255v5.471l-0.611-0.611c-0.403-2.831-0.605-4.457-0.605-4.86-1e-3 -1.621 1.007-3.443 3.037-5.466z" clip-rule="evenodd" fill="#5F622D" fill-rule="evenodd"/>
			<g clip-rule="evenodd" fill-opacity=".9882" fill-rule="evenodd">
				<path d="m147.96 131.18v4.86c0 3.24-0.807 7.091-2.427 11.548 2.83-6.48 4.047-11.75 3.643-15.802 0.813 0.409 1.822 1.015 3.039 1.828 1.62 1.62 2.635 4.047 3.038 7.287-0.403-0.404-0.813-0.807-1.216-1.211v3.039c-0.404-0.41-0.807-0.813-1.217-1.217 0.41 2.023-0.202 3.644-1.822 4.86v-1.822c-0.403 1.216-1.418 2.225-3.038 3.038-2.023 1.216-3.24 2.225-3.644 3.038 0-0.813-0.202-1.62-0.611-2.433v-3.643h-1.21l0.605-1.822c0-0.813 0.202-1.418 0.605-1.828l-1.21 0.611c-0.409-0.403-0.208-1.216 0.605-2.433 0-1.217 0.202-2.023 0.605-2.427-0.403 0-0.807 0.202-1.21 0.605-0.409-0.813-0.208-1.822 0.605-3.039 0.403-0.812 2.024-1.821 4.86-3.037zm-7.898-9.72c-1.217-0.813-2.836-1.62-4.86-2.433-3.24-1.216-6.688-1.418-10.331-0.605 2.836-0.409 6.48 0.404 10.937 2.427 1.62 0.813 2.836 1.418 3.649 1.822-1.62 1.62-3.038 2.433-4.255 2.433-1.62 0.403-2.634 0.403-3.038 0 0.807-0.404 1.216-0.813 1.216-1.217h-5.472l1.217-1.216h-1.217l-2.433-0.605c0.409 0 0.611-0.403 0.611-1.216-0.813 0-2.03-0.403-3.65-1.216-0.807-0.404-1.418-0.807-1.821-1.211 0.813-0.409 2.029-1.216 3.649-2.433 2.005-1.205 3.424-1.816 4.249-1.822-0.416-6e-3 -1.021-0.208-1.822-0.611 1.62-0.807 3.442-0.605 5.471 0.611-0.403-0.813-0.813-1.418-1.216-1.822h0.605c1.217 0.807 2.03 1.21 2.433 1.21 0-0.807-0.202-1.418-0.605-1.822 3.24 1.62 5.062 3.442 5.465 5.471 0.405 1.62 0.814 3.038 1.218 4.255zm1.216 6.682c-5.673 2.023-10.331 6.48-13.975 13.369 4.86-6.889 9.72-11.144 14.58-12.764 0.813 3.65 0.813 6.284 0 7.904-1.217 1.62-2.024 2.427-2.427 2.427 0-0.807-0.208-1.418-0.611-1.822-0.403 0.813-1.009 1.822-1.822 3.038-1.62 1.216-2.635 2.023-3.038 2.433l0.605-1.828c-0.807 0.409-1.418 0.813-1.822 1.216-1.217 1.216-2.023 2.029-2.427 2.433v-1.822c-0.813 0.807-2.231 1.62-4.254 2.427-1.217 0.813-2.231 1.418-3.039 1.822v-6.682c0-2.409 0.404-4.13 1.217-5.163-0.291 0.344-0.694 0.647-1.217 0.908 0.404-2.427 1.822-4.254 4.255-5.465h-2.433c1.62-1.217 2.635-1.828 3.038-1.828-0.403-0.807-1.015-1.21-1.821-1.21 4.047-2.029 7.292-2.433 9.72-1.216 2.433 0.404 4.255 1.01 5.471 1.823z" fill="#188A2E"/>
				<path d="m149.18 131.79c0.404 4.053-0.813 9.322-3.643 15.802 1.62-4.457 2.427-8.308 2.427-11.548v-4.86c0.403 1e-3 0.813 0.202 1.216 0.606zm-7.292-3.038c-4.86 1.62-9.72 5.875-14.58 12.764 3.644-6.889 8.302-11.346 13.975-13.369 0.403 0 0.605 0.201 0.605 0.605zm-1.822-7.287v0.605c0 0.404-0.202 0.605-0.605 0.605-0.813-0.403-2.029-1.009-3.649-1.822-4.457-2.023-8.1-2.836-10.937-2.427 3.644-0.813 7.091-0.611 10.331 0.605 2.024 0.814 3.643 1.621 4.86 2.434z" fill="#074F15"/>
			</g>
</svg>
