<?xml version="1.0" encoding="utf-8"?>
<!-- Generator: Adobe Illustrator 25.0.0, SVG Export Plug-In . SVG Version: 6.00 Build 0)  -->
<svg version="1.1" id="Layer_1" xmlns="http://www.w3.org/2000/svg" xmlns:xlink="http://www.w3.org/1999/xlink" x="0px" y="0px"
	 viewBox="0 0 2885.4 2000" style="enable-background:new 0 0 2885.4 2000;" xml:space="preserve">
<style type="text/css">
	.st0{fill:#FFFFFF;}
	.st1{fill:#FADEC0;}
	.st2{fill:#FFF5ED;}
	.st3{fill:#FFB27D;}
	.st4{fill:#231F20;}
	.st5{fill:#ED975D;}
	.st6{fill:#163560;}
	.st7{fill:#F99746;}
	.st8{fill:#ED985F;}
	.st9{fill:#2A4E96;}
	.st10{fill:#233862;}
	.st11{fill:#BC3F3F;}
	.st12{fill:#A02E2E;}
	.st13{fill:#ED7D2B;}
	.st14{fill:#5D8DD4;}
	.st15{fill:#8EB2E5;}
	.st16{fill:#2E3552;}
</style>
<rect x="52.07" y="22.15" class="st0" width="2885.4" height="2000"/>
<g>
	<path class="st1" d="M2644.75,1829.49c0,0,213.87-507.91-31.37-907.45c-450.54-734.01-799.92-230.4-1133.51-450.31
		C997.58,153.79,207.97,207.46,273.26,1076.54c28.81,383.53-274.55,383.67-88.69,753.74L2644.75,1829.49z"/>
	<g>
		<path class="st2" d="M1838.16,1644.5c-47.71,0-87.62,33.42-97.6,78.12c-9.35-8.75-21.92-14.11-35.74-14.11
			c-11.43,0-22.01,3.67-30.61,9.89c0.25-2.44,0.38-4.92,0.38-7.43c0-39.51-32.03-71.55-71.55-71.55c-2.07,0-4.12,0.09-6.15,0.27
			v-248.85l-96.4-107.79l-129.94,170.93v138.36c-2.08-0.13-4.18-0.2-6.29-0.2c-54.94,0-99.48,44.54-99.48,99.48
			c0,1.69,0.04,3.38,0.13,5.05c-7.09-1.96-14.56-3.02-22.27-3.02c-7.87,0-15.49,1.09-22.71,3.14
			c-9.48-45.81-50.06-80.25-98.69-80.25c-55.66,0-100.78,45.12-100.78,100.78c0,3.69,0.2,7.34,0.59,10.93
			c-7.39-4.33-16-6.82-25.18-6.82c-27.55,0-49.88,22.33-49.88,49.88c0,27.55,22.33,49.88,49.88,49.88h879.67v-0.35
			c12.07,0,62.62-21.11,62.62-76.34S1893.39,1644.5,1838.16,1644.5z"/>
		<g>
			<polygon class="st3" points="2364.79,1794.13 2368.95,1764.14 2351.46,1749.53 2345.95,1789.23 			"/>
			<path class="st4" d="M2306.71,1820.91h71.29c0,0,1.71-10.86-2.02-19.11c-3.57-7.91-9.12-12.79-9.63-18.85
				c-4.53,4.66-10.1,7.66-20.41,6.28c-1.26,2.05-8.15,13.01-12.37,16.04C2328.92,1808.61,2308.15,1807.42,2306.71,1820.91z"/>
			<path class="st4" d="M2321.04,1389.24c4.66,37.51,8.47,72.87,11.58,105.82c16.59,175.59,13.34,282.91,13.34,282.91
				s1.2,3.18,11.49,3.22c5.81,0.03,11.51-1.24,11.51-1.24s37.15-114.66,34.28-179.91c-0.34-7.85-1.26-14.98-2.9-21.12
				c-8.91-33.38,32.98-161.05-12.56-208.6C2342.25,1322.8,2318.89,1372.03,2321.04,1389.24z"/>
			<path class="st4" d="M2321.04,1389.24c4.66,37.51,8.47,72.87,11.58,105.82l70.61,104.99c-0.34-7.85-1.26-14.98-2.9-21.12
				c-8.91-33.38,32.98-161.05-12.56-208.6C2342.25,1322.8,2318.89,1372.03,2321.04,1389.24z"/>
			<path class="st3" d="M2264.93,1031.5c0,0,1.72-8.57,3.65-15.11c0.86-2.89-5.11-21.9-9.24-24.24
				c-4.13-2.34-14.89,10.46-11.84,20.29c1.56,5.05,4.13,21.48,4.13,21.48L2264.93,1031.5z"/>
			<path class="st3" d="M2264.93,1031.5c0,0,2.25-4.97,4.27-5.77c2.03-0.81,4.2-8.93,5.69-12.15c0,0-1.44-2.11-3.95,0.6
				c-1.54,1.65-4.96,6.5-4.96,6.5L2264.93,1031.5z"/>
			<path class="st3" d="M2559.24,1060.32c0.44,0.9,1.04,2.51,1.59,4.03c0.01-0.41,0.02-0.82,0.02-1.22
				c0.03-3.02,11.3-19.44,15.93-20.47c4.63-1.03,11.17,14.36,5.39,22.87c-2.97,4.37-10.24,19.33-10.24,19.33l-12.01-6.2
				c0,0-0.69-5.41-2.4-6.77s-1.4-9.77-1.88-13.28C2555.63,1058.59,2557.63,1056.99,2559.24,1060.32z"/>
			<path class="st3" d="M2484.35,1785.14c1.01-9.61,1.26-34.9,1.26-34.9s-25.76-8.24-24.82-2.58c4.66,27.8,3.4,41.57,3.4,41.57
				l10.42,6.22L2484.35,1785.14z"/>
			<path class="st4" d="M2342.56,1387.46c0,0,99.53,272.83,119.12,391.18c0,0,4.54,3.12,13.01,2.08c9.6-1.17,12.23-7.84,12.23-7.84
				s17.98-141.84-17.76-191.09c-24.55-33.83,10.59-182.42-46.6-194.33C2365.38,1375.54,2342.56,1387.46,2342.56,1387.46z"/>
			<path class="st4" d="M2359.51,1178.3c0.45,1.16,0.95,2.27,1.51,3.33c0.85,1.62,1.8,3.1,2.89,4.45c-0.44-1.41-0.85-3.1-1.2-5.15
				l0-0.01c-0.16-0.91-0.3-1.88-0.43-2.94c-0.56-4.81-0.78-11.16-0.24-19.6c-0.02,2.06,0.01,10.72,1.67,19.44
				c0.15,0.83,0.32,1.65,0.52,2.47c0.62,2.73,1.42,5.42,2.46,7.84c0.18,0.46,0.39,0.92,0.61,1.37c6.65,5.93,14.59,15.01,22.69,25.44
				c5.58,7.17,11.22,14.98,16.55,22.85c2.06,3.04,4.07,6.07,6.02,9.08l0.01,0.01c0.83,1.27,1.63,2.52,2.41,3.77
				c0,0,0.01,0,0.01,0.01c0.99,1.56,1.94,3.09,2.88,4.62c2.61,4.24,5.03,8.34,7.21,12.24c0.5,0.89,0.99,1.76,1.45,2.62
				c6.73,12.33,10.73,22.12,9.82,25.87c0,0,0.43-0.3,1.23-0.85c0.23-0.15,0.47-0.32,0.76-0.52c2.75-1.91,8.17-5.63,15.04-10.28
				l0.45-1.39l3.43-10.62c0.75,2.39,0.25,6.61-0.27,9.57c10.76-7.28,24.19-16.24,36.35-24.02c0.01-0.01,0.01-0.01,0.01-0.01
				c9.09-5.83,17.47-10.99,23.52-14.32c-0.82-5.4-3.71-15.05-3.81-15.4c3.55,1.57,6.94,9.03,8.54,12.96c0.41-0.2,0.8-0.38,1.16-0.53
				c0,0,0.67-30.42-39.06-59.11c-20.82-15.04-35.58-22.18-32.46-36.88c3.12-14.7,5.8-79.55-40.04-69.29c0,0-6.5-4.12-9.68-4.12
				c0,0,2.48,0.87,3.57,2.39c-4.98-1.04-12.22-1.74-18.73,0.78c-3.57,1.38-7.52,5.85-11.37,12.31l-0.01,0.01
				c-0.23,0.42-0.48,0.83-0.73,1.27c-1.63,2.85-3.23,6.06-4.77,9.52c-2.67,6.03-5.15,12.86-7.24,20.04c0,0,0,0,0,0.01
				c-0.68,2.35-1.32,4.71-1.9,7.11c-0.04,0.12-0.06,0.23-0.08,0.35c0,0,0,0,0,0.01C2355.59,1144.17,2354.14,1164.6,2359.51,1178.3z"
				/>
			<path class="st3" d="M2368.85,1190.7c-0.15,0.04,12.83,9.45,23.85,8.12c10.36-1.23,18.79-13.18,18.66-13.23
				c-4.09-1.46-4.45-7.44-0.65-32.33l-1.96,0.09l-33,1.58c0,0-0.77,10.2-2.16,19.7C2372.41,1182.63,2370.8,1190.12,2368.85,1190.7z"
				/>
			<path class="st5" d="M2375.74,1154.94c0,0-0.77,10.2-2.16,19.7c18.01,2.16,29.93-12.79,35.16-21.28L2375.74,1154.94z"/>
			<path class="st6" d="M2412.57,1150.36c0,0,11.61-13.46,15.75-25.82c2.96-8.83,3.34-43.13-31.15-43.31c0,0-9.95-0.49-20.1,4.36
				c-8.07,3.86-20.24,12.98-12.77,44.07l1.6,10.36L2412.57,1150.36z"/>
			<path class="st0" d="M2316.88,1382.22c0,0,42.94,25.52,96.86,12.4c0.64-0.16,44.4-7.14,44.4-7.14
				c-0.75-2.06-6.41-35.86-7.15-37.75c-9.57-24.68-27.05-158.65-41.65-165.26c-3.73,4.06-14.39,6.84-23.51,6.03
				c-10.51-0.93-14.02-5.47-13.15-10.35c-11.62,5.5-20.56,10.61-20.56,10.61C2341.49,1206.68,2316.88,1382.22,2316.88,1382.22z"/>
			<path class="st3" d="M2368.41,1163.05c0,0,42.34,7.01,46.3-19.42c3.96-26.43,12.09-43.33-14.77-48.93
				c-26.86-5.59-33.64,3.7-37.11,12.2C2359.36,1115.41,2357.5,1160.54,2368.41,1163.05z"/>
			<path class="st4" d="M2380.71,1091.18c0,0,7.01,32.74,24.16,39.98c17.15,7.24,25.6,3.61,25.6,3.61s-4-16.57-4.01-35.96
				C2426.45,1098.81,2391.67,1077.72,2380.71,1091.18z"/>
			<path class="st4" d="M2384.08,1099.99c0,0-9.84,4.75-13.14,9.92c-3.3,5.16-6.73,16.09-10.65,15.37c0,0-4.89-17.5,6.99-26.12
				C2379.89,1090,2384.08,1099.99,2384.08,1099.99z"/>
			<path class="st7" d="M2251.34,1032.11c1.72-0.61,4.26-2.04,7.57-2.34c2.95-0.27,6.65,0.7,6.65,0.7s11.94,74.25,12.83,78.19
				c0.89,3.93,51.23,60.65,64.81,60.42c12.26-0.21,26.78,9.26,29.47,11.08c0,0-28.55,60.36-29.97,71.7
				c-1.55,12.34-16.33,202.33-16.33,202.33s0.88,8.84-15.64,4.09c-16.51-4.75-20.64-8.68-20.64-8.68s15.17-149.57,18.35-196.09
				c0.43-6.24,1.45-12.02,2.9-17.36c1.4-5.14,0.3-10.64-2.84-14.94c-20.88-28.66-53.85-75.1-55.69-84.97
				C2250.12,1121.72,2251.34,1032.11,2251.34,1032.11z"/>
			<path class="st4" d="M2424.95,1820.91h71.29c0,0,1.71-8.19-2.02-14.4c-3.57-5.96-9.12-9.64-9.63-14.21
				c-4.53,3.52-10.1,5.78-20.41,4.73c-1.26,1.54-8.15,9.8-12.37,12.08C2447.16,1811.64,2426.38,1810.74,2424.95,1820.91z"/>
			<path class="st7" d="M2375.98,1257.71c2.4-14.79,33.08-74.15,33.08-74.15s19.39-5.8,32.16-1.18c12.76,4.62,78.8-32.66,80.92-36.1
				c2.12-3.43,37.49-69.34,37.49-69.34s2.93-1.7,7.63,0.75c4.65,2.42,4.67,7.16,4.67,7.16s-27.3,82.99-34.56,95.82
				c-4.38,7.74-41.2,34.69-69.75,54.87c-5.45,3.85-8.31,10.42-7.42,17.03c3.84,28.38,4.82,44.36,9.23,93.05
				c3.66,40.39,5.06,118.6,5.06,118.6s-31.95,11.05-53.99,12.52c-22.05,1.47-26.85-21.78-26.85-21.78
				S2373.51,1272.91,2375.98,1257.71z"/>
			<path class="st0" d="M2382.28,1149.98c0,0-5.14,3.02-11.22,2.11c-4.16-0.62-5.1-5.56-5.1-5.56s2.89-0.91,7.51,0.02
				C2378.08,1147.47,2382.28,1149.98,2382.28,1149.98z"/>
		</g>
		<g>
			<path class="st3" d="M722.35,1085.26c0,0-17.09-17.15-6.8-24.46c10.29-7.32,16.53-4.94,18.36-0.46c1.83,4.48,2,24.09,2,24.09
				L722.35,1085.26z"/>
			<path class="st0" d="M767.66,1212.73c-19.81,9.56-38.5,16.63-55.7,21.83c-16.33,4.94-31.31,8.18-44.63,10.27
				c-3.58,0.57-7.03,1.04-10.36,1.45c-35.19,4.27-56.36,0.37-56.36,0.37s3.75-78.76,29.75-78.88c29.68-0.13,95.66,8.51,98.54-0.21
				c3.24-9.83-11.89-82.23-11.89-82.23c11.06-8.53,20.84-5.28,20.84-5.28S797.95,1198.11,767.66,1212.73z"/>
			<path class="st0" d="M767.66,1212.73c-19.81,9.56-38.5,16.63-55.7,21.83c-16.33,4.94-31.31,8.18-44.63,10.27
				c-14.66-22.58-27.28-46.3-7.4-35.41C695.01,1228.62,767.66,1212.73,767.66,1212.73z"/>
			<path class="st4" d="M584.96,1791.79c0,0-2.27,26.31,3.29,29.05l71.17-0.15c0,0,0-8.21-11.43-10.04
				c-11.43-1.83-31.51-8.52-34.91-23.42C609.68,1772.32,584.96,1791.79,584.96,1791.79z"/>
			<path class="st4" d="M637.21,1473.38c-0.35,17.2-1.18,34.95-2.8,50.9c-7.69,75.67-10.39,167.1-11.49,184.73
				c-1.91,30.6-7.96,79.49-7.96,79.49s-11.99,11.38-35.36,5.95c0,0-19.36-70.41-23.69-144.55c-0.07-1.22-0.13-2.44-0.2-3.66
				c-0.5-9.8-1.03-21.01-1.56-33.09c-3.56-80.95-7.43-201.2-7.43-201.2l89.31-20.97C636.03,1390.97,638.09,1430.49,637.21,1473.38z"
				/>
			<path class="st4" d="M637.21,1473.38c-22.63,39.05-65.78,110.99-83.06,139.76c-3.56-80.95-7.43-201.2-7.43-201.2l89.31-20.97
				C636.03,1390.97,638.09,1430.49,637.21,1473.38z"/>
			<path class="st3" d="M411.08,1397.73c0,0-14.53,17.09-15.84,21.83c-1.31,4.74-3.64,21.81-2.39,26.94
				c1.25,5.13,10.91-14.3,14.42-16.38c3.51-2.08-2.64,7.73-1.44,9.37c1.2,1.64,8.14-5.72,10.85-8.21
				c2.71-2.49,2.44-15.89,5.69-23.82C425.62,1399.53,411.08,1397.73,411.08,1397.73z"/>
			<path class="st4" d="M407.67,1761.89c0,0-12.67,11.56-10.2,19.77c2.47,8.21,13.9,13.69,15.45,23.73
				c1.54,10.04,7.72,15.51,13.29,15.51c5.56,0,26.51,0,26.51,0s4.09-7.06-5.79-9.19c-9.89-2.13-13.61-13.93-13-24.88
				c0.62-10.95-0.93-25.55-0.93-25.55l-21.01-4.87L407.67,1761.89z"/>
			<path class="st4" d="M621.96,1413.77c0,0-83.6,178.88-128.09,257.37c-44.49,78.49-58.39,100.39-58.39,100.39
				s-25.49-10.04-27.81-16.88c0,0,17.01-151.52,46.81-188.46c16.84-20.87,36.61-83.51,37.54-105.41
				c0.93-21.9,20.46-74.18,20.46-74.18L621.96,1413.77z"/>
			<path class="st0" d="M646.4,1422.21c0,0-33.25,22.23-80.3,20.16c-20.65-0.9-61.61-6.76-68.22-23.18
				c-1.55-3.86-0.41-8.75,1.91-16.26c6.04-19.52,20.13-56.69,15.88-139.12c-0.4-7.67-0.18-14.88,0.55-21.63
				c4.43-40.6,27.7-64.64,50.19-72.5c54.84-19.17,73.13,7.39,73.13,7.39s24.24,19.21,27.9,59.29
				C674.73,1316.54,646.4,1422.21,646.4,1422.21z"/>
			<path class="st3" d="M583.57,1180.79c0,0,28.55,7.25,53.37-4.89c0,0,4.76-2.89,0.36-8.17c0.09-5.38,0.03-4.88-0.16-8.79
				c-0.27-9.06-1.06-14.1-1.06-14.1l-19.58-11.02l-21-9.89c1.12,4.56,1.64,9.61,2.03,13.57
				C600.55,1168.52,583.57,1180.79,583.57,1180.79z"/>
			<path class="st8" d="M599.8,1137.42c0,0,14.67,19.07,37.34,21.52c-0.27-9.06-1.47-18.26-1.47-18.26l-19.17-6.86L599.8,1137.42z"
				/>
			<path class="st3" d="M652.47,1138.99c0,0-44.16,19.82-56.04-7.41c-11.88-27.23-25.58-43.01,2.12-56.82
				c27.69-13.81,37.74-5.79,43.96,2.33C648.71,1085.21,663.65,1133.14,652.47,1138.99z"/>
			<path class="st4" d="M564.78,1080.1c-0.55-0.37-1.62-0.5-3.8-0.05c0,0,1.43-1.53,3.72-2.2c-0.35-3.11-0.16-8.83,4.65-11.48
				c0,0-2.37,2.21-1.89,5.49c4.34-7.71,15.93-15.56,52.05-22.18c47.61-8.71,40.18,25.23,35.09,30.39
				c-5.09,5.16-22.88-0.55-33.89,3.33c-11.01,3.88-8.83,20.7-12.05,23.95c-3.22,3.24-2.77-1.1-8.55-2.06
				c-5.78-0.96-4,7.72-1.03,12.89c2.97,5.17-2.17,14.39-2.17,14.39s0,0-9.22-5.82c-9.22-5.81-24.67-36.72-23.26-44.56
				C564.53,1081.51,564.65,1080.81,564.78,1080.1z"/>
			<g>
				<polygon class="st9" points="712.82,1079.73 638.41,1103.28 634.46,1092.21 707.07,1063.64 				"/>
				<polygon class="st9" points="769.72,1064.33 688.84,1090.42 681.65,1070.3 760.73,1039.18 				"/>
				<polygon class="st10" points="824.99,1049.13 756.51,1070.23 746.81,1043.06 813.13,1015.93 				"/>
				<path class="st10" d="M827.39,1053.48L827.39,1053.48c2.08-0.74,3.17-3.04,2.43-5.12l-12.46-34.9
					c-0.74-2.08-3.04-3.17-5.12-2.43l0,0c-2.08,0.74-3.17,3.04-2.43,5.12l12.46,34.9C823.01,1053.14,825.31,1054.23,827.39,1053.48z
					"/>
				<path class="st9" d="M638.91,1105.75L638.91,1105.75c-1.85,0.66-3.89-0.3-4.55-2.16l-3.23-9.06c-0.66-1.85,0.3-3.89,2.16-4.55
					l0,0c1.85-0.66,3.89,0.3,4.55,2.16l3.23,9.06C641.73,1103.05,640.76,1105.09,638.91,1105.75z"/>
			</g>
			<path class="st0" d="M499.79,1402.93c6.04-19.52,20.13-56.69,15.88-139.12c-0.4-7.67-0.18-14.88,0.55-21.63l0.01,0
				c18.05-1.55,45.64,17.96,45.64,17.96S544.87,1363.73,499.79,1402.93z"/>
			<path class="st0" d="M582.48,1165.08c0,0-46.28,7.96-70.42,37.42c-24.14,29.47-62.97,71.02-72.15,85.57
				c-9.18,14.55-34.66,113.57-34.66,113.57s1.68,3.18,8.71,5.04c6.73,1.77,11.61-0.98,11.61-0.98s33.76-57.79,46.47-86.65
				c5.28-11.99,96.59-59.49,130.92-54.57C616.44,1266.41,582.48,1165.08,582.48,1165.08z"/>
			<path class="st3" d="M711.63,1058.5c0,0,10.01,1.16,15.28-2.11c5.13-3.18,3.83-5.41,3.83-5.41S712.09,1052.86,711.63,1058.5z"/>
			<path class="st11" d="M627.38,1197.36c0,0-20.31,128.23-164.41,165.56l-15.7,30.97l27.58,4.67c0,0,164.06-47.53,161.85-203.47
				L627.38,1197.36z"/>
			<polygon class="st12" points="624.24,1176.9 617.58,1177.55 617.58,1187.18 627.38,1197.36 636.7,1195.09 636.7,1181.73 
				630,1176.9 			"/>
			<path class="st13" d="M597.46,1152.2c0,0-7.39,2.59-20.48,12.88c0,0,14.64,31.07,45.52,34.79c0,0-0.5-14.42,1.73-22.98
				C624.24,1176.9,599.08,1168.93,597.46,1152.2z"/>
			<path class="st13" d="M624.24,1176.9c0,0,15.07,8,16.19,20.47c0,0,5.59-9.08,4.09-15.45c-2.13-9.07-7.21-14.18-7.21-14.18
				S638.19,1175.96,624.24,1176.9z"/>
		</g>
		<g>
			<path class="st7" d="M1433.69,1269.63c-73.9,39.29-87.44,150.24-41.97,226.66c12.58-59.64,42.16-91.88,42.16-91.88
				c-18.69,128.64,41.9,205.89,41.9,205.89c116.1-114.64,67.82-251.38,67.82-251.38c35.79,53.54,28.13,103.51,28.13,103.51
				c82.15-109.31-12.72-190.55-12.72-190.55C1475.78,1253.3,1433.69,1269.63,1433.69,1269.63z"/>
			<path class="st13" d="M1458.95,1261.06c-38.69,29.66-21.19,78.99-21.19,78.99c14.51-34.82,24.58-44.02,24.58-44.02
				c-16.45,63.85,23.03,122.7,23.03,122.7c66.92-63.69,35.94-125.92,35.94-125.92c26.84,12.33,26.2,47.8,26.2,47.8
				c18.39-44.26-12.08-77.63-12.08-77.63C1500.6,1258.65,1458.95,1261.06,1458.95,1261.06z"/>
			<g>
				<path class="st4" d="M1491.82,1036.55h-140.62c-51.06,0-94.86,36.42-104.17,86.62l-33.12,178.51c-0.98,5.3,4.88,9.19,9.38,6.22
					l268.54-177.12V1036.55z"/>
				<path class="st4" d="M1400.32,1139.16c-12.16-56.56-83.03-91.88-83.03-91.88c37.85,121.94-40.42,192.5-97.94,225.03l-5.45,29.36
					c-0.98,5.3,4.88,9.19,9.38,6.22l184.27-121.54C1406.1,1168.35,1403.14,1152.27,1400.32,1139.16z"/>
				<path class="st4" d="M1491.82,1036.55h140.62c51.06,0,94.86,36.42,104.17,86.62l33.12,178.51c0.98,5.3-4.88,9.19-9.38,6.22
					l-268.54-177.12V1036.55z"/>
				<path class="st4" d="M1760.35,1307.9c4.5,2.97,10.36-0.92,9.38-6.22l-33.12-178.51c-2.7-14.54-8.29-27.92-16.12-39.6
					c26.11,131.1,7.37,186.01-50.74,148.4s-72.62-75.08-66.82-118.34c-24.29,17.53-40.68,36.91-50.65,57.04L1760.35,1307.9z"/>
				<path class="st0" d="M1434.93,1259.16h113.78c63.25-63.25,165.6-265.07,165.6-485.42c0-262.32-222.5-384.05-222.5-384.05
					s-222.5,121.72-222.5,384.05C1269.32,994.09,1368.36,1192.6,1434.93,1259.16z"/>
				<circle class="st10" cx="1493.64" cy="704.86" r="127.51"/>
				<circle class="st4" cx="1485.58" cy="700.02" r="127.51"/>
				<circle class="st7" cx="1485.58" cy="592.76" r="9.19"/>
				
					<ellipse transform="matrix(0.3848 -0.923 0.923 0.3848 168.7744 1867.7714)" class="st7" cx="1485.58" cy="807.27" rx="9.19" ry="9.19"/>
				<circle class="st7" cx="1378.33" cy="700.02" r="9.19"/>
				
					<ellipse transform="matrix(0.3805 -0.9248 0.9248 0.3805 339.3351 1906.6198)" class="st7" cx="1592.84" cy="700.02" rx="9.19" ry="9.19"/>
				<path class="st7" d="M1416.24,617.68c3.59,3.59,3.59,9.41,0,13c-3.59,3.59-9.41,3.59-13,0c-3.59-3.59-3.59-9.41,0-13
					C1406.83,614.09,1412.65,614.09,1416.24,617.68z"/>
				<path class="st7" d="M1567.92,769.36c-3.59-3.59-9.41-3.59-13,0c-3.59,3.59-3.59,9.41,0,13c3.59,3.59,9.41,3.59,13,0
					C1571.51,778.77,1571.51,772.95,1567.92,769.36z"/>
				<path class="st7" d="M1403.24,769.36c3.59-3.59,9.41-3.59,13,0c3.59,3.59,3.59,9.41,0,13c-3.59,3.59-9.41,3.59-13,0
					C1399.65,778.77,1399.65,772.95,1403.24,769.36z"/>
				<path class="st7" d="M1554.92,617.68c-3.59,3.59-3.59,9.41,0,13c3.59,3.59,9.41,3.59,13,0c3.59-3.59,3.59-9.41,0-13
					C1564.33,614.09,1558.51,614.09,1554.92,617.68z"/>
				
					<ellipse transform="matrix(0.7071 -0.7071 0.7071 0.7071 -60.4672 1259.2152)" class="st0" cx="1489.77" cy="702.6" rx="85.26" ry="85.26"/>
				<path class="st14" d="M1404.51,702.6c0-47.09,38.17-85.26,85.26-85.26c15.44,0,29.93,4.11,42.42,11.29
					c-13.4-8.77-29.41-13.87-46.62-13.87c-47.09,0-85.26,38.17-85.26,85.26c0,31.64,17.24,59.26,42.84,73.97
					C1419.89,758.77,1404.51,732.48,1404.51,702.6z"/>
				<path class="st15" d="M1419.19,726.6c0-51.35,41.63-92.98,92.98-92.98c1.01,0,2.01,0.02,3.01,0.05
					c-8.54-3.46-17.87-5.37-27.66-5.37c-40.68,0-73.65,32.98-73.65,73.65c0,9.78,1.91,19.12,5.37,27.66
					C1419.21,728.61,1419.19,727.61,1419.19,726.6z"/>
				<path class="st9" d="M1559.01,1271.88h-134.38c-7.03,0-12.72-5.7-12.72-12.72l0,0c0-7.03,5.7-12.72,12.72-12.72h134.38
					c7.03,0,12.72,5.69,12.72,12.72l0,0C1571.73,1266.19,1566.03,1271.88,1559.01,1271.88z"/>
				<path class="st10" d="M1559.01,1246.44h-2.17c2.04,2.26,3.28,5.25,3.28,8.53c0,7.03-5.7,12.72-12.72,12.72h-132.2
					c2.33,2.57,5.69,4.19,9.44,4.19h134.38c7.03,0,12.72-5.7,12.72-12.72l0,0C1571.73,1252.14,1566.03,1246.44,1559.01,1246.44z"/>
			</g>
		</g>
	</g>
	<path class="st16" d="M113.83,1824.64v1.79c0,2.86,1.35,5.22,2.99,5.22h2637.27c1.64,0,3-2.36,3-5.22v-1.79
		c0-2.86-1.35-5.22-3-5.22H116.82C115.18,1819.42,113.83,1821.78,113.83,1824.64z"/>
</g>
</svg>
