<?xml version="1.0" encoding="UTF-8"?>
<svg enable-background="new 0 0 326.16 133.201" viewBox="0 0 326.16 133.201" xmlns="http://www.w3.org/2000/svg">
 <path d="m161.28,19.44c2.702-.542 1.57,2.75 3.6,2.88-.772,4.268-2.783,7.298-4.32,10.8-2.037-3.976 2.195-7.87.72-13.68z" fill="#6e5300" fill-rule="evenodd"/>
 <path d="m289.439,32.4c.739,2.419-2.239,1.121-3.6,1.44 .613-1.068 1.812-1.548 3.6-1.44z" fill="#6e5300" fill-rule="evenodd"/>
 <path d="m289.439,35.28c.837-.117 1.281.159 1.44.72-7.141,12.779-12.848,26.993-18.72,41.04 .394,1.047-.842,3.722.72,3.601 .542,2.702-2.75,1.569-2.88,3.6 3.249,2.688 6.23-4.084 8.64-2.16 2.012,3.726-4.943,3.978-5.76,7.2 4.521-1.239 9.43-2.09 8.64-8.64 5.863,2.297 9.156,7.164 12.96,11.52 2.556-.805 3.62-3.1 7.92-2.16-1.751,1.849-3.653,3.547-6.479,4.32 4.734,9.115-2.187,16.868-8.64,20.88-2.346,1.458-6.68,2.66-11.521,4.32-6.839,2.345-13.644,5.344-23.04,5.76-12.246,6.308-35.606,3.448-50.4,5.04-.454-2.731-4.273-3.058-7.92-4.319 .083,2.558 2.383,2.896 5.04,2.88-3.392,3.587-8.461-.918-10.08-3.601 8.4-2.564 14.76-1.706 22.32-2.88 6.449-1.001 12.448-4.32 19.44-6.479 10.349-3.196 21.15-5.671 28.8-10.08 2.581-1.488 4.594-3.483 7.2-5.04 5.422-3.239 18.719-9.93 23.04-.721-2.645-.609-6.194-2.834-7.2.721 2.958.809 6.558-.137 7.2,4.319-2.036.131-1.678-2.706-3.601-.72 1.735,5.708 6.668,2.822 7.2-.72 .568-3.785-4.909-10.027-8.64-10.8-9.302-1.926-22.178,9.156-30.24,12.96-1.514.714-3.216,1.394-5.04,2.159-6.631,2.787-16.936,5.557-24.48,7.921-1.05.329-2.536.344-3.6.72-2.75.971-8.765,3.757-13.68,4.32-15.941,1.825-30.609,3.597-42.48,8.64-3.485-1.672-7.401.938-11.52.72-4.425-.233-9.462-2.647-14.4-4.319-3.394-1.149-5.9-2.228-10.08-3.601-2.792-.917-9.176-3.061-13.68-3.6-7.73-.926-16.332.551-25.2,0-18.162-1.129-33.632-5.998-54.72-5.04-11.349.516-22.896,2.95-33.12-2.16 2.601-3.885 7.077-5.396 10.8-7.92 3.495-2.37 6.527-5.551 10.08-7.92 7.889-5.261 17.188-7.058 26.64-10.08 5.289-1.691 9.57-5.679 18.72-4.32 7.965,10.73 20.024,23.651 36.72,25.92 2.248.306 4.708-.181 7.2,0 8.894.647 18.233,3.144 27.36,2.16 16.784-1.809 33.018-9.007 42.48-19.44 4.237-4.672 5.279-9.588 10.08-10.8 6.787-1.713 15.59-.456 21.6,0 5.968.453 12.368,1.956 18,3.601 10.765,3.142 19.496,6.909 28.8,0 5.568-4.135 11.409-16.556 15.841-25.2 2.991-5.835 7.387-12.259 7.199-20.88 1.674.523 5.381,1.821 5.041-1.442zm-32.399,64.08c.479-2.88 2.699-4.021 2.88-7.2-2.923.092-6.209,5.401-2.88,7.2zm-11.52,20.88h3.601v-1.439c-.723.002-.857-.583-1.44-.721 .219,1.661-2.081.801-2.161,2.16zm0,.721c-1.725-.436-3.284-1.035-5.76-.721-.849,3.074 5.691,2.891 5.76.721zm-12.96,2.88c-1.855-.699-5.724-1.548-6.479.72-.345-1.393-4.788-2.336-5.761-.72 6.729,4.944 15.928,1.271 23.04,1.439-.751-3.009-9.696-3.331-10.8-1.439zm-10.081,2.16c-4.36.521-5.906-1.774-9.359-2.16 .473,2.847 8.969,6.04 9.359,2.16zm-7.919,1.439c-2.264-.855-3.81-2.431-6.479-2.88 .337,2.334 4.605,4.472 6.479,2.88zm-6.48,1.441c-1.225-2.136-3.763-2.958-6.48-3.601 .45,2.91 3.838,2.882 6.48,3.601z" fill="#c5b8b2" fill-rule="evenodd"/>
 <path d="m113.04,82.08c2.099-1.231-1.632-2.62-.72-5.04 1.109-1.53 2.599-2.681 3.6-4.319 11.947-.769 18.863-15.282 12.24-25.2-4.011-6.007-15.79-7.086-21.6-1.44-1.291.091-1.519-.881-2.88-.72-1.513.887-2.807,1.993-4.32,2.88 1.815,2.23 2.336-2.896 5.76-1.44-.281,4.891-5.054,8.686-7.92,8.64 .047-10.513 5.478-15.642 12.24-19.44 16.201-2.869 27.451,6.67 29.52,18 3.113,17.049-10.519,31.398-28.8,30.24-3.822-3.506-3.394-10.25 2.88-10.8-1.572,2.244-2.163,6.564 0,8.639zm-7.2-39.6c.81-1.351 2.791-1.529 3.6-2.88-2.427-.689-5.199,1.925-3.6,2.88zm15.12,38.161c-.005-2.154-1.294-3.026-2.88-3.601 .45,1.711.968,3.353 2.88,3.601z" fill="#6e5300" fill-rule="evenodd"/>
 <path d="m109.44,39.601c-.81,1.351-2.791,1.529-3.6,2.88-1.599-.956 1.173-3.57 3.6-2.88z" fill-rule="evenodd"/>
 <path d="m112.32,64.081c-.758,1.855-2.834,5.202 0,6.48 1.103-1.911-.515-4.346 1.44-6.48 12.193,2.169 13.761-14.29 5.04-15.84-5.804-1.032-11.735,5.124-6.48,11.52 4.116.275 7.614-.066 8.64-2.88-.144-3.457-1.581-5.62-5.76-5.04-.966.474-1.341,1.539-1.44,2.88 1.274,2.821 3.045-3.542 4.32-.72 1.706,2.409-1.386,5-5.04,4.32-1.113-1.046-.634-3.686-.72-5.76 1.757-1.603 4.082-2.638 7.92-2.16 1.333,3.425 3.312,5.011 1.44,8.64-2.9,5.621-19.117,3.685-15.84-8.64 1.58-5.941 14.339-9.778 20.16-2.16 2.747,3.595 2.785,10.96 1.44,14.4-1.084,2.771-4.381,4.286-7.2,6.48-2.702.542-1.57-2.75-3.6-2.88-2.123,1.866 2.693,3.324.72,5.04-3.619-.221-8.511.831-10.08-1.44-.288-3.889.652-6.549 5.04-5.76z" fill="#6e5300" fill-rule="evenodd"/>
 <path d="m67.68,65.521c-5.693-8.269 7.203-21.679 15.84-18 .016,1.696-1.24,2.12-.72,4.32-8.426-1.526-12.423,7.124-15.12,13.68z" fill="#6e5300" fill-rule="evenodd"/>
 <path d="m90.72,53.28c.654,1.742 2.125-1.632 4.32-.72 2.375,4.177-2.016,5.552-3.6,7.92 .658,1.958 1.338-1.918 3.6-.72 .254.945 1.268,1.132 1.44,2.16-1.681,3.359-4.835,5.245-5.76,9.36-3.244-1.213-.05-4.893-.72-7.92-1.099,1.301-2.595,2.206-2.16,5.04-2.207-3.433.554-8.066.72-11.52-2.672,1.81-2.898,4.177-2.16,7.92-2.121-.279-1.408-3.392-2.88-4.32 3.416-5.224 5.848-11.432 12.24-13.68 1.81,3.104-2.272,5.648-5.04,6.48z" fill="#6e5300" fill-rule="evenodd"/>
 <path d="m317.52,47.521c3.806.623-3.635,6.925 3.601,5.76-10.492,9.909-17.395,23.406-25.2,36-2.841-.278-3.313-2.927-5.04-4.319 9.678-11.683 20.902-21.818 26.639-37.441z" fill="#c5b8b2" fill-rule="evenodd"/>
 <path d="m185.04,52.561c-.031,4.289-4.124,4.516-5.76,7.2 2.135,1.618 4.192-2.979 7.199-2.88-.922,6.481-7.298,7.282-11.52,8.64 3.388,1.534 8.017-.212 11.52-2.16-8.864,18.256-23.568,30.672-46.8,34.561 4.171-7.109 17.959-4.602 22.32-11.521-4.735-.068-9.06,6.223-16.56,5.76 5.598-8.082 20.633-6.727 25.2-15.84-5.48.833-10.033,8.633-18.72,8.641 4.158-8.562 19.365-6.075 21.6-16.561-5.119,4.241-9.812,8.908-18,10.08 .577-3.743 3.347-5.293 7.2-5.76 4.187-3.014 8.869-5.531 11.521-10.08-4.333,1.674-9.279,8.956-16.561,10.08-.197-4.022 4.674-4.8 7.2-6.48 4.221-2.807 8.793-5.433 11.52-10.08 4.042-.038 4.88-3.281 8.641-3.6z" fill="#6e5300" fill-rule="evenodd"/>
 <path d="m104.4,54.721c-.465,3.135-3.745,3.456-4.32,6.48 1.014,1.429 2.437-2.796 3.6-3.6 3.694,1.745 1.077,4.657-.72,6.48 2.745.345 1.467-3.333 5.04-2.16 1.315,2.02-2.076,4.311-2.16,7.2-6.66-1.935-10.551-10.77-4.32-15.84 2.265-.825 1.75,1.13 2.88,1.44z" fill="#6e5300" fill-rule="evenodd"/>
 <path d="m164.88,53.28c1.727,1.542-2.087,3.632-4.32,3.6-.085-2.724 4.21-1.069 4.32-3.6z" fill-rule="evenodd"/>
 <path d="m194.399,57.601c1.279,6.311-2.447,12.773-5.04,18-8.892,17.927-27.273,30.067-51.839,31.68-6.396.42-12.716-.423-18-.72 14.861-6.751 37.134-9.214 50.4-18.72 9.968-7.143 14.081-15.672 20.88-29.521 .178-.782 1.432-.488 1.44-1.44 1.162-.202 1.239.681 2.159.721z" fill="#6e5300" fill-rule="evenodd"/>
 <path d="m97.2,71.28c2.977-4.326 7.612-.178 10.8,1.44-2.989,2.886-.113,9.3-.72,11.52-6.953-.163-11.84-4.884-10.08-11.52-2.839-.439-.847,3.953-1.44,5.76-6.583-1.586-2.732-13.856.72-14.4 3.153-.496 4.841,5.524.72,7.2zm5.04,5.76c-.52-2.2.736-2.623.72-4.319-1.046.394-3.722-.842-3.6.72 1.944.215 1.291,3.029 2.88,3.599z" fill="#6e5300" fill-rule="evenodd"/>
 <path d="m84.96 72.721c-4.405 2.555-7.068 6.852-7.92 12.96-1.295-5.385 1.654-12.739 7.92-12.96z" fill-rule="evenodd"/>
 <path d="m99.36,73.44c-.122-1.562 2.554-.326 3.6-.72 .016,1.696-1.24,2.119-.72,4.319-1.589-.569-.936-3.383-2.88-3.599z" fill-rule="evenodd"/>
 <path d="m118.08,77.04c1.586.574 2.875,1.446 2.88,3.601-1.912-.248-2.43-1.89-2.88-3.601z" fill-rule="evenodd"/>
 <path d="m278.64,78.48c.533,2.453-2.653,1.187-2.88,2.88-.886-.314-1.479-.921-1.44-2.16 .851-.829 2.545-.814 4.32-.72z" fill="#c5b8b2" fill-rule="evenodd"/>
 <path d="m93.6,81.36c-5.864.605-5.647,9.531-5.76,13.68-3.035-2.02-1.169-9.814 0-12.239 2.29-.111 3.167-1.633 5.76-1.441z" fill-rule="evenodd"/>
 <path d="m102.96,86.4c3.374,1.44-2.713,2.703-2.88,5.04-.284,3.404.231,6.009.72,8.64-2.924-.915-2.195-5.484-2.88-8.64 1.55-1.809 3.923-2.796 5.04-5.04z" fill-rule="evenodd"/>
 <path d="m113.76,88.561c2.094.626.81,1.078.72,2.88-1.669-.202-1.655-1.923-.72-2.88z" fill-rule="evenodd"/>
 <path d="m117.36,91.44c2.311-.631 1.493,1.867 2.88,2.16-1.075,2.164-3.227-.53-2.88-2.16z" fill-rule="evenodd"/>
 <path d="m259.92,92.16c-.181,3.18-2.4,4.32-2.88,7.2-3.329-1.799-.043-7.108 2.88-7.2z" fill-rule="evenodd"/>
 <path d="m105.12,94.32c2.962.398 3.319,3.401 5.04,5.04-3.054-.305-4.262-2.459-5.04-5.04z" fill-rule="evenodd"/>
 <path d="m247.68,118.08c.583.138.718.723 1.44.721v1.439h-3.601c.081-1.359 2.381-.499 2.161-2.16z" fill-rule="evenodd"/>
 <path d="m239.76,120.24c2.476-.314 4.035.285 5.76.721-.069,2.17-6.609,2.353-5.76-.721z" fill-rule="evenodd"/>
 <path d="m243.359,125.28c-7.112-.168-16.312,3.505-23.04-1.439 .973-1.616 5.416-.673 5.761.72 .756-2.268 4.624-1.419 6.479-.72 1.105-1.892 10.05-1.57 10.8,1.439z" fill-rule="evenodd"/>
 <path d="m213.12,123.841c3.453.386 4.999,2.681 9.359,2.16-.39,3.88-8.886.687-9.359-2.16z" fill-rule="evenodd"/>
 <path d="m208.08,124.561c2.67.449 4.216,2.024 6.479,2.88-1.873,1.591-6.141-.547-6.479-2.88z" fill-rule="evenodd"/>
 <path d="m201.6,125.28c2.718.643 5.256,1.465 6.48,3.601-2.642-.719-6.03-.691-6.48-3.601z" fill-rule="evenodd"/>
 <path d="m183.6 126h4.32c-0.104 2.263 1.847 2.473 3.6 2.88-1.118 2.484-8.822 1.223-7.92-2.88z" fill="#c5b8b2" fill-rule="evenodd"/>
 <path d="m182.88,126.721c.385,1.037-2.806,1.757-.72,2.16-.474,2.156-1.539-.688-2.88,0 .497-1.423 1.92-1.92 3.6-2.16z" fill="#c5b8b2" fill-rule="evenodd"/>
 <path d="m157.68,43.201c6.026,3.409 12.256-7.578 15.84-11.52 3.92,5.898-7.571,11.849-12.96,13.68 5.22,2.405 11.898-5.083 15.12-9.36 2.207,2.884-2.681,6.509-5.76,8.64-3.346,2.316-8.328,3.752-10.8,5.76 7.5.055 13.047-8.07 20.161-10.8-1.19,6.49-8.102,7.259-11.521,11.52 6.506-.455 7.232-6.688 13.68-7.2-2.476,6.164-9.896,7.383-13.68,12.24 5.172.542 10.928-8.182 15.84-7.92-1.298,3.502-3.685,5.915-7.92,6.48-5.214,4.626-9.089,10.591-17.28,12.24 2.896-3.584 9.522-3.438 10.08-9.36-3.582,1.938-4.653,6.386-10.08,6.48-.203-1.883.263-3.097 2.16-2.88-.163-1.037-2.149-.251-2.16-1.44-.032-9.685-3.782-19.844-10.8-26.64-6.795-6.581-18.311-12.456-26.64-13.68-8.746-1.286-24.644,6.454-30.24,12.24-3.58,3.702-4.87,9.365-7.2,13.68-9.801-2.829-12.249,5.944-18,10.8 1.853-36.336 34.244-61.95 74.88-50.4 1.386,2.454 3.906,3.773 5.76,5.76 1.903,5.663-.568,13.946 0,18 4.429-4.298 4.008-15.526.72-20.16 9.809,2.56 10.436,14.34 6.48,23.76 3.304-2.643 6.26-11.862 2.88-16.56 7.028.812 2.03,16.062-.72,20.16-.308,2.021 2.685-1.805 2.88.72 4.084-3.115 5.463-8.937 9.36-12.24 1.74,7.345-6.171,11.045-9.36,15.84 5.497-.27 8.39-9.365 12.959-12.96-1.087,8.512-6.035,13.164-13.679,15.12zm2.88,13.679c2.233.032 6.047-2.058 4.32-3.6-.11,2.531-4.405.876-4.32,3.6z" fill="#6e5300" fill-rule="evenodd"/>
 <path d="m188.64,56.161c2.954-.771 6.634-1.198 8.641.72 2.889,8.73-4.332,13.369-5.761,20.16 11.926-1.628 19.441-1.055 32.4.721 14.832,2.031 26.881,12.104 38.16,1.439 3.486-3.296 6.936-10.471 10.08-15.84 3.483-5.949 5.594-12.413 8.64-17.28 1.213-6.933.732-14.883 6.48-15.84 3.562-.593 6.695,2.721 6.479,5.04-.409,4.405-4.44,6.912-7.2,12.24-2.308,4.456-3.128,9.985-5.04,14.4-2.524,5.831-5.762,9.854-5.76,12.96 4.105,2.854 10.155,3.765 12.96,7.92 11.902-9.938 20.521-23.16 28.08-37.44 4.917-2.209 8.342,1.827 9.36,5.76-1.68,4.617-8.214,7.371-11.521,11.52-1.358,1.705-2.317,4.564-3.6,6.48-3.735,5.581-7.8,11.894-12.24,18 .256,2.864 6.146.095 6.48,2.88 .374,4.455-3.9,4.26-6.48,5.761 2.688,6.777-1.545,13.064-5.76,17.279-1.408,1.408-4.965,5.653-7.92,7.2-1.071.561-3.161.669-5.04,1.44-6.695,2.747-14.232,5.063-23.04,7.2-21.581,5.233-50.585,4.286-72.721,3.6-7.483-.232-15.102-1.433-21.6-.72-3.074.337-5.43,1.48-7.92,1.439-11.037-.179-22.882-8.892-35.28-10.8-9.15-1.408-19.647-.321-30.24-.72-18.142-.683-36.215-6.902-51.12-5.76-13.611,1.042-27.131,4.876-38.16-2.881-.046-6.498 6.742-7.474 10.8-10.079 4.218-2.709 7.813-6.831 12.24-9.36 8.56-4.892 17.72-7.455 28.8-11.521 3.693-1.354 8.926-3.282 15.12-3.6-4.908-11.896-3.844-29.358-.717-42.479 5.82-8.711 9.575-17.538 18-23.76 3.18-2.349 7.789-3.879 11.52-5.76 4.726-2.383 9.721-4.107 14.4-6.48 10.691.093 19.438-.519 28.08,2.16 .785.243 1.782,1.758 2.88,2.16 9.983,3.652 18.012,9.497 25.2,15.84 9.735,8.592 17.929,21.023 22.32,36.001zm-17.281-28.08c-4.569,3.595-7.463,12.69-12.959,12.96 3.188-4.794 11.1-8.495 9.36-15.84-3.896,3.303-5.275,9.125-9.36,12.24-.196-2.524-3.188,1.301-2.88-.72 2.75-4.098 7.749-19.348.72-20.16 3.38,4.698.424,13.917-2.88,16.56 3.956-9.42 3.329-21.201-6.48-23.76 3.288,4.634 3.709,15.862-.72,20.16-.568-4.054 1.903-12.337 0-18-1.854-1.986-4.374-3.306-5.76-5.76-40.636-11.55-73.027,14.064-74.88,50.4 5.751-4.856 8.199-13.629 18-10.8 2.33-4.314 3.62-9.978 7.2-13.68 5.597-5.787 21.494-13.526 30.24-12.24 8.329,1.225 19.845,7.1 26.64,13.68 7.018,6.796 10.769,16.955 10.8,26.64 .011,1.188 1.997.403 2.16,1.44-1.897-.217-2.363.997-2.16,2.88 5.426-.094 6.498-4.542 10.08-6.48-.558,5.922-7.184,5.775-10.08,9.36 8.191-1.648 12.066-7.614 17.28-12.24 4.235-.565 6.622-2.978 7.92-6.48-4.912-.262-10.668,8.461-15.84,7.92 3.783-4.857 11.204-6.076 13.68-12.24-6.447.512-7.174,6.746-13.68,7.2 3.419-4.261 10.33-5.03 11.521-11.52-7.113,2.73-12.661,10.854-20.161,10.8 2.472-2.008 7.455-3.443 10.8-5.76 3.079-2.131 7.967-5.756 5.76-8.64-3.222,4.277-9.9,11.765-15.12,9.36 5.389-1.831 16.88-7.781 12.96-13.68-3.584,3.942-9.813,14.929-15.84,11.52 7.644-1.956 12.592-6.608 13.679-15.12zm-10.799,5.04c1.538-3.502 3.548-6.533 4.32-10.8-2.03-.129-.898-3.422-3.6-2.88 1.475,5.809-2.757,9.703-.72,13.68zm-65.52,54.72c-.067,3.772-1.198,6.481-.72,10.8 .784,1.616 3.465,1.335 2.88,4.32 19.746,5.85 36.693-3.417 47.52-13.681 8.279-7.848 13.52-17.363 11.52-33.12-3.451-27.188-36.443-42.523-59.04-26.64-7.554,5.31-12.916,16.049-12.24,27.36 1.066-6.854 6.04-9.8 12.24-11.52 5.382-13.492 24.627-15.961 35.28-6.48 3.764,3.351 9.844,15.001 10.08,20.16 .505,11.052-10.612,24.201-22.32,26.64-13.005,2.71-22.548-1.018-30.24-8.641-1.077-.014-2.945,2.676-3.6.721 .917-1.003 3.527-.313 3.6-2.16-4.331-3.59-5.869-9.971-8.64-15.12-2.697-.729-4.63,2.985-5.76,1.44 2.06-3.221 8.186-2.375 6.48-9.36-9.263,1.332-15.974,11.964-13.68,20.16 1.376-2.481 3.602-7.895 5.76-7.2-2.531,2.927-8.274,11.52-2.16,14.4 1.049-5.678 3.747-13.524 10.08-11.521-21.306,9.228 1.075,27.882 12.24,31.68-3.435-4.792-.888-15.613 4.32-13.68-1.371.31-1.809,1.552-3.6,1.442zm-12.24-36.001c-.52-2.2.736-2.624.72-4.32-8.637-3.679-21.533,9.731-15.84,18 2.697-6.555 6.694-15.205 15.12-13.68zm203.04-18c1.36-.319 4.339.979 3.6-1.44-1.789-.108-2.988.372-3.6,1.44zm-1.441,2.881c.188,8.621-4.208,15.045-7.199,20.88-4.432,8.645-10.272,21.065-15.841,25.2-9.304,6.909-18.035,3.142-28.8,0-5.632-1.645-12.032-3.147-18-3.601-6.01-.456-14.812-1.713-21.6,0-4.801,1.212-5.843,6.128-10.08,10.8-9.462,10.434-25.696,17.632-42.48,19.44-9.127.983-18.466-1.513-27.36-2.16-2.492-.181-4.953.306-7.2,0-16.696-2.269-28.755-15.189-36.72-25.92-9.15-1.358-13.431,2.629-18.72,4.32-9.452,3.022-18.751,4.819-26.64,10.08-3.553,2.369-6.585,5.55-10.08,7.92-3.723,2.524-8.199,4.035-10.8,7.92 10.224,5.11 21.771,2.676 33.12,2.16 21.087-.958 36.558,3.911 54.72,5.04 8.869.551 17.47-.926 25.2,0 4.503.539 10.887,2.683 13.68,3.6 4.18,1.373 6.687,2.451 10.08,3.601 4.938,1.672 9.975,4.086 14.4,4.319 4.119.218 8.035-2.392 11.52-.72 11.871-5.043 26.539-6.814 42.48-8.64 4.915-.563 10.93-3.35 13.68-4.32 1.063-.376 2.55-.391 3.6-.72 7.545-2.364 17.85-5.134 24.48-7.921 1.824-.766 3.526-1.445 5.04-2.159 8.062-3.804 20.938-14.886 30.24-12.96 3.73.772 9.208,7.015 8.64,10.8-.532,3.542-5.465,6.428-7.2.72 1.923-1.986 1.564.851 3.601.72-.643-4.456-4.242-3.511-7.2-4.319 1.006-3.555 4.556-1.33 7.2-.721-4.321-9.209-17.618-2.519-23.04.721-2.606,1.557-4.619,3.552-7.2,5.04-7.649,4.409-18.451,6.884-28.8,10.08-6.992,2.159-12.991,5.479-19.44,6.479-7.561,1.174-13.92.315-22.32,2.88 1.619,2.683 6.688,7.188 10.08,3.601-2.657.017-4.957-.322-5.04-2.88 3.646,1.262 7.466,1.588 7.92,4.319 14.794-1.592 38.154,1.268 50.4-5.04 9.396-.416 16.201-3.415 23.04-5.76 4.841-1.66 9.175-2.862 11.521-4.32 6.453-4.012 13.374-11.765 8.64-20.88 2.826-.773 4.729-2.472 6.479-4.32-4.3-.939-5.364,1.355-7.92,2.16-3.804-4.355-7.097-9.223-12.96-11.52 .79,6.55-4.119,7.4-8.64,8.64 .816-3.223 7.771-3.475 5.76-7.2-2.409-1.924-5.391,4.849-8.64,2.16 .13-2.03 3.422-.897 2.88-3.6-1.562.121-.326-2.554-.72-3.601 5.872-14.047 11.579-28.26 18.72-41.04-.159-.561-.604-.837-1.44-.72 .339,3.264-3.368,1.966-5.041,1.442zm-182.879,16.559c-6.231,5.07-2.34,13.905 4.32,15.84 .084-2.89 3.475-5.181 2.16-7.2-3.573-1.173-2.295,2.505-5.04,2.16 1.797-1.823 4.414-4.735.72-6.48-1.164.804-2.586,5.029-3.6,3.6 .576-3.024 3.855-3.345 4.32-6.48-1.13-.309-.615-2.264-2.88-1.44zm5.76,16.56c1.569,2.271 6.461,1.219 10.08,1.44 1.973-1.716-2.843-3.174-.72-5.04 2.03.129.898,3.422 3.6,2.88 2.819-2.194 6.116-3.709 7.2-6.48 1.345-3.439 1.307-10.805-1.44-14.4-5.821-7.618-18.581-3.782-20.16,2.16-3.277,12.325 12.94,14.261 15.84,8.64 1.873-3.629-.107-5.215-1.44-8.64-3.838-.478-6.163.557-7.92,2.16 .086,2.074-.393,4.713.72,5.76 3.654.68 6.745-1.911 5.04-4.32-1.274-2.821-3.045,3.541-4.32.72 .099-1.341.474-2.407 1.44-2.88 4.18-.58 5.617,1.583 5.76,5.04-1.026,2.814-4.524,3.156-8.64,2.88-5.255-6.396.676-12.552 6.48-11.52 8.721,1.55 7.153,18.009-5.04,15.84-1.955,2.134-.337,4.569-1.44,6.48-2.834-1.278-.758-4.625 0-6.48-4.388-.788-5.328,1.872-5.04,5.76zm5.76,3.6c-6.274.55-6.703,7.294-2.88,10.8 18.282,1.158 31.914-13.19 28.8-30.24-2.069-11.33-13.319-20.869-29.52-18-6.762,3.798-12.193,8.927-12.24,19.44 2.866.046 7.639-3.75 7.92-8.64-3.423-1.455-3.945,3.67-5.76,1.44 1.513-.888 2.807-1.993 4.32-2.88 1.361-.161 1.589.812 2.88.72 5.811-5.646 17.589-4.567 21.6,1.44 6.624,9.918-.292,24.432-12.24,25.2-1.001,1.639-2.491,2.789-3.6,4.319-.912,2.42 2.819,3.809.72,5.04-2.163-2.074-1.572-6.394 0-8.639zm-17.28-26.64c-6.392,2.248-8.824,8.456-12.24,13.68 1.472.928.759,4.041 2.88,4.32-.738-3.743-.512-6.11 2.16-7.92-.166,3.454-2.926,8.087-.72,11.52-.435-2.834 1.061-3.739 2.16-5.04 .67,3.027-2.524,6.707.72,7.92 .925-4.115 4.079-6 5.76-9.36-.172-1.027-1.186-1.214-1.44-2.16-2.262-1.198-2.942,2.678-3.6.72 1.584-2.368 5.975-3.743 3.6-7.92-2.195-.912-3.666,2.462-4.32.72 2.768-.832 6.85-3.376 5.04-6.48zm195.12,38.161c1.727,1.393 2.199,4.041 5.04,4.319 7.806-12.594 14.708-26.091 25.2-36-7.235,1.165.205-5.137-3.601-5.76-5.736,15.624-16.96,25.759-26.639,37.441zm-114.481-28.8c-2.727,4.647-7.299,7.273-11.52,10.08-2.526,1.68-7.397,2.458-7.2,6.48 7.281-1.124 12.228-8.406 16.561-10.08-2.651,4.549-7.334,7.066-11.521,10.08-3.853.467-6.623,2.017-7.2,5.76 8.188-1.172 12.881-5.839 18-10.08-2.234,10.485-17.442,7.998-21.6,16.561 8.687-.008 13.239-7.808 18.72-8.641-4.566,9.113-19.602,7.758-25.2,15.84 7.5.463 11.825-5.828 16.56-5.76-4.361,6.919-18.149,4.411-22.32,11.521 23.232-3.889 37.936-16.305 46.8-34.561-3.503,1.948-8.132,3.694-11.52,2.16 4.222-1.358 10.598-2.159 11.52-8.64-3.007-.099-5.064,4.498-7.199,2.88 1.636-2.685 5.729-2.911 5.76-7.2-3.761.319-4.599,3.562-8.641,3.6zm15.841.719c-.009.952-1.263.658-1.44,1.44-6.799,13.849-10.912,22.378-20.88,29.521-13.266,9.506-35.539,11.969-50.4,18.72 5.284.297 11.604,1.14 18,.72 24.566-1.612 42.948-13.753 51.839-31.68 2.593-5.227 6.319-11.689 5.04-18-.92-.04-.997-.923-2.159-.721zm-95.76,7.201c-3.452.543-7.303,12.814-.72,14.4 .593-1.807-1.399-6.199 1.44-5.76-1.76,6.636 3.127,11.356 10.08,11.52 .607-2.22-2.269-8.634.72-11.52-3.188-1.618-7.823-5.766-10.8-1.44 4.121-1.677 2.433-7.697-.72-7.2zm177.839,15.119c-.038,1.239.555,1.846 1.44,2.16 .227-1.693 3.413-.427 2.88-2.88-1.774-.094-3.468-.109-4.32.72zm-82.799,49.681c-1.753-.407-3.703-.617-3.6-2.88h-4.32c-.902,4.103 6.802,5.364 7.92,2.88zm-12.24,0c1.341-.688 2.406,2.156 2.88,0-2.086-.403 1.104-1.123.72-2.16-1.68.24-3.103.737-3.6,2.16z" fill="#140f06" fill-rule="evenodd"/>
 <path d="m84.24,79.2c2.416,1.225-3.132,6.286-2.16,10.8-1.907-3.37.602-8.5 2.16-10.8z" fill-rule="evenodd"/>
 <path d="m98.64,86.4c-5.208-1.934-7.754,8.888-4.32,13.68-11.165-3.798-33.547-22.452-12.24-31.68-6.333-2.003-9.03,5.843-10.08,11.521-6.114-2.881-.371-11.474 2.16-14.4-2.158-.694-4.383,4.719-5.76,7.2-2.294-8.196 4.417-18.828 13.68-20.16 1.706,6.985-4.42,6.139-6.48,9.36 1.13,1.545 3.063-2.168 5.76-1.44 2.771,5.149 4.31,11.53 8.64,15.12-.073,1.847-2.683,1.157-3.6,2.16 .655,1.955 2.523-.734 3.6-.721 7.691,7.623 17.235,11.351 30.24,8.641 11.708-2.439 22.825-15.588 22.32-26.64-.235-5.159-6.315-16.809-10.08-20.16-10.653-9.481-29.898-7.012-35.28,6.48-6.2,1.72-11.174,4.667-12.24,11.52-.676-11.311 4.686-22.05 12.24-27.36 22.597-15.883 55.589-.548 59.04,26.64 2,15.756-3.241,25.272-11.52,33.12-10.827,10.264-27.774,19.53-47.52,13.681 .585-2.985-2.096-2.704-2.88-4.32-.478-4.318.653-7.027.72-10.8 1.791.109 2.229-1.133 3.6-1.442zm-21.6-.719c.852-6.108 3.515-10.405 7.92-12.96-6.266.221-9.215,7.575-7.92,12.96zm5.04,4.319c-.972-4.514 4.576-9.575 2.16-10.8-1.558,2.3-4.067,7.43-2.16,10.8zm5.76-7.199c-1.169,2.425-3.035,10.22 0,12.239 .112-4.148-.104-13.074 5.76-13.68-2.593-.192-3.47,1.33-5.76,1.441zm10.08,8.639c.685,3.155-.044,7.725 2.88,8.64-.489-2.631-1.004-5.235-.72-8.64 .167-2.337 6.254-3.6 2.88-5.04-1.117,2.244-3.49,3.231-5.04,5.04zm16.56,0c.089-1.802 1.374-2.254-.72-2.88-.935.958-.949,2.679.72,2.88zm5.76,2.161c-1.387-.293-.569-2.791-2.88-2.16-.347,1.629 1.805,4.323 2.88,2.16zm-10.08,5.759c-1.721-1.639-2.078-4.642-5.04-5.04 .778,2.581 1.986,4.735 5.04,5.04z" fill="#6e5300" fill-rule="evenodd"/>
</svg>
