<?xml version="1.0" encoding="UTF-8"?>
<svg width="339.52" height="322.36" enable-background="new 0 0 339.522 322.358" viewBox="0 0 339.522 322.358" xmlns="http://www.w3.org/2000/svg">
 <path d="m210.65,294.94s6.888-18.368 6.888-30.421-8.61-34.439-8.61-34.439-4.018-24.107-5.165-32.717 0-23.533 0-23.533l-52.233-25.255-28.125,30.421s6.314,27.551 8.036,38.457c1.722,10.905-10.332,41.326-10.332,41.326l-16.071,38.457-.574,11.479 44.771-1.148 40.752-4.018 20.66-8.62z" fill="#f1e5c8" fill-rule="evenodd"/>
 <path d="m273.07,314.74c-12.102-5.953-25.235-8.739-38.569-10.145 1.621-2.271 3.366-6.605.025-5.961-2.588.499-5.211.85-7.846.974-.079-1.052-.174-2.125.115-2.904 .436-1.181 1.09-3.656-.79-3.928-2.726-.395-4.983.951-6.889,2.789-1.657,1.6-2.721,4.022-4.549,5.405-1.897,1.437-5.182,1.395-6.585-.591-1.638-2.318-2.355-5.222-3.946-7.605-.797-1.194-2.36-.242-3.094.498-1.167,1.177-2.011,2.501-2.717,3.913-1.019.188-2.027.426-3.028.699 .163-.58.368-1.155.599-1.745 .13-.331.246-.667.33-1.009 .038-.16.065-.354.082-.563 .131-.891.075-1.833-.565-2.202-.263-.231-.632-.3-1.128-.108-.47.1-.914.346-1.32.681-4.044,2.344-6.76,6.08-10.526,8.776-.67-4.513-1.613-12.692-6.422-12.979-3.352-.199-6.036,4.038-7.395,6.501-.863,1.566-1.567,3.228-2.239,4.883-.27.666-.532,1.336-.799,2.004-1.942.007-3.894-.004-5.779-.226-1.848-.217-3.655-1.173-5.322-1.941-3.225-1.487-6.535-3.342-10.161-3.504-4.098-.185-6.874,3.273-8.641,6.587-5.356.473-10.995-.281-14.527-3.95-2.121-2.202-4.917,2.563-5.267,4.262-.115.558-.211.972-.396,1.467-.065.074-.163.18-.306.315-.673.638-1.95.793-2.827.863-2.704.222-5.23-.998-7.247-2.699-1.159-.979-1.758-1.934-1.573-3.443 .223-1.822.342-3.278-.581-4.929-1.918-3.434-5.854-5.645-8.625-8.309-2.024-1.946-5.516,4.729-4.952,6.404 .694,2.062 1.505,4.181 2.076,6.336-2.554-1.62-5.084-3.317-8.03-4.131-2.633-.727-5.768,4.049-4.952,6.404 .41,1.186.935,2.216 1.697,3.062l-10.414.829c-6.771-.016-13.465.423-20.129,1.601l-.066.006-.002.006-.66.112c-2.3.426-5.533,7.885-2.498,7.644l20.195-1.606c16.681.144 33.262,1.563 49.963,1.254 16.808-.312 33.499-.716 50.3.104 34.143,1.668 68.266,3.951 102.25,7.71 2.46.28 6.4-6.31 3.78-7.6zm-157.28-10c.04-.07.05-.07 0,0z" fill="#5c8727"/>
 <g fill-rule="evenodd">
  <path d="m222.7,38.94c1.965.535 6.19,3.361 8.609,3.444 8.37,13.095-20.22,11.071-8.61-3.444zm7.47,6.888c-.961-2.483-4.357-2.531-6.313-4.018-4.93,6.784 7.07,10.61 6.31,4.018z"/>
  <path d="m110.78,52.716c-3.268.953-1.58,5.476-8.036,5.166 .104-1.252-.47-1.826-1.722-1.722-.736-4.894-1.96-9.694 2.87-12.054 .898-.439.389.182.574,0 4.929-4.868 6.396-1.851 8.036,5.166-.98-1.655-1.91,2.929-1.72,3.444zm-5.74,2.296c2.999-3.253 2.799-4.319 4.592-7.462-1.17-.169-1.125-1.553-2.296-1.722-2.29,2.041-7.25,6.522-2.29,9.184z"/>
  <path d="m223.85,41.81c1.956,1.487 5.353,1.535 6.313,4.018 .77,6.592-11.23,2.766-6.31-4.018z" fill="#f1e5c8"/>
  <path d="m107.33,45.828c1.17.169 1.125,1.553 2.296,1.722-1.793,3.143-1.593,4.208-4.592,7.462-4.96-2.662 0-7.143 2.29-9.184z" fill="#f1e5c8"/>
  <path d="m239.92,60.751c2.159-1.45 2.424.499 5.166.574 1.577,3.335 1.407,6.293-4.018,6.313-1.53-1.406-1.88-5.174-1.15-6.887z" fill="#f1e5c8"/>
  <path d="m224.43,72.231c2.875,1.741 4.466,7.05 5.739,9.758-2.088,4.595-5.963.608-8.609-1.722 .08-2.39 1.54-5.531 2.87-8.036z" fill="#f1e5c8"/>
  <path d="m260.01,87.729c5.091-.363 13.1,8.583 12.627,13.202-7.02,10.83-19.94-3.284-12.63-13.201zm2.87,14.351c7.35,1.57 8.229-3.503 4.592-8.036-2.506-.222-2.616-3.821-5.739-2.296-1.36,1.976-2.65,7.924 1.15,10.332z"/>
  <path d="m261.74 91.747c3.123-1.525 3.233 2.074 5.739 2.296 3.638 4.533 2.758 9.605-4.592 8.036-3.81-2.408-2.52-8.356-1.15-10.333z" fill="#f1e5c8"/>
  <path d="m130.29,118.72c.909,4.14 4.321,7.953 7.462,10.906-4.986,4.292-7.639-1.79-12.627-2.296 .689-.659.224-1.455 0-.574-5.4-3.669-14.398-12.08-16.072-17.793 4.787-1.702 8.533,2.075 15.498-.574 1.646,3.404 2.476,6.326 4.592,8.036-.57,1.94-.75,1.94 1.15,2.28z" fill="#f1e5c8"/>
  <path d="m169.32,121.02c-2.3,3.494-3.641,9.703-10.905,9.758 .87-1.9-3.192-3.121-5.166-4.018 .773-3.473-1.347-6.395-.574-8.036 5.653-.443 8.61,1.333 13.202,0-1.34,1.46 1.84,1 3.44,2.3z" fill="#f1e5c8"/>
  <path d="m173.92,122.74c3.745.721 6.125,2.567 11.479,2.87-3.475,3.202-6.019,7.813-11.479,7.462-.459-2.411-3.073-2.667-3.444-5.166 1.37-.93.99-3.12 3.44-5.16z" fill="#f1e5c8"/>
  <path d="m158.99 209.41c3.945 1.234 6.573 9.345 2.296 12.054-6.66-1.69-4.46-8.45-2.3-12.05z" fill="#fff"/>
  <path d="m140.05,221.47c1.095.244 1.039,1.64 2.87,1.147 1.138,6.89 2.445,7.726-1.722,13.202h-2.87c-2.91-5.02-1.75-10.39 1.72-14.35zm-1.15,11.48c3.438-.062 4.14-5.685 1.722-6.888-2.42,2.87-.82,4.65-1.72,6.89z"/>
  <path d="m140.62,226.06c2.417,1.203 1.716,6.825-1.722,6.888 .9-2.24-.7-4.02 1.72-6.89z" fill="#fff"/>
  <path d="m87.245,12.537c.651.109.319.576 0,.574 17.087-8.657 32.97-17.281 53.38-10.905 .105.488-.224.542-.574.574 3.066.293 5.698,3.148 8.036,4.018 8.312,3.093 16.495,1.13 25.255.574 12.644-.802 24.788,3.396 37.31,7.462 6.831,2.219 19.212,7.835 24.681,11.479 8.499,5.663 20.363,12.383 26.403,21.812 1.199-.243 1.521.393 2.296.574-.109.652-.576.319-.574,0 4.69,6.075 9.9,17.175 15.498,26.403-.255.834-.504-.059-1.148,0 10.805,11.821 26.558,16.906 34.439,29.273 2.194,3.444 1.809,5.939 5.165,8.036-1.27.827.723,1.4-.573,1.722 .32,1.296.895-.696 1.722.574 .827,11.053 10.469,17.912 14.35,24.107 6.454,10.305 7.758,16.536 5.739,32.143-6.492,6.371-3.879,18.162-12.054,23.533-5.461,3.589-7.183,12.173-14.349,13.775 1.448,1.731-4.801,3.02-4.019,4.019-4.673,4.556-10.754,4.06-14.923,5.166-9.334,2.476-14.386,5.407-26.403,0-8.367,6.759-21.09,7.653-27.552,2.869-11.023,3.949-20.273.935-28.698-6.313-1.053,11.836 9.774,28.691 13.201,44.196 1.229,12.396-1.206,21.744-4.018,31.569 4.556-.026 9.283.542 12.627,2.87-1.02,1.2.451,2.157-.573,2.869 3.058,1.669 7.913,1.814 8.035,5.166 4.823-.498 9.016.183 12.628,4.018 .655,4.741-1.735,8.271 1.722,6.889 1.969-.788 9.657,3.331 15.498,2.869 .493.463.34,1.572 1.147,1.723-7.624,2.558-14.736-3.402-19.516-1.148 1.304,1.838-4.626,5.579-5.739,1.722 1.276-3.365 5.267-4.933 4.018-8.035-2.416-6.001-12.517.176-15.497-.574 1.079-3.24 5.697-7.068.573-8.036 .227.043-8.011,4.037-9.758,7.462-4.199-4.377 5.824-8.057 4.019-14.35-3.904.976-11.635,4.082-13.775,9.184-2.062.609-4.173-.129-3.444.574-3.727,1.33-1.799-5.8-5.739-4.592-1.313-5.701-4.201-6.103-8.036-2.296 .404,1.911-1.229,5.728-.574,12.054-3.23-.787-5.042-2.994-7.462-4.592-2.948,2.316-3.325,1.937-5.165,4.592 .736,1.531 1.542,2.102 1.722,2.87-1.266,2.083-2.103,1.231-4.018,2.87-1.965.242-1.726-1.72-2.87-2.296-1.439,1.622-2.473,3.649-4.019,5.165-1.006-.524-1.994-1.067-1.722-2.869 1.545-.235 6.062-5.491 5.166-9.185 3.041-3.885 1.377-8.166-1.148-13.201-10.626,3.923-10.752,13.131-13.775,21.812-2.085-2.242-3.725-5.026-4.018-6.313-2.095-.51-3.057,1.014-4.018,0 .056,2.622-.575,5.932 1.722,6.313-.392,1.713-2.285,1.924-4.592,1.722-1.692-2.883-2.327-2.149-3.444-4.018-2.945.917-4.857,4.727-4.592,4.592-2.719,1.378-4.924,1.86-5.166-.574-.2-2.012 3.753-2.995 5.166-5.166 2.802-4.304-.246-8.952-2.296-12.054-2.85.564-7.583,4.511-6.888,7.462-3.373.05-1.203,6.6-4.592,8.036-.96-7.354-2.329-8.31-8.036-9.758-2.023,2.771-1.533,2.998-.574,6.313-.827-.643-1.4-.618-1.722.574-3.322-6.145-9.392-1.238-13.202-3.443-2.021,1.673-.696,3.818-2.296,5.165-3.322-2.137-1.375-4.697-1.148-6.313 .245-1.12 1.64.938 1.148-1.722 8.17-2.188 14.083,3.538 18.941-4.019 .815-.049 1.625-.095 1.722.574 .558-.016.445-.703.574-1.147 3.083.981 4.953,1.228 6.888,2.296 3.472-2.362 4.662-6.322 9.184-5.74 3.788.487 6.591,3.73 8.036,8.036 2.381-.7 6.721-1.212 8.61,0 3.7-6.301 5.451-11.012 11.479-14.924 .835.255-.058.504 0,1.148 8.219-6.668 12.417,4.273 11.48,12.627 2.161-.652 2.613.55 3.443-1.147 .834.254-.059.504 0,1.147 1.556-1.258 1.429-.636 3.444-1.147 .537-5.835 6.766-13.494 14.35-10.906 5.471-8.34 8.561-15.805 10.331-24.106 1.28-6.005-.181-14.307-1.722-20.664-1.496-6.171-7.104-11.532-9.184-17.219-.823-2.25-.746-5.584-1.723-7.462-4.775-9.187-7.765-26.902-2.869-37.309-4.999,2.319-13.029,3.635-19.516,1.147-6.509-6.153-5.714-11.618-7.462-21.811-3.119,3.003-5.238,1.327-6.313,3.444-.697,1.371 2.034,6.389-.574,8.609-1.007.857-4.059,2.492-5.74,2.87-.864.194-1.225-.325-2.87,0-7.258,1.436-13.786-4.938-17.22-1.147-1.669,1.841 2.203,5.155-.574,8.035-2.208.459-4.575,2.149-7.462,2.296 2.519,10.384 2.922,19.717 5.166,29.273-.047,3.597-.551,6.512-1.147,10.331-.435,2.78.665,6.261 0,9.184-.633,2.781-3.371,8.078-4.592,10.332-2.635,4.866-3.115,8.455-4.018,15.497-.108.84-.427,3.619-.574,4.019-.831,2.255-2.125.864-1.148,4.018-7.294,10.548-10.119,22.998-20.089,30.995 1.009-2.523-1.506-.977-2.296-2.87-.337-.811.749-1.905.574-2.296-1.545-3.459-3.602-5.425-7.462-7.462-1.964-.242-1.725,1.72-2.87,2.296 1.769,4.424 8.351,11.449 7.461,15.498-9.34-2.777-12.66-10.875-19.515-5.74 1.238,2.397 2.411,4.86 6.313,4.592-.353.512-.693,1.027 0,1.148-7.72,2.78-14.186-3.715-21.811,2.87-.834-.255.058-.504 0-1.148-2.449,1.144-4.283,3.719-6.314,2.296 1.704-9.049 15.172-.692 14.35-10.332 4.448-3.251 8.562-4.172 14.923-2.296 2.147-3.646-.703-7.328 3.444-11.479 5.441-.485 8.762,2.179 11.479,5.166 2.339-.077 2.452-2.328 1.722-2.87 3.94-6.688 6.896-11.047 8.61-18.367 .465.109.572.576 1.148.574-1.639-2.311 1.053-3.683 1.722-6.888 1.038-4.975.269-11.043 1.722-15.498 .025-.075 1.048.783 1.148.574 .137-.286-.555-1.803-.574-1.722 .741-3.152 3.499-3.989 5.166-6.888 3.881-6.75 2.702-14.984 2.87-28.125-2.478-.832-8.013-1.18-8.61.573-4.137-2.588-11.204-3.258-13.775-4.592-3.405-1.767-8.473-6.697-13.775-5.739-2.056.371-7.366.394-9.184,0-1.559-.338-1.809-1.744-3.444-2.296-1.941-.656-7.042-1.509-9.184-4.019-.336-.394-.184-1.81 0-1.722-1.575-.761-3.552.238-5.166,0-12.58-1.855-22.562-11.204-29.847-19.515-.293-.335.45-.727.574-.574-3.732-4.605-7.127-9.718-9.184-17.793-3.365.811-5.976-2.038-6.888-2.87-4.596-4.195-9.615-8.177-11.479-13.202-3.228-8.59-2.606-19.48-6.343-26.38 8.602-30.12 31.42-47.474 48.214-68.876 11.559-11.391 21.966-20.833 39.031-32.717zm57.395,2.87c-9.711-3.954-26.98-10.132-34.439-5.166 .228-.152.774.227.574.574-10.13,2.384-17.37,6.575-25.821,13.776-.059-.644.834-.894 0-1.148-9.71,6.172-18.982,15.995-26.403,22.385-4.965,6.758-16.838,16.881-20.089,23.533-.576.002-.683-.465-1.148-.574-10.407,12.953-19.921,25.149-28.125,39.033-3.567,8.237 2.598,13.745 2.87,27.551 1.913,4.167 3.189,11.183 9.758,14.923 1.992,1.135 5.212.19 7.461,1.148 .219.093-.656,1.098-.574,1.148 4.659,2.86 19.458,6.904 13.201,12.054-2.814-.634-5.33-2.676-8.609-.574 5.321,9.757 13.12,15.039 20.089,16.646-.302-.069-.665-.407 0-.574 2.966,1.665 6.618,4.797 9.757,4.019 .919-.229.744-1.887 1.722-1.723 2.834.478 3.515,4.287 6.314,4.592-2.917-6.921-6.149-9.027-12.628-11.479 1.691-4.926-.14-10.092-.574-15.497-4.581-7.899-17.877-8.183-20.664-13.776-4.233-2.875-6.848-6.967-7.461-10.905-1.347-8.646 2.883-16.373 4.018-17.793 4.264-5.339 10.367-14.605 18.941-18.941 2.271-1.148 5.047-1.942 7.462-2.87 7.667-4.606 24.406,5.48 34.439-1.148 7.414,12.892 22.255,11.602 33.291,8.61-.664-7.605-8.172-6.058-11.479-12.054-2.887-5.232 2.329-11.871 3.444-14.923 1.252-3.429.695-9.307 3.444-8.61 .621,4.923 2.073,7.583 4.592,12.627 7.424,6.778 5.141,15.124 10.906,21.237 1.105,1.172 3.864,7.083 9.184,9.184 .738.292 2.044-.783 2.87-.574 2.081.525 3.815,1.895 5.74,2.296 3.369.703 3.571.501 5.74,1.722 4.406,2.48 8.961,3.951 13.775,5.166-1.688,1.929 5.847,1.799 7.462,2.87 2.242,1.486-3.025,1.033.574,1.722 .224.043 5.579-.723 7.462-1.148 1.45-.328 2.655-1.862 4.018-1.722 6.641-4.025 12.016,3.309 19.516,5.74-.319.002-.651-.465 0-.574 1.676,1.768 5.558,1.33 6.888,3.444 4.415-1.293 7.454-.745 9.184-1.148 5.048-1.177 9.109-4.085 13.775-4.592 2.259-.245 4.4,4.025 6.313,5.166 2.223,1.326 8.022,1.82 10.906,1.722 4.108-.14 16.517-4.636 17.219-.574 1.516,8.767 3.815,11.562 11.479,14.35 .188.068-.627,1.128-.573,1.148 4.702,1.724 7.161.479 10.905,2.87-3.777,4.58-9.613,10.989-13.201,15.497 .33,4.34-.17,6.48 3.443,10.906-8.552,7.8-3.064,15.336.574,24.106-1.378,1.823-4.192,2.482-5.166,5.166 .1-.274.694,1.558.574,1.722 .04-.054-8.298,5.591-5.166,6.888 2.914-1.652 6.68-.566 9.758-2.869-.022.313-.729,1.325 0,1.147 6.145-1.494 11.191-5.56 17.22-10.331 2.273-1.801 5.568-3.707 6.888-6.314-.057.111-.898-.19-.574-.573 2.351-2.78 6.758-6.223 7.462-6.889 1.641-1.553 1.827-4.973 2.296-6.313 .767.01.734.745 1.147,0 4.19-7.549 6.602-28.851-.573-35.013 .668-.097.623-.907.573-1.722-13.812-15.742-24.365-39.635-37.309-52.806-4.223-.394-13.287-11.177-17.219-12.054 .303.068.663.409 0,.574-2.874-3.628-5.612-7.103-6.889-10.332-6.235-5.659-4.825-12.571-13.775-21.237-.774-.75-.175-.99-.573-1.722-1.074-1.97-6.071-7.036-9.185-8.609 .066.033-1.778-2.23-1.147-1.722-3.646-2.936-8.52-4.491-13.201-6.888-2.309-1.181-4.08-3.646-6.314-4.592-10.635-4.501-22.374-5.001-32.143-7.462-.996-.25-1.367-1.564-2.296-1.722-3.233-.55-9.456.981-10.906-1.722-10.98,1.836-20.31,2.512-30.99,1.661zm-9.75,104.46c1.767,1.991 6.172,8.977 6.888,6.313 1.957,1.87 4.479,3.174 8.609,2.87-2.949-10.363-1.071-15.294-8.036-19.515-3.524-2.8-9.433-11.342-10.332-18.941-2.843-1.345-1.611-8.914-6.888-8.036 .913,1.481-.337,3.203.574,5.166-.576.002-.683-.465-1.148-.574 .427,2.34-1.85,1.976-1.148,4.592 1.81,1.252 2.678,3.444 5.74,3.444 2.055,3.27 7.695,13.946-.574,12.627-1.32,4.44 1.93,7.12 6.32,12.05zm-44.775-16.07c-5.392.104-7.071-.783-12.628-2.296-6.419-6.338-11.907-4.115-20.089-.574 6.065,10.245 17.745,8.574 30.995,9.758 2.106,7.272 6.375,10.738 10.906,14.923 4.217,2.511 18.458,16.669 25.829,6.888-3.374-3.107-6.063-4.773-7.462-5.166-1.715-6.907-6.564-8.575-9.758-13.776 1.327-1.426-.459-1.281-.574-1.722-1.546-5.931-3.931-5.104-8.61-9.184-1.102.456-4.505-1.373-6.313.574-.059-.644.834-.894 0-1.148-.098,2.61-4.194-.61-2.302,1.73zm30.995,36.74c-10.498-3.205-17.697-7.419-24.681-13.201-2.336-3.303-7.097-8.692-8.61-9.184-.726-3.359-3.318-4.468-5.74-4.592-9.604-.49-21.06-.465-28.125-5.74-.25-.403-.761-1.85-2.296-2.87-1.538,3.418-4.016,3.554-6.313,6.888 10.668,9.098 27.79,1.735 33.865,10.332 .254.36 4.475,6.085 4.592,6.313 2.581,5.044 14.854,11.124 20.089,12.628 .058.645-.834.892 0,1.148 5.965,1.833 15.368,2.549 21.811.574 .04-2.68-2.79-1.76-4.59-2.3zm8.04-24.11c-2.116-1.709-2.946-4.632-4.592-8.036-6.964,2.648-10.711-1.128-15.498.574 1.673,5.714 10.671,14.125 16.072,17.793 .224-.881.689-.084 0,.574 4.988.506 7.641,6.588 12.627,2.296-3.141-2.953-6.553-6.766-7.462-10.906-1.91-.33-1.73-.33-1.15-2.28zm-40.757,32.71c9.591,2.216 18.638,1.698 24.681-1.722-9.412-2.688-21.05-6.528-24.107-12.627-3.794-2.114-8.146-5.146-9.757-8.61-.195-.419-.388.347-1.148-.574-1.367-1.656-.771-3.391-3.444-4.592-3.012-1.353-8.185.234-12.054,0-8.608-.521-16.183-3.418-22.385-2.87-3.416,8.893 5.993,22.192 17.793,22.959 .058.644-.834.894 0,1.148 8.661,1.38 13.468,2.35 22.385-1.722-.705,4.04 8.747,6.39 8.04,8.6zm77.487-30.42c-4.591,1.333-7.548-.443-13.202,0-.773,1.641 1.347,4.562.574,8.036 1.974.897 6.036,2.118 5.166,4.018 7.264-.055 8.605-6.264 10.905-9.758-1.6-1.3-4.78-.84-3.44-2.3zm4.59,9.19c.371,2.5 2.985,2.755 3.444,5.166 5.461.351 8.005-4.26 11.479-7.462-5.354-.303-7.734-2.149-11.479-2.87-2.44,2.03-2.06,4.22-3.44,5.16zm32.72-3.45c-7.832,3.959-14.544.391-18.367,9.184 8.81,1.248 23.092,2.325 28.698-4.018-2.61-1.52-5.99-2.82-10.33-5.16zm46.49,5.74c-11.026,4.747-19.672,4.5-28.125,2.87 .351.032.68.085.574.574-1.782-1.165-2.509-.825-4.592-2.296-2.263,3.324-6.369,2.375-8.036,4.018-.74.73.051,1.352-.574,1.722-2.494,1.476-7.53-.054-10.331,5.166 17.548,5.203 39.558,2.63 52.232-9.758-.65-.51.04-1.27-1.15-2.29zm-134.31,21.24c-7.535.889-15.753,3.025-24.107,2.296-8.278-.723-12.54-9.298-21.237-6.314-8.098-.739-18.389-2.482-27.551-6.888-1.449-2.482-3.905-4.605-5.74-6.888 .302,6.134 2.495,7.708 1.148,10.906 4.679,2.522 6.381,4.915 15.498,6.888 1.565,2.579 2.71,2.17 5.74,3.444 .757,2.037 4.053,6.194 6.888,8.036 14.298,1.232 22.702-4.365 34.439-5.74 4.03-.472 10.373-.162 14.923-1.722 1.231-.422 6.264-4.351 9.184-4.592-1.611.246 1.438-2.14-.574-2.296-3.17,1.42-4.79,4.15-8.61,2.86zm117.09-5.17c1.116.818 4.032.086 2.87,1.722 10.05,2.735 22.128,1.7 31.569-2.87 3.147-1.523 12.938-6.418 10.331-10.332-7.375-.809-16.534,4.474-20.089,0-9.56.31-14.94,8.12-24.68,11.48zm-21.81,34.44c4.649-4.489 5.608-6.501.573-12.054-6.915-7.627-16.593-20.855-24.681-29.273-2.648.946-9.551,2.157-13.202,1.148-1.669-.461-3.03-2.869-5.166-3.444-4.041-1.087-9.09,1.515-12.053,0-1.354-.692-1.02-2.11-2.296-2.296-.297-.043-1.202,1.658-1.722,1.722-2.352.288-5.03-2.329-6.888-1.722-5.077,3.979-10.845,1.646-14.35,4.018 7.642,16.163-7.89,31.664-16.071,39.604-1.9,1.844-.808,6.791 2.296,9.184 2.762-4.495 10.17-5.053 14.923-8.035-.004-2.943-.537-2.798-1.148-5.74 2.273-5.408 11.715-5.957 15.498-3.444 .214.098 8.899,3.061 12.054-1.147 .564-3.598-2.918-4.173-1.722-8.036 9.187-7.513 23.261-3.131 29.847,3.444 1.799,1.797 5.616,6.752 1.722,9.184-4.817,1.111-5.375.017-9.184,1.722 .13,1.185 2.196,3.407 4.018,4.592 7.98.291 20.704-11.792 25.256,2.296 .12-1.48 1.6-1.04 2.29-1.71zm26.98-30.42c.351.033.68.086.574.574-4.249-.763-8.62-4.261-13.202-4.018-8.188.435-15.292,1.833-22.959,2.296 .351.033.68.086.574.574-.319-.002-.651.465 0,.574 .181-.924.817.044.574,1.148 .826,1.27 1.4-.723 1.722.574 .608.743 1.052,2.384 1.722,2.87 4.641,3.366 30.532,7.891 40.179,4.018 6.201-2.49 6.023-1.023 10.332,1.722 2.562,1.633 6.344,2.291 8.609,2.87 7.597,1.943 12.902-1.683 20.663-6.888-.207.139 3.474-3.984 3.444-4.592 .07,1.439-2.863-2.808-2.296-2.296-2.877-2.598-7.278-5.111-9.758-8.036-10.22,8.28-29.22,13.64-40.15,8.63zm-143.5,10.33c.35.033.679.086.574.574-3.73.634-8.789,2.598-10.906,2.87 .844,1.15-4.196-.388-5.74,1.148-2.762,4.167-14.314,1.137-12.054,9.758 1.754,1.189 1.799.758 4.018,1.722 .819-.138.968-.945 1.722-1.148 8.788,1.251 13.047-7.173 19.516-6.888 .303.014 1.433,1.609 1.722,1.722 4.523,1.776 13.311-.722 17.793-4.018 .058.645-.834.894 0,1.148 .856-1.677 3.738-3.587 5.166-2.87-.307-2.794 2.288-2.686 2.87-4.592-7.6.52-19.252-2.71-24.687.58zm163.01,2.3c.351.033.68.086.574.574-2.841-1.521-3.188-2.817-6.888-4.018-3.863,2.267-9.475,3.675-12.054,1.722-5.854.419-12.76,1.194-19.516,1.722-1.792.14-3.684-1.271-4.592,1.148 3.281,1.885 4.525,5.806 7.462,8.036 5.323.94 16.878.13 24.681-1.723 1.291-.306 4.238,2.938 6.314,4.019 2.127,1.106 5.544,1.146 6.888,3.443 10.52,1.89 14.984.749 22.959-6.313-.294-.84 1.363-5.375 0-6.314-7.43,3.01-19.32,1.68-25.82-2.3zm-184.24,16.65c2.724-.499 1.588,1.401 2.296,1.722 1.973,2.181 4.797,1.018 8.036,1.147 6.752.272 19.939.377 22.385-8.609-5.119.15-9.597,1.241-16.071-2.296-4.322,4.23-11.762,4.51-16.643,8.04zm171.04,7.46c3.858,3.062 7.896,7.907 15.498,8.036 3.473,2.946 6.943.243 10.332,2.87 5.763-3.424 6.87-4.76 12.053-8.036-1.097-3.146.226-6.773 1.148-10.331-7.807,1.421-12.606,2.756-20.663,1.147-8.397-1.676-16.373-11.665-25.829-4.592-4.38-.932-9.245,1.63-13.775,1.148 .171,1.128-.775,1.138-1.148,1.722 .634.519.397,1.284 0,2.296 10.79,1.09 15.55.29 22.39,5.73zm-160.71,5.74c-.792-.252 8.963-.024 9.184,0 2.554.283 9.756-2.335 11.479-2.87-.046.015 4.396-1.83 4.592-2.296-.136-.786-1.396-1.934-2.296-3.443 .644-.059.894.834 1.148,0-8.414,1.488-22.191,1.079-28.125,1.722 1.807,1.4.867,5.88 4.022,6.89zm154.4-7.47c-6.219,2.365-10.551-.44-16.646-.574 2.56,6.837 10.577,8.78 16.071,13.776 .268.242-.735,1.033-.573,1.147 1.186.838 2.912.566 4.018,1.148 4.896,2.573 8.345,6.081 13.201,6.888 1.959.325 4.138-.729 6.314,0 1.653.554 3.118,3.498 6.888,2.296 2.312,2.088 5.039,3.762 9.758,3.443 3.926-6.094 3.96-9.143 8.035-12.054 .475-1.622-.809-1.486-.574-2.869-17.47,5.5-40.17-4.2-46.5-13.22zm-18.94,7.47c-.153-1.785-1.803-3.905-4.592-4.592-.519,1.012-1.284,1.777-2.296,2.296 .729,2.966 1.863,2.651 1.722,5.739 4.121,2.718 6.287,6.895 10.332,9.185 1.484.84 3.699.348 5.166,1.147 1.133.618 1.452,2.03 2.87,2.87 1.906,1.13 5.632,1.753 7.461,2.87 1.458.89 1.567,2.596 3.444,3.443 3.526,1.593 7.038-.443 11.479,0-8.82-13.06-21.95-13.29-35.58-22.96zm-107.34-.58c-.562,4.143-5.121.956-5.74,6.314 2.213.627 8.003,2.054 14.35.573-1.87-3.53-5.07-6.08-8.61-6.88zm118.82,22.96c-4.06-7.477-13.057-11.566-20.663-16.645-1.27,10.79 12.83,18.47 20.66,16.65z"/>
  <path d="m175.64,13.685c1.45,2.703 7.673,1.172 10.906,1.722 .929.158 1.3,1.472 2.296,1.722 9.769,2.46 21.508,2.96 32.143,7.462 2.234.945 4.006,3.411 6.314,4.592 4.682,2.396 9.555,3.952 13.201,6.888-.631-.508 1.214,1.755 1.147,1.722 3.113,1.573 8.11,6.639 9.185,8.609 .398.732-.201.972.573,1.722 8.95,8.666 7.54,15.579 13.775,21.237 1.276,3.229 4.015,6.703 6.889,10.332 .663-.165.303-.506 0-.574 3.932.877 12.996,11.66 17.219,12.054 12.943,13.171 23.496,37.064 37.309,52.806 .05.815.095,1.625-.573,1.722 7.175,6.162 4.764,27.464.573,35.013-.413.745-.381.01-1.147,0-.469,1.341-.655,4.761-2.296,6.313-.704.666-5.111,4.108-7.462,6.889-.324.383.518.685.574.573-1.319,2.607-4.614,4.514-6.888,6.314-6.028,4.771-11.075,8.837-17.22,10.331-.729.178-.022-.834 0-1.147-3.078,2.303-6.844,1.217-9.758,2.869-3.132-1.297 5.206-6.941 5.166-6.888 .12-.164-.475-1.996-.574-1.722 .974-2.684 3.788-3.343 5.166-5.166-3.639-8.771-9.126-16.307-.574-24.106-3.613-4.426-3.113-6.566-3.443-10.906 3.588-4.508 9.424-10.917 13.201-15.497-3.744-2.391-6.203-1.146-10.905-2.87-.054-.02.761-1.08.573-1.148-7.664-2.788-9.964-5.583-11.479-14.35-.702-4.062-13.11.435-17.219.574-2.884.098-8.684-.396-10.906-1.722-1.913-1.141-4.055-5.411-6.313-5.166-4.666.507-8.728,3.415-13.775,4.592-1.729.403-4.769-.145-9.184,1.148-1.33-2.115-5.212-1.676-6.888-3.444-.651.109-.319.576 0,.574-7.5-2.431-12.875-9.765-19.516-5.74-1.362-.14-2.567,1.394-4.018,1.722-1.883.425-7.238,1.191-7.462,1.148-3.6-.688 1.668-.235-.574-1.722-1.615-1.071-9.15-.941-7.462-2.87-4.814-1.215-9.369-2.686-13.775-5.166-2.169-1.221-2.371-1.02-5.74-1.722-1.925-.401-3.659-1.771-5.74-2.296-.826-.208-2.132.866-2.87.574-5.32-2.101-8.078-8.012-9.184-9.184-5.765-6.113-3.481-14.459-10.906-21.237-2.519-5.044-3.971-7.705-4.592-12.627-2.749-.697-2.192,5.181-3.444,8.61-1.115,3.053-6.331,9.691-3.444,14.923 3.308,5.996 10.816,4.449 11.479,12.054-11.035,2.992-25.877,4.282-33.291-8.61-10.033,6.628-26.771-3.458-34.439,1.148-2.415.928-5.191,1.722-7.462,2.87-8.575,4.336-14.678,13.602-18.941,18.941-1.135,1.421-5.364,9.147-4.018,17.793 .613,3.938 3.228,8.031 7.461,10.905 2.787,5.593 16.083,5.876 20.664,13.776 .434,5.405 2.265,10.571.574,15.497 6.479,2.452 9.711,4.559 12.628,11.479-2.799-.305-3.48-4.114-6.314-4.592-.978-.164-.803,1.494-1.722,1.723-3.139.778-6.791-2.354-9.757-4.019-.665.167-.302.505 0,.574-6.969-1.606-14.768-6.889-20.089-16.646 3.279-2.102 5.795-.06 8.609.574 6.257-5.149-8.542-9.193-13.201-12.054-.083-.05.793-1.055.574-1.148-2.25-.958-5.469-.013-7.461-1.148-6.568-3.74-7.845-10.756-9.758-14.923-.272-13.806-6.437-19.314-2.87-27.551 8.205-13.882 17.718-26.078 28.125-39.031 .465.109.572.576 1.148.574 3.251-6.652 15.125-16.775 20.089-23.533 7.421-6.391 16.693-16.213 26.403-22.385 .834.254-.059.504 0,1.148 8.451-7.201 15.686-11.392 25.829-13.776 .2-.347-.346-.726-.574-.574 7.459-4.967 24.728,1.212 34.439,5.166 10.66.909 19.99.233 30.98-1.664zm29.27,22.385c3.236.075 6.692.053 8.609-2.87-.051-2.144-.644-1.636 0-3.444-4.8-4.142-13.17.523-8.61,6.314zm26.4,6.314c-2.419-.083-6.645-2.909-8.609-3.444-11.61,14.515 16.98,16.539 8.61,3.444zm-118.81,6.888c-1.639-7.017-3.107-10.034-8.036-5.166-.185.182.325-.439-.574,0-4.83,2.359-3.606,7.16-2.87,12.054 1.252-.104 1.826.47 1.722,1.722 6.456.31 4.768-4.212 8.036-5.166-.19-.515.74-5.099 1.72-3.444zm136.61,16.645c-.004-4.752-4.645-8.115-9.184-8.61-7.454,7.145 3.794,17.719 7.462,11.479-.66.039.44-2.947 1.72-2.869zm-17.22,13.202c-1.766-2.067-4.041-8.582-8.036-10.332-2.239,3.5-4.522,6.958-4.018,13.202 4.43,7.483 15.35,4 12.06-2.87zm40.75,21.811c.473-4.618-7.536-13.564-12.627-13.202-7.31,9.918 5.61,24.032 12.63,13.202z" fill="#9b5f0e"/>
  <path d="m213.52,29.756c-.644,1.808-.051,1.3 0,3.444-1.917,2.923-5.373,2.945-8.609,2.87-4.56-5.791 3.81-10.456 8.61-6.314zm-5.74.575c-.808.75-2.063,3.038 0,3.444 1.058.087 3.839-2.349 2.296-3.444-.52.634-1.29.397-2.3,0z"/>
  <path d="m210.08,30.331c1.543,1.095-1.238,3.531-2.296,3.444-2.063-.406-.808-2.694 0-3.444 1.01.397 1.78.634 2.3,0z" fill="#f1e5c8"/>
  <path d="m247.39,68.787c-3.668,6.239-14.916-4.334-7.462-11.479 4.539.495 9.18,3.857 9.184,8.61-1.28-.079-2.38,2.907-1.72,2.869zm-6.32-1.148c5.425-.021 5.595-2.978 4.018-6.313-2.742-.075-3.007-2.024-5.166-.574-.73,1.712-.38,5.48 1.15,6.887z"/>
  <path d="m219.84,81.989c-.505-6.244 1.778-9.701 4.018-13.202 3.995,1.75 6.271,8.265 8.036,10.332 3.28,6.87-7.64,10.353-12.06,2.87zm1.72-1.722c2.646,2.33 6.521,6.317 8.609,1.722-1.273-2.708-2.864-8.017-5.739-9.758-1.33,2.505-2.79,5.646-2.87,8.036z"/>
  <path d="m128.57,107.82c8.269,1.319 2.629-9.357.574-12.627-3.062,0-3.93-2.192-5.74-3.444-.702-2.616 1.575-2.252 1.148-4.592 .465.109.572.576 1.148.574-.911-1.962.339-3.685-.574-5.166 5.277-.878 4.045,6.69 6.888,8.036 .899,7.6 6.808,16.141 10.332,18.941 6.964,4.221 5.086,9.152 8.036,19.515-4.131.304-6.652-1-8.609-2.87-.715,2.664-5.121-4.322-6.888-6.313-4.39-4.94-7.64-7.62-6.32-12.06z" fill="#f1e5c8"/>
  <path d="m92.411,102.08c.834.254-.059.504 0,1.148 1.808-1.947 5.211-.118 6.313-.574 4.679,4.081 7.064,3.253 8.61,9.184 .115.441 1.901.296.574,1.722 3.193,5.201 8.042,6.869 9.758,13.776 1.398.393 4.088,2.058 7.462,5.166-7.371,9.781-21.612-4.377-25.829-6.888-4.531-4.185-8.8-7.651-10.906-14.923-13.25-1.184-24.93.487-30.995-9.758 8.183-3.542 13.67-5.765 20.089.574 5.557,1.513 7.236,2.399 12.628,2.296-1.884-2.35 2.212.87 2.304-1.73z" fill="#f1e5c8"/>
  <path d="m125.7,142.83c-6.443,1.975-15.846,1.259-21.811-.574-.834-.256.058-.503 0-1.148-5.236-1.504-17.509-7.584-20.089-12.628-.117-.229-4.337-5.954-4.592-6.313-6.075-8.597-23.196-1.234-33.865-10.332 2.297-3.334 4.775-3.47 6.313-6.888 1.535,1.02 2.046,2.467 2.296,2.87 7.065,5.274 18.521,5.25 28.125,5.74 2.421.124 5.014,1.233 5.74,4.592 1.513.492 6.274,5.881 8.61,9.184 6.984,5.782 14.184,9.996 24.681,13.201 1.8.55 4.63-.37 4.59,2.3z" fill="#f1e5c8"/>
  <path d="m80.357,140.54c-8.917,4.072-13.725,3.102-22.385,1.722-.834-.254.058-.504 0-1.148-11.8-.767-21.209-14.066-17.793-22.959 6.202-.548 13.777,2.349 22.385,2.87 3.869.234 9.042-1.353 12.054,0 2.673,1.201 2.077,2.936 3.444,4.592 .76.92.953.155 1.148.574 1.612,3.464 5.963,6.496 9.757,8.61 3.058,6.099 14.696,9.94 24.107,12.627-6.043,3.42-15.09,3.938-24.681,1.722 .711-2.21-8.741-4.56-8.032-8.6z" fill="#f1e5c8"/>
  <path d="m213.52 129.63c-5.606 6.342-19.889 5.265-28.698 4.018 3.823-8.792 10.535-5.224 18.367-9.184 4.34 2.33 7.72 3.63 10.33 5.16z" fill="#f1e5c8"/>
  <path d="m250.83,132.5c-12.675,12.388-34.685,14.961-52.232,9.758 2.801-5.22 7.837-3.69 10.331-5.166 .625-.37-.166-.992.574-1.722 1.667-1.643 5.773-.694 8.036-4.018 2.083,1.471 2.81,1.131 4.592,2.296 .105-.488-.224-.542-.574-.574 8.453,1.63 17.099,1.877 28.125-2.87 1.19,1.01.5,1.77 1.15,2.29z" fill="#f1e5c8"/>
  <path d="m123.98,148.57c2.012.156-1.037,2.542.574,2.296-2.919.241-7.953,4.169-9.184,4.592-4.551,1.56-10.894,1.25-14.923,1.722-11.737,1.375-20.141,6.972-34.439,5.74-2.835-1.842-6.13-5.999-6.888-8.036-3.029-1.273-4.175-.865-5.74-3.444-9.116-1.973-10.819-4.365-15.498-6.888 1.347-3.197-.846-4.771-1.148-10.906 1.835,2.282 4.291,4.405 5.74,6.888 9.163,4.405 19.454,6.149 27.551,6.888 8.697-2.984 12.959,5.591 21.237,6.314 8.354.729 16.572-1.407 24.107-2.296 3.82,1.3 5.44-1.43 8.61-2.86z" fill="#f1e5c8"/>
  <path d="m257.14,134.8c3.555,4.474 12.714-.809 20.089,0 2.607,3.913-7.184,8.808-10.331,10.332-9.441,4.57-21.52,5.605-31.569,2.87 1.162-1.636-1.754-.904-2.87-1.722 9.74-3.37 15.12-11.18 24.68-11.48z" fill="#f1e5c8"/>
  <path d="m208.36,182.44c-4.552-14.088-17.275-2.005-25.256-2.296-1.821-1.185-3.888-3.407-4.018-4.592 3.809-1.705 4.366-.61 9.184-1.722 3.895-2.432.077-7.387-1.722-9.184-6.586-6.575-20.661-10.957-29.847-3.444-1.196,3.863 2.286,4.438 1.722,8.036-3.154,4.208-11.839,1.245-12.054,1.147-3.782-2.513-13.224-1.964-15.498,3.444 .611,2.942 1.144,2.797 1.148,5.74-4.753,2.982-12.162,3.54-14.923,8.035-3.104-2.393-4.196-7.34-2.296-9.184 8.182-7.94 23.713-23.442 16.071-39.604 3.504-2.372 9.272-.039 14.35-4.018 1.857-.606 4.536,2.01 6.888,1.722 .52-.064 1.424-1.766 1.722-1.722 1.277.186.942,1.604 2.296,2.296 2.963,1.515 8.013-1.087 12.053,0 2.135.575 3.497,2.983 5.166,3.444 3.651,1.009 10.554-.202 13.202-1.148 8.088,8.417 17.766,21.646 24.681,29.273 5.035,5.553 4.076,7.564-.573,12.054-.69.65-2.17.21-2.29,1.71z" fill="#f7f0e0"/>
  <path d="m277.81,141.68c2.479,2.924 6.881,5.438 9.758,8.036-.567-.512 2.366,3.735 2.296,2.296 .029.608-3.651,4.731-3.444,4.592-7.761,5.205-13.066,8.831-20.663,6.888-2.266-.58-6.047-1.237-8.609-2.87-4.309-2.745-4.131-4.211-10.332-1.722-9.646,3.873-35.538-.652-40.179-4.018-.67-.486-1.113-2.127-1.722-2.87-.321-1.296-.896.696-1.722-.574 .243-1.104-.394-2.072-.574-1.148-.651-.109-.319-.576 0-.574 .105-.488-.224-.541-.574-.574 7.667-.462 14.771-1.861 22.959-2.296 4.582-.243 8.953,3.255 13.202,4.018 .105-.488-.224-.542-.574-.574 10.9,4.99 29.9-.37 40.15-8.63z" fill="#f1e5c8"/>
  <path d="m118.81,160.05c-.582,1.906-3.177,1.797-2.87,4.592-1.428-.717-4.31,1.193-5.166,2.87-.834-.255.058-.504 0-1.148-4.482,3.296-13.27,5.794-17.793,4.018-.289-.112-1.418-1.708-1.722-1.722-6.468-.285-10.728,8.139-19.516,6.888-.754.203-.903,1.011-1.722,1.148-2.219-.964-2.264-.532-4.018-1.722-2.261-8.621 9.292-5.591 12.054-9.758 1.543-1.536 6.584.002 5.74-1.148 2.117-.271 7.175-2.235 10.906-2.87 .105-.488-.224-.542-.574-.574 5.443-3.3 17.095-.07 24.685-.58z" fill="#f1e5c8"/>
  <path d="m282.97,165.22c1.363.938-.294,5.474 0,6.314-7.975,7.062-12.439,8.203-22.959,6.313-1.344-2.298-4.761-2.337-6.888-3.443-2.076-1.08-5.023-4.324-6.314-4.019-7.803,1.853-19.357,2.663-24.681,1.723-2.937-2.23-4.181-6.151-7.462-8.036 .908-2.419 2.8-1.008 4.592-1.148 6.756-.527 13.661-1.303 19.516-1.722 2.579,1.953 8.19.544 12.054-1.722 3.7,1.201 4.047,2.497 6.888,4.018 .105-.488-.224-.542-.574-.574 6.49,3.98 18.38,5.31 25.82,2.3z" fill="#f1e5c8"/>
  <path d="m89.541,171.53c6.475,3.537 10.953,2.446 16.071,2.296-2.446,8.986-15.633,8.882-22.385,8.609-3.239-.13-6.063,1.033-8.036-1.147-.708-.32.428-2.221-2.296-1.722 4.884-3.53 12.324-3.81 16.648-8.04z" fill="#f1e5c8"/>
  <path d="m221.56,181.29c.397-1.012.634-1.777 0-2.296 .373-.584 1.319-.594 1.148-1.722 4.53.481 9.396-2.08 13.775-1.148 9.456-7.073 17.432,2.916 25.829,4.592 8.057,1.608 12.856.273 20.663-1.147-.923,3.558-2.245,7.185-1.148,10.331-5.183,3.276-6.29,4.612-12.053,8.036-3.389-2.627-6.859.076-10.332-2.87-7.602-.129-11.64-4.974-15.498-8.036-6.84-5.43-11.6-4.63-22.38-5.73z" fill="#f1e5c8"/>
  <path d="m79.209,185.88c5.934-.643 19.711-.233 28.125-1.722-.254.834-.504-.059-1.148,0 .9,1.51 2.16,2.657 2.296,3.443-.196.466-4.638,2.311-4.592,2.296-1.723.535-8.925,3.153-11.479,2.87-.221-.024-9.976-.252-9.184,0-3.155-1.01-2.215-5.49-4.018-6.89z" fill="#f1e5c8"/>
  <path d="m284.12,198.51c-.234,1.383 1.049,1.247.574,2.869-4.075,2.911-4.109,5.96-8.035,12.054-4.719.318-7.446-1.355-9.758-3.443-3.77,1.202-5.234-1.742-6.888-2.296-2.177-.729-4.355.325-6.314,0-4.856-.807-8.306-4.314-13.201-6.888-1.105-.582-2.832-.311-4.018-1.148-.162-.114.841-.905.573-1.147-5.494-4.996-13.512-6.939-16.071-13.776 6.095.134 10.427,2.939 16.646.574 6.33,9.03 29.03,18.73 46.49,13.22z" fill="#f1e5c8"/>
  <path d="m254.27,215.73c-4.441-.443-7.953,1.593-11.479,0-1.877-.848-1.986-2.554-3.444-3.443-1.829-1.117-5.555-1.74-7.461-2.87-1.418-.84-1.737-2.252-2.87-2.87-1.467-.8-3.682-.308-5.166-1.147-4.045-2.29-6.211-6.467-10.332-9.185 .142-3.088-.992-2.773-1.722-5.739 1.012-.519 1.777-1.284 2.296-2.296 2.789.687 4.438,2.807 4.592,4.592 13.63,9.67 26.76,9.9 35.58,22.96z" fill="#f1e5c8"/>
  <path d="m119.96,199.08c-6.346,1.48-12.137.054-14.35-.573 .62-5.358 5.178-2.172 5.74-6.314 3.54.79 6.74,3.34 8.61,6.88z" fill="#f1e5c8"/>
  <path d="m209.5 198.51c7.606 5.078 16.604 9.168 20.663 16.645-7.82 1.81-21.92-5.87-20.66-16.65z" fill="#f1e5c8"/>
  <path d="m142.35,208.84c.032-.591 1.921-4.282 0-5.166 2.965-3.235 4.25,2.692 4.018,4.019-.583.986-3.308,2.763-2.296,3.443-.486.854-1.848.831-2.87,1.148-.016-.559-.703-.446-1.148-.574 1.153-.51-.253-2.513-.574-1.148-1.287-1.107 1.091-3.956-1.148-4.592 1.401-2.968.229-3.134 2.296-5.739 1.17,1.001 1.125-.428 2.296.574-1.33,1.7-2.88,6.14-.58,8.04z"/>
  <path d="m164.73 222.61c-8.837 6.498-16.968-13.461-3.444-17.219 2.68 7.86 6.02 9.65 3.44 17.22zm-3.44-1.14c4.277-2.709 1.649-10.819-2.296-12.054-2.16 3.59-4.36 10.35 2.3 12.05z"/>
  <path d="m140.05,241.56c.525-.64 1.067-.181 2.87-.573 4.838,7.303 5.086,9.689 0,17.793-10.937.876-10.662-11.847-2.296-16.646 .11-.49-.22-.54-.57-.57zm.57,14.92c3.394-3.041 4.96-7.808 1.148-12.054-4.3,2.41-7.3,10.92-1.15,12.05z"/>
  <path d="m141.77 244.42c3.812 4.246 2.246 9.013-1.148 12.054-6.15-1.12-3.15-9.63 1.15-12.05z" fill="#fff"/>
  <path d="m132.59,275.42c-.579,1.727 1.278,1.018 2.296,1.147 .108,2.003.277,3.239 1.147,4.592-.109.651-.576.319-.574,0-1.231,4.87-5.519,7.408-6.314,8.036-4.483,3.539-8.065-4.463-6.888-8.036 1.51-4.62 5.09-5.58 10.32-5.74zm-7.46,11.48c5.132,1.133 9.281-4.496 6.313-9.184-5.52.39-8.05,5.04-6.31,9.18z"/>
  <path d="m131.44,277.72c2.968,4.688-1.182,10.316-6.313,9.184-1.74-4.14.79-8.79 6.31-9.18z" fill="#fff"/>
 </g>
</svg>
