<?xml version="1.0" encoding="UTF-8"?>
<!DOCTYPE svg  PUBLIC '-//W3C//DTD SVG 1.1//EN'  'http://www.w3.org/Graphics/SVG/1.1/DTD/svg11.dtd'>
<svg enable-background="new 0 0 40.6 40" version="1.1" viewBox="0 0 40.6 40" xml:space="preserve" xmlns="http://www.w3.org/2000/svg" xmlns:xlink="http://www.w3.org/1999/xlink">
<symbol id="u" viewBox="0 -6.51 8.839 6.535">
		<path d="m7.4-4.05c-2.066-0.967-3.25-1.534-3.55-1.7-1.3-0.7-2.317-0.917-3.05-0.65-0.667 0.267-0.917 0.883-0.75 1.85 0.167 0.833 0.633 1.617 1.4 2.35 0.667 0.667 1.4 1.167 2.2 1.5 0.8 0.367 1.4 0.583 1.8 0.65 0.466 0.1 1.05 0.1 1.75 0 0.733-0.1 1.233-0.434 1.5-1 0.2-0.5 0.183-1.083-0.05-1.75-0.167-0.5-0.583-0.917-1.25-1.25z" clip-rule="evenodd" fill="#FFE175" fill-rule="evenodd"/>
</symbol>
<symbol id="v" viewBox="-0.04 -9.945 13.49 9.892">
		<path d="m11.55-4.15c-1.667-0.733-2.917-1.3-3.75-1.7-1.833-0.867-3.533-1.917-5.1-3.15-0.967-0.767-1.567-1.067-1.8-0.9-0.5 0.333-0.8 0.683-0.9 1.05-0.133 0.533 0.067 1.25 0.6 2.15 0.7 1.267 1.683 2.45 2.95 3.55 1.633 1.4 3.417 2.383 5.35 2.95 1.2 0.333 2.3 0.1 3.3-0.7 0.7-0.533 1.1-0.883 1.2-1.05 0.033-0.066 0.05-0.267 0.05-0.6 0-0.467-0.633-1-1.9-1.6z" clip-rule="evenodd" fill="#FFE175" fill-rule="evenodd"/>
</symbol>
	<rect width="40" height="40" clip-rule="evenodd" fill-opacity="0"/>
		<radialGradient id="l" cx="18.3" cy="2.8501" r="27.082" gradientTransform="matrix(-.5129 .8341 -.8426 -.5181 33.956 -5.4471)" gradientUnits="userSpaceOnUse">
		<stop stop-color="#FFD66E" offset="0"/>
		<stop stop-color="#806733" offset="1"/>
	</radialGradient>
	<path d="m16.881 6.676c2.677-1.273 5.777-1.501 9.303-0.685 3.688 0.881 5.76 2.545 6.217 4.993 0.979 5.255-1.289 10.135-6.806 14.639-3.818 3.134-7.425 5.173-10.819 6.12-3.297 0.914-5.973 0.669-8.03-0.734-0.783-0.555-1.436-1.714-1.958-3.476-0.587-2.058-0.718-4.195-0.392-6.414 0.98-6.137 5.142-10.951 12.485-14.443z" clip-rule="evenodd" fill="url(#l)" fill-rule="evenodd"/>
		<use transform="matrix(.9792 0 0 -.9792 11.05 5.7998)" x="-0.04" y="-9.945" width="13.49" height="9.892" enable-background="new" opacity=".0898" xlink:href="#v"/>
		<use transform="matrix(.9792 0 0 -.9792 14.7 6.3999)" y="-6.51" width="8.839" height="6.535" enable-background="new" opacity=".1797" xlink:href="#u"/>
	<path d="m19.525 7.067c0.424-0.196 0.849-0.245 1.272-0.147 0.556 0.131 0.784 0.506 0.686 1.126-0.065 0.457-0.408 0.882-1.028 1.273-0.554 0.359-1.158 0.587-1.811 0.685-0.718 0.098-1.028-0.245-0.93-1.028 0.098-0.815 0.702-1.452 1.811-1.909z" clip-rule="evenodd" fill="#FFE175" fill-rule="evenodd"/>
		<radialGradient id="m" cx="-9.5635" cy="-23.073" r="17.358" gradientTransform="matrix(-.8772 .4351 -.6346 -1.5464 -1.7929 -9.1758)" gradientUnits="userSpaceOnUse">
		<stop stop-color="#856D33" offset="0"/>
		<stop stop-color="#876D35" offset="1"/>
	</radialGradient>
	<path d="m31.569 11.572c0.262 1.632 0.114 3.459-0.44 5.483-0.588 2.22-1.518 3.999-2.791 5.336-1.632 1.73-3.492 3.28-5.581 4.651-2.579 1.697-4.961 2.693-7.148 2.986-2.122 0.262-3.591 0.18-4.407-0.244-0.229-0.098-0.881-0.734-1.958-1.91-1.795-1.827-1.11-4.83 2.056-9.008 1.534-2.024 3.068-3.672 4.602-4.945 1.958-1.632 4.341-3.019 7.148-4.162 1.894-0.751 3.688-0.996 5.386-0.734 1.86 0.295 2.905 1.143 3.133 2.547z" clip-rule="evenodd" fill="url(#m)" fill-rule="evenodd"/>
		<radialGradient id="n" cx="-13.398" cy="-14.634" r="9.7373" gradientTransform="matrix(-.9775 .0579 -.4177 -1.6342 1.7518 -4.2238)" gradientUnits="userSpaceOnUse">
		<stop stop-color="#615024" offset="0"/>
		<stop stop-color="#756337" offset="1"/>
	</radialGradient>
	<path d="m31.202 14.02c-0.397 0.823-1.107 1.786-2.13 2.889-0.783 0.849-1.763 1.436-2.938 1.762l-1.518 0.245 2.644 0.147c1.24-0.033 2.203-0.277 2.889-0.734-1.044 1.012-1.99 1.55-2.84 1.616-0.522 0.033-1.109-0.065-1.763-0.294l-0.783-0.293 2.008 1.566c0.686 0.49 1.24 0.686 1.665 0.588-0.229 0.13-0.621 0.146-1.176 0.049-0.358-0.032-0.897-0.245-1.616-0.637l-0.979-0.587 0.734 1.027c0.522 0.653 1.158 1.306 1.909 1.959-0.294 0.032-0.652-0.147-1.076-0.539l-2.252-1.86c-0.523 0.522-1.062 1.11-1.616 1.763-1.143 1.306-1.86 2.269-2.154 2.889-0.424 1.012-1.094 1.894-2.007 2.645 0.229-0.229 0.44-0.523 0.636-0.882 0.13-0.229 0.212-0.604 0.245-1.127v-0.734c-0.326 0.719-1.028 1.404-2.105 2.058-1.11 0.651-2.627 0.799-4.553 0.44 1.044-0.164 2.317-0.588 3.819-1.273 0.947-0.424 1.648-1.012 2.105-1.763l0.441-1.028c-0.686 0.849-1.599 1.469-2.742 1.861-1.174 0.358-3.133 0.326-5.875-0.099 2.187 0.163 4.031-0.032 5.533-0.587 0.946-0.359 1.6-0.8 1.958-1.322l0.293-0.686c-0.75 0.229-1.762 0.375-3.036 0.44-1.24 0.099-2.595-0.163-4.063-0.783 0.555 0.196 1.812 0.212 3.77 0.049 1.24-0.13 2.171-0.408 2.791-0.832 0.326-0.196 0.522-0.392 0.587-0.588-0.49 0.196-1.175 0.311-2.056 0.343-0.555 0.033-1.338-0.13-2.351-0.489l-1.322-0.588c0.979 0.294 2.089 0.376 3.33 0.245 1.272-0.131 2.154-0.669 2.643-1.616-0.522 0-1.109-0.114-1.762-0.343-0.392-0.163-0.865-0.408-1.42-0.734l-0.685-0.49 0.93 0.392c0.784 0.262 1.567 0.359 2.351 0.294 1.273-0.066 1.795-0.245 1.566-0.539-0.326-0.326-0.653-0.799-0.979-1.419l-0.881-1.958 1.469 2.007c0.49 0.555 0.767 0.784 0.833 0.686l0.196-0.49c0.13-0.294 0.375-1.877 0.734-4.749 0.163 1.044 0.18 2.122 0.049 3.231-0.131 1.11-0.18 1.779-0.146 2.008 0.261-0.425 0.636-0.881 1.126-1.371 0.521-0.49 1.289-2.367 2.301-5.63l-0.343 3.182-0.637 1.518c-0.392 1.012-0.864 1.795-1.42 2.35 0.653-0.229 1.583-0.833 2.791-1.812 1.208-1.012 2.66-3.052 4.357-6.12-0.816 2.317-1.729 4.211-2.741 5.68-0.78 1.078-1.563 1.836-2.351 2.276 0.536-0.235 1.271-0.57 2.203-1.004 1.894-0.849 3.77-2.627 5.631-5.336-0.229 1.044-0.979 2.333-2.252 3.867-0.783 0.947-1.926 1.828-3.428 2.644l-1.958 0.881c0.358 0 1.566-0.392 3.623-1.175 1.306-0.457 2.365-1.191 3.183-2.203 0.262-0.304 0.466-0.598 0.611-0.883z" clip-rule="evenodd" fill="url(#n)" fill-rule="evenodd"/>
		<linearGradient id="o" x1="26.78" x2="19.655" y1="16.811" y2="24.511" gradientTransform="matrix(.9792 0 0 .9792 4.2502 5.55)" gradientUnits="userSpaceOnUse">
		<stop stop-color="#FCDF95" offset="0"/>
		<stop stop-color="#D4B46D" offset="1"/>
	</linearGradient>
	<path d="m29.122 24.154c2.35 1.338 4.242 1.958 5.679 1.861l0.44 1.272c0.131 1.109-0.212 2.301-1.028 3.573-0.913 1.404-2.007 2.383-3.28 2.938l-1.616 0.441c-1.469-0.652-3.051-1.91-4.748-3.77-0.849-0.947-2.057-2.432-3.623-4.455l-2.056-2.792c0-0.718 0.195-1.436 0.587-2.153 0.718-1.469 1.975-2.236 3.77-2.301 0.588 0 1.371 0.636 2.35 1.91 1.207 1.633 2.382 2.791 3.525 3.476z" clip-rule="evenodd" fill="url(#o)" fill-rule="evenodd"/>
		<linearGradient id="p" x1="27.044" x2="21.344" y1="28.407" y2="21.482" gradientTransform="matrix(.9792 0 0 .9792 4.2502 5.55)" gradientUnits="userSpaceOnUse">
		<stop stop-color="#BDA262" offset="0"/>
		<stop stop-color="#CFB46E" offset="1"/>
	</linearGradient>
	<path d="m29.072 31.302c1.273 0.589 1.845 0.947 1.713 1.078-0.261 0.195-0.864 0.017-1.811-0.539-0.326-0.163-0.686-0.44-1.077-0.832-0.392-0.358-0.473-0.489-0.244-0.393 0.326 0.099 0.799 0.327 1.419 0.686z" clip-rule="evenodd" fill="url(#p)" fill-rule="evenodd"/>
		<linearGradient id="q" x1="26.041" x2="19.591" y1="28.938" y2="21.862" gradientTransform="matrix(.9792 0 0 .9792 4.2502 5.55)" gradientUnits="userSpaceOnUse">
		<stop stop-color="#BDA262" offset="0"/>
		<stop stop-color="#CFB46E" offset="1"/>
	</linearGradient>
	<path d="m27.261 31.254c0.751 0.424 1.077 0.669 0.979 0.734-0.098 0.064-0.393-0.098-0.882-0.49-0.522-0.425-0.554-0.506-0.097-0.244z" clip-rule="evenodd" fill="url(#q)" fill-rule="evenodd"/>
	<path d="m26.869 28.806c-0.13-0.196 0.163-0.065 0.881 0.392 0.425 0.262 1.601 0.701 3.525 1.322 0.131 0.131-0.13 0.113-0.783-0.049-0.555-0.132-1.044-0.262-1.469-0.393-0.294-0.098-0.702-0.31-1.225-0.636-0.521-0.295-0.83-0.505-0.929-0.636z" clip-rule="evenodd" fill="#CFB572" fill-rule="evenodd"/>
	<path d="m29.905 29.246c0.261 0.098 0.88 0.229 1.859 0.392 0.261 0.065 0.425 0.163 0.489 0.294 0.099 0.13 0.05 0.212-0.146 0.245-0.164 0.032-0.67-0.147-1.518-0.539-0.88-0.359-1.109-0.491-0.684-0.392z" clip-rule="evenodd" fill="#CFB572" fill-rule="evenodd"/>
	<path d="m27.848 28.609c1.078 0.327 1.485 0.555 1.225 0.686-0.13 0.065-0.424-0.049-0.881-0.342-0.49-0.295-0.605-0.408-0.344-0.344z" clip-rule="evenodd" fill="#CFB572" fill-rule="evenodd"/>
	<path d="m25.499 25.917c-0.262-0.358-0.294-0.604-0.099-0.734 0.163-0.131 0.375-0.131 0.637 0 0.163 0.064 0.799 0.473 1.909 1.224 1.437 0.85 2.203 1.355 2.301 1.518 0.425 0.588 0.245 0.784-0.538 0.588-0.522-0.099-1.272-0.44-2.252-1.027-1.012-0.59-1.665-1.112-1.958-1.569z" clip-rule="evenodd" fill="#FFE49E" fill-rule="evenodd"/>
	<path d="m31.178 28.806c-0.131-0.032-0.18-0.147-0.147-0.343 0.033-0.195 0.147-0.278 0.344-0.244 0.555 0.064 0.914 0.162 1.076 0.293 0.099 0.065 0.147 0.163 0.147 0.294s-0.065 0.229-0.196 0.293c-0.163 0.132-0.392 0.132-0.686 0-0.293-0.162-0.474-0.261-0.538-0.293z" clip-rule="evenodd" fill="#FFE49E" fill-rule="evenodd"/>
	<path d="m29.513 25.035c0.261 0.099 0.865 0.359 1.813 0.784 0.881 0.391 1.484 0.604 1.811 0.636l1.566 0.099 0.099 0.196c0.065 0.194 0.081 0.439 0.049 0.734-0.065 0.456-0.196 0.831-0.392 1.125 0.131-0.555 0.131-0.963 0-1.224-0.229-0.457-0.408-0.686-0.539-0.686-0.064 0.033-0.342 0-0.832-0.098-0.62-0.164-1.24-0.393-1.86-0.686l-1.715-0.88z" clip-rule="evenodd" fill="#FFE49E" fill-rule="evenodd"/>
		<linearGradient id="r" x1="29.558" x2="17.856" y1="17.475" y2="23.6" gradientTransform="matrix(.9792 0 0 .9792 4.2502 5.55)" gradientUnits="userSpaceOnUse">
		<stop stop-color="#BDA262" offset="0"/>
		<stop stop-color="#CFB46E" offset="1"/>
	</linearGradient>
	<path d="m35.486 27.043c-0.294 0.947-0.734 1.926-1.322 2.938-1.109 2.089-2.333 3.395-3.672 3.917-1.012 0.425-2.774-0.572-5.287-2.986-1.567-1.502-2.905-2.971-4.016-4.406l-2.3-3.281c-0.065-0.358-0.065-0.767 0-1.224 0.163-0.946 0.62-1.714 1.371-2.301 0.751-0.62 1.6-0.963 2.546-1.028 0.489-0.033 0.897-0.016 1.224 0.049l1.225 1.419c-0.359-0.392-0.783-0.588-1.272-0.588-0.229-0.097-0.409-0.179-0.539-0.245-0.196-0.065-0.229 0-0.099 0.196 0.457 0.816 0.979 1.485 1.566 2.007 0.49 0.457 0.85 0.751 1.078 0.881-0.882-0.358-1.6-0.849-2.154-1.469-0.425-0.489-0.8-0.849-1.126-1.077-0.327-0.294-0.457-0.327-0.392-0.098 0.098 0.261 0.44 0.767 1.027 1.518-0.326-0.032-0.652-0.212-0.979-0.538-0.522-0.556-0.865-0.719-1.028-0.49-0.229 0.163-0.392 0.311-0.489 0.441-0.196 0.228-0.147 0.521 0.146 0.881 0.489 0.522 1.143 1.109 1.958 1.763-0.521-0.196-0.995-0.457-1.42-0.783-0.946-0.751-1.387-1.045-1.321-0.882 0.098 0.262 0.31 0.588 0.637 0.979-0.196-0.163-0.393-0.311-0.588-0.44-0.359-0.262-0.49-0.294-0.392-0.099 0.13 0.262 0.424 0.67 0.881 1.225 0.49 0.587 0.897 0.995 1.225 1.224 0.946 0.783 1.207 1.077 0.783 0.881-0.196-0.032-0.522-0.162-0.979-0.392-0.555-0.293-0.93-0.555-1.126-0.783-0.163-0.229-0.392-0.424-0.686-0.587-0.293-0.196-0.424-0.262-0.392-0.196 0.229 0.326 0.897 1.126 2.008 2.399 1.403 1.6 2.399 2.545 2.986 2.84 0.392 0.195 1.11 0.783 2.154 1.763 0.946 0.848 1.665 1.321 2.154 1.42 1.142 0.261 2.35 0 3.622-0.784 0.947-0.62 1.616-1.24 2.008-1.86 0.327-0.522 0.653-1.257 0.98-2.204z" clip-rule="evenodd" fill="url(#r)" fill-rule="evenodd"/>
	<path d="m26.037 23.028c0.326 0.294 1.305 1.077 2.938 2.35 1.469 1.144 2.187 1.812 2.154 2.008 0 0.229-0.767-0.081-2.302-0.931-1.044-0.587-1.958-1.126-2.741-1.615-0.262-0.163-0.636-0.604-1.126-1.322-0.457-0.652-0.734-1.109-0.833-1.37-0.032-0.229 0.196-0.213 0.686 0.049 0.424 0.228 0.832 0.505 1.224 0.831z" clip-rule="evenodd" fill="#FFE49E" fill-rule="evenodd"/>
	<path d="m32.108 27.777c0.032-0.392 0.374-0.457 1.027-0.196 0.653 0.294 0.931 0.571 0.832 0.832-0.13 0.327-0.474 0.49-1.027 0.49-0.587 0-0.865-0.375-0.832-1.126z" clip-rule="evenodd" fill="#FFE49E" fill-rule="evenodd"/>
	<path d="m23.883 25.085c0.293 0.425 0.163 0.506-0.392 0.244-0.522-0.261-1.012-0.62-1.469-1.077-0.457-0.489-0.359-0.604 0.294-0.343 0.653 0.294 1.175 0.686 1.567 1.176z" clip-rule="evenodd" fill="#FFE49E" fill-rule="evenodd"/>
		<linearGradient id="s" x1="14.461" x2="26.911" y1="25.146" y2="18.996" gradientTransform="matrix(.9792 0 0 .9792 4.2502 5.55)" gradientUnits="userSpaceOnUse">
		<stop stop-color="#B3985D" offset="0"/>
		<stop stop-color="#B39B5A" offset="1"/>
	</linearGradient>
	<path d="m20.872 19.258c-0.18 0.094-0.384 0.241-0.612 0.441-0.49 0.424-0.8 0.946-0.93 1.566-0.196 0.783-0.229 1.485-0.098 2.105l1.616 2.154c1.272 1.632 2.35 2.888 3.23 3.77 2.057 2.122 3.297 3.231 3.721 3.33 1.11 0.293 1.633 0.342 1.567 0.146l1.126 1.126-0.979 0.489c-1.665-0.75-3.264-1.941-4.797-3.574-2.384-2.578-4.048-4.618-4.995-6.12l-0.832-1.469c-0.294-0.456-0.245-1.158 0.146-2.104 0.261-0.588 0.653-1.077 1.175-1.469 0.258-0.17 0.478-0.301 0.662-0.391z" clip-rule="evenodd" fill="url(#s)" fill-rule="evenodd"/>
		<linearGradient id="t" x1="28.847" x2="27.447" y1="30.989" y2="18.811" gradientTransform="matrix(.9792 0 0 .9792 4.2502 5.55)" gradientUnits="userSpaceOnUse">
		<stop stop-color="#BDA262" offset="0"/>
		<stop stop-color="#CFB46E" offset="1"/>
	</linearGradient>
	<path d="m34.997 26.161l0.734 1.813c0.195 1.566-0.539 3.215-2.203 4.944-1.046 1.077-2.105 1.615-3.183 1.615l-1.322-0.293c-0.392-0.392-0.702-0.897-0.931-1.518-0.456-1.306-0.261-2.612 0.588-3.917 1.045-1.633 2.416-2.562 4.113-2.79 0.849-0.098 1.583-0.049 2.204 0.146z" clip-rule="evenodd" fill="url(#t)" fill-rule="evenodd"/>
</svg>
