<?xml version="1.0" encoding="UTF-8"?>
<!DOCTYPE svg  PUBLIC '-//W3C//DTD SVG 1.1//EN'  'http://www.w3.org/Graphics/SVG/1.1/DTD/svg11.dtd'>
<svg enable-background="new 0 0 57.05 53.95" version="1.1" viewBox="0 0 57.05 53.95" xml:space="preserve" xmlns="http://www.w3.org/2000/svg">
<linearGradient id="a" x1="13.85" x2="60.65" y1="49.049" y2="49.049" gradientUnits="userSpaceOnUse">
	<stop stop-opacity=".4392" offset="0"/>
	<stop stop-opacity=".4392" offset="1"/>
</linearGradient>
<path d="m51.15 45.85c2.08 0.486 3.247 0.803 3.5 0.95 0.199 0.101 1 0.634 2.399 1.601l-0.149 0.099c-0.134 0.167-0.25 0.483-0.351 0.95-0.066 0.366-0.233 0.666-0.5 0.899-0.3 0.233-0.8 0.467-1.5 0.7-0.767 0.267-1.3 0.45-1.6 0.55-2 0.834-3.117 1.284-3.351 1.351-3.1 1.033-7.333 1.283-12.699 0.75-0.869-0.199-1.694-0.415-2.476-0.65 0.098 0.019 0.189 0.035 0.275 0.05 1.967 0.367 3.816 0.367 5.55 0 0.261-0.067 0.528-0.143 0.8-0.225 1.3-0.294 2.399-0.802 3.3-1.525 0.233-0.233 0.483-0.316 0.75-0.25 0.267 0.067 0.467 0.233 0.601 0.5 0.021-0.01 0.046-0.019 0.075-0.024 0.023-0.013 0.049-0.021 0.074-0.025 1.553-0.793 2.803-1.769 3.75-2.925 0.061-0.075 0.119-0.15 0.176-0.225 0.03-0.041 0.063-0.083 0.1-0.125 0.255-0.353 0.488-0.719 0.7-1.101 0.22-0.424 0.411-0.865 0.576-1.325zm-30.3-1.725c0.092 0.433 0.217 0.858 0.375 1.275l-1.925 0.05c-0.933-0.5-1.566-0.816-1.9-0.95l-0.3-0.2-0.05-0.024c0.357 0.096 0.657 0.171 0.9 0.225 0.02 0.016 0.036 0.032 0.05 0.05 0.047-4e-3 0.097-4e-3 0.15 0 0.22 0.033 0.386 0.05 0.5 0.05 0.533 0.034 1.117-0.066 1.75-0.3 0.011-0.029 0.02-0.063 0.025-0.1 0.143-0.02 0.285-0.046 0.425-0.076zm12.375 8.625c-0.108 0.025-0.199 0.075-0.274 0.15-0.202-0.102-0.368-0.227-0.5-0.375 0.269 0.086 0.528 0.162 0.774 0.225z" clip-rule="evenodd" fill="url(#a)" fill-rule="evenodd"/>
<path d="m26.9 5.3c0.971 0.885 1.705 1.727 2.2 2.525l-0.05 0.025c-0.351-0.57-0.817-1.17-1.4-1.8-0.24-0.255-0.49-0.505-0.75-0.75zm-7.3-4.6l-0.65-0.15c-0.066-0.019-0.133-0.035-0.2-0.05 0.278 0.054 0.561 0.121 0.85 0.2zm-19.15 13.85c-0.2-0.39-0.333-0.806-0.4-1.25-0.3-2 0.667-4.35 2.9-7.05 2.167-2.567 4.367-4.233 6.6-5 2.367-0.8 4.3-1.217 5.8-1.25 0.481 0 1.015 0.042 1.6 0.125-0.402-0.05-0.785-0.075-1.15-0.075-1.1-0.033-2.383 0.133-3.85 0.5v0.2c0.466 0.067 1.133 0.017 2-0.15 0.9-0.2 1.566-0.283 2-0.25-0.067 0.3 0 0.467 0.2 0.5 0.333 0 0.533 0.033 0.6 0.1 0.167 0.167 0.233 0.283 0.2 0.35-0.033 0.167-0.017 0.333 0.05 0.5 0.033 0.034 0.183 0.117 0.45 0.25 0.2 0.067 0.25 0.233 0.15 0.5-0.033 0.133-0.283 0.25-0.75 0.35-0.434 0.067-0.667 0.233-0.7 0.5 0.167 0.033 0.55 0.1 1.15 0.2 0.534 0.1 0.85 0.267 0.95 0.5 0.067 0.133 0.033 0.417-0.1 0.85l0.2 0.2-1.7 0.05c0.067 0.167 0.133 0.4 0.2 0.7-1.033 0.267-2.25 0.283-3.65 0.05 0.033 0.2-0.017 0.35-0.15 0.45-0.2 0.067-0.367 0.117-0.5 0.15l-2.05 0.6c-1.4 0.333-2.4 0.617-3 0.85-0.333 0.1-1.683 0.75-4.05 1.95-0.233 0.3-0.65 0.7-1.25 1.2s-1.017 0.883-1.25 1.15c-0.233 0.3-0.367 0.65-0.4 1.05-0.033 0.233-0.05 0.617-0.05 1.15l-0.05 0.05zm14-13c-0.733-0.066-1.217 0-1.45 0.2-0.233-0.067-0.333 0.033-0.3 0.3 0.066 0.267 0.267 0.434 0.6 0.5 0.833 0.233 1.217-0.1 1.15-1zm-3.4 2.35c-1.7 0.933-2.317 1.65-1.85 2.15-0.133 0.1-0.617 0.317-1.45 0.65-0.633 0.267-1.017 0.567-1.15 0.9 1.667 0.167 3.633-0.6 5.9-2.3 0.567-0.433 0.9-0.783 1-1.05 0.1-0.4-0.283-0.583-1.15-0.55l-0.05-0.05-0.9 0.05-0.3 0.2-0.5-0.3c0.267-0.167 0.717-0.367 1.35-0.6-0.867 0.067-1.483 0.033-1.85-0.1 0.267-0.367 0.867-0.633 1.8-0.8-0.2 0-0.316-0.083-0.35-0.25-0.033-0.233-0.083-0.383-0.15-0.45-0.066-0.066-0.417-0.1-1.05-0.1l-0.2-0.1c-0.933 0.633-1.633 1.083-2.1 1.35-0.933 0.467-1.717 1.017-2.35 1.65l0.2 0.15-0.25 0.4 0.6 0.05-1.2 0.75c0.267 0.067 0.833-0.05 1.7-0.35 0.467-0.167 1.05-0.383 1.75-0.65 1.2-0.367 2.05-0.583 2.55-0.65zm-4.75 2.1h-0.65c-0.133 0.167-0.167 0.383-0.1 0.65 1.1 0.1 1.617-0.133 1.55-0.7-0.333-0.1-0.6-0.083-0.8 0.05zm-2.45 0.45c-0.567-0.067-0.983 0.2-1.25 0.8l0.35 0.1c-0.333 0.333-0.583 0.6-0.75 0.8-0.267 0.3-0.4 0.6-0.4 0.9 0.4 0.033 0.833-0.217 1.3-0.75 0.633-0.733 1-1.133 1.1-1.2 0.433-0.033 0.667-0.15 0.7-0.35 0.1-0.4-0.1-0.533-0.6-0.4l-0.45 0.1zm0.35 2.2c0.333 0.1 0.617 0.017 0.85-0.25 0.2-0.267 0.267-0.566 0.2-0.9l-0.45 0.1c-0.4 0.4-0.6 0.75-0.6 1.05zm-0.625 8.55c-1.06-0.474-1.885-1.041-2.475-1.7 0.333 0.333 0.75 0.667 1.25 1l0.3 0.2c0.298 0.176 0.606 0.342 0.925 0.5z" clip-rule="evenodd" fill="#A37732" fill-rule="evenodd"/>
<path d="m1.1 15.5c-0.265-0.298-0.481-0.614-0.65-0.95l0.05-0.05c0-0.533 0.017-0.917 0.05-1.15 0.034-0.4 0.167-0.75 0.4-1.05 0.233-0.267 0.65-0.65 1.25-1.15s1.017-0.9 1.25-1.2c2.367-1.2 3.717-1.85 4.05-1.95 0.6-0.233 1.6-0.517 3-0.85l2.05-0.6c0.133-0.033 0.3-0.083 0.5-0.15 0.133-0.1 0.184-0.25 0.15-0.45 1.4 0.233 2.617 0.216 3.65-0.05-0.067-0.3-0.133-0.533-0.2-0.7l1.7-0.05-0.2-0.2c0.133-0.434 0.167-0.717 0.1-0.85-0.1-0.233-0.417-0.4-0.95-0.5-0.6-0.1-0.983-0.167-1.15-0.2 0.033-0.267 0.267-0.433 0.7-0.5 0.467-0.1 0.717-0.217 0.75-0.35 0.1-0.267 0.05-0.433-0.15-0.5-0.267-0.133-0.417-0.217-0.45-0.25-0.067-0.167-0.083-0.333-0.05-0.5 0.033-0.066-0.034-0.183-0.2-0.35-0.067-0.067-0.267-0.1-0.6-0.1-0.2-0.033-0.267-0.2-0.2-0.5-0.434-0.033-1.1 0.05-2 0.25-0.867 0.167-1.534 0.217-2 0.15v-0.2c1.466-0.367 2.75-0.533 3.85-0.5 0.365 0 0.749 0.025 1.15 0.075 0.385 0.057 0.793 0.132 1.225 0.225l0.575 0.15c0.067 0.015 0.134 0.031 0.2 0.05 0.3 0.2 0.433 0.383 0.4 0.55 0.333 0.233 0.85 0.433 1.55 0.6 0.767 0.2 1.3 0.383 1.6 0.55-0.1 0.133-0.15 0.233-0.15 0.3l0.15 0.3-1.8 0.05c0.133 0.133 0.5 0.283 1.1 0.45 0.534 0.167 0.883 0.383 1.05 0.65-0.167 0.067-0.3 0.117-0.4 0.15 0 0.267 0.167 0.5 0.5 0.7-0.133 0.033-0.55 0-1.25-0.1 0.233 0.333 0.383 0.517 0.45 0.55-0.2 0.067-0.533 0.1-1 0.1l0.1 0.9c-3.967 0.3-7.017 0.667-9.15 1.1-3.4 0.7-6.25 1.783-8.55 3.25-1.3 0.833-2.066 1.767-2.3 2.8-0.2 0.867-0.25 1.55-0.15 2.05z" clip-rule="evenodd" fill="#916A30" fill-rule="evenodd"/>
<path d="m19.6 0.7c1.236 0.373 2.586 1.056 4.05 2.05l1.1 1.8c0.033 0.067 0.017 0.217-0.05 0.45 0.1 0.133 0.333 0.217 0.7 0.25l0.2 0.65c-0.133 0.233-0.2 0.4-0.2 0.5-0.167 0.1-0.667 0.15-1.5 0.15-0.033 0.233 0.45 0.5 1.45 0.8 1.133 0.3 1.767 0.517 1.9 0.65 0.178 0.146 0.336 0.304 0.475 0.475-0.476 0.224-0.984 0.466-1.525 0.725h-0.025c-0.312-0.173-0.67-0.339-1.075-0.5-2.434-1-5.783-1.3-10.05-0.9-4 0.367-7.3 1.317-9.9 2.85-2.1 1.233-3.15 2.333-3.15 3.3 0 0.833 0.85 1.667 2.55 2.5 0.44 0.208 0.898 0.392 1.375 0.55l0.025 1.025c-0.861-0.214-1.652-0.489-2.375-0.825-0.319-0.158-0.627-0.324-0.925-0.5l-0.3-0.2c-0.5-0.333-0.917-0.667-1.25-1-0.1-0.5-0.05-1.183 0.15-2.05 0.233-1.034 1-1.967 2.3-2.8 2.3-1.467 5.15-2.55 8.55-3.25 2.133-0.433 5.183-0.8 9.15-1.1l-0.1-0.9c0.467 0 0.8-0.033 1-0.1-0.066-0.033-0.217-0.216-0.45-0.55 0.7 0.1 1.117 0.133 1.25 0.1-0.333-0.2-0.5-0.434-0.5-0.7 0.1-0.033 0.233-0.083 0.4-0.15-0.167-0.267-0.517-0.483-1.05-0.65-0.6-0.167-0.966-0.317-1.1-0.45l1.8-0.05-0.15-0.3c0-0.066 0.05-0.167 0.15-0.3-0.3-0.167-0.833-0.35-1.6-0.55-0.7-0.167-1.217-0.367-1.55-0.6 0.033-0.167-0.1-0.35-0.4-0.55l0.65 0.15z" clip-rule="evenodd" fill="#725525" fill-rule="evenodd"/>
<path d="m23.65 2.75l0.475 0.325c1.033 0.71 1.958 1.451 2.775 2.225 0.26 0.246 0.51 0.496 0.75 0.75 0.583 0.63 1.049 1.23 1.4 1.8-0.41 0.19-0.853 0.398-1.325 0.625-0.139-0.171-0.297-0.329-0.475-0.475-0.133-0.133-0.767-0.35-1.9-0.65-1-0.3-1.483-0.567-1.45-0.8 0.833 0 1.333-0.05 1.5-0.15 0-0.1 0.067-0.267 0.2-0.5l-0.2-0.65c-0.367-0.033-0.6-0.117-0.7-0.25 0.066-0.233 0.083-0.383 0.05-0.45l-1.1-1.8z" clip-rule="evenodd" fill="#5D451F" fill-rule="evenodd"/>
<path d="m11.1 3.9h-0.05c-0.5 0.067-1.35 0.283-2.55 0.65-0.7 0.267-1.283 0.483-1.75 0.65-0.867 0.3-1.433 0.417-1.7 0.35l1.2-0.75-0.6-0.05 0.25-0.4-0.2-0.15c0.633-0.633 1.417-1.184 2.35-1.65 0.467-0.267 1.167-0.716 2.1-1.35l0.2 0.1c0.633 0 0.983 0.034 1.05 0.1 0.067 0.067 0.117 0.217 0.15 0.45 0.033 0.167 0.15 0.25 0.35 0.25-0.933 0.167-1.533 0.433-1.8 0.8 0.367 0.133 0.983 0.167 1.85 0.1-0.633 0.233-1.083 0.433-1.35 0.6l0.5 0.3z" clip-rule="evenodd" fill="#B58A45" fill-rule="evenodd"/>
<path d="m24.1 10.6c0.197-0.183 0.414-0.357 0.65-0.525 0.018-0.014 0.035-0.03 0.05-0.05 0.406-0.285 0.865-0.561 1.375-0.825h0.025c0.541-0.259 1.049-0.501 1.525-0.725 0.472-0.227 0.915-0.435 1.325-0.625l0.05-0.025c2.31-1.112 3.659-1.754 4.051-1.925 0.107-0.049 0.199-0.091 0.274-0.125 0.088-0.031 0.155-0.057 0.2-0.075h0.025l5.975-1.575c0.39-0.022 0.765-0.031 1.125-0.025 0.167 0.867-1.566 2.367-5.2 4.5-0.5 0.167-1.033 0.083-1.6-0.25-0.867-0.434-1.334-0.667-1.4-0.7-0.875-0.231-1.941-0.015-3.2 0.65l-0.024 0.025c-0.358 0.183-0.733 0.408-1.126 0.675-0.025 0.017-0.05 0.034-0.075 0.05-0.397 0.268-0.772 0.51-1.125 0.725-1.316 0.792-2.316 1.201-3 1.225h-0.05l0.15-0.4zm-9.65-9.05c0.066 0.9-0.317 1.233-1.15 1-0.333-0.066-0.533-0.233-0.6-0.5-0.034-0.267 0.066-0.367 0.3-0.3 0.233-0.2 0.717-0.267 1.45-0.2zm-3.35 2.35l0.3-0.2 0.9-0.05 0.05 0.05c0.867-0.034 1.25 0.15 1.15 0.55-0.1 0.267-0.433 0.617-1 1.05-2.267 1.7-4.233 2.467-5.9 2.3 0.133-0.333 0.517-0.633 1.15-0.9 0.833-0.333 1.317-0.55 1.45-0.65-0.467-0.5 0.15-1.216 1.85-2.15h0.05zm-6.9 4.75c0-0.3 0.2-0.65 0.6-1.05l0.45-0.1c0.067 0.333 0 0.633-0.2 0.9-0.233 0.267-0.517 0.35-0.85 0.25zm-0.35-2.2l0.45-0.1c0.5-0.133 0.7 0 0.6 0.4-0.033 0.2-0.267 0.317-0.7 0.35-0.1 0.067-0.467 0.467-1.1 1.2-0.467 0.533-0.9 0.783-1.3 0.75 0-0.3 0.133-0.6 0.4-0.9 0.167-0.2 0.417-0.467 0.75-0.8l-0.35-0.1c0.267-0.6 0.683-0.867 1.25-0.8zm2.45-0.45c0.2-0.133 0.467-0.15 0.8-0.05 0.066 0.566-0.45 0.8-1.55 0.7-0.067-0.267-0.033-0.483 0.1-0.65h0.65z" clip-rule="evenodd" fill="#AE833D" fill-rule="evenodd"/>
<path d="m23.8 10.875c-0.078 0.049-0.161 0.09-0.25 0.125-0.194 0.069-0.395 0.119-0.6 0.15-0.514-0.041-0.864-0.083-1.05-0.125 0.163-0.188 0.513-0.429 1.05-0.725 0.466-0.3 0.683-0.75 0.65-1.35-0.267 0.466-0.617 0.833-1.05 1.1-0.5 0.267-0.966 0.333-1.4 0.2 0.267-0.667 0.383-1.15 0.35-1.45-0.551 0.695-1.034 1.178-1.45 1.45-0.121-0.028-0.246-0.045-0.375-0.05 0.066-0.24 0.125-0.424 0.175-0.55 0.066-0.333 0.083-0.633 0.05-0.9-0.291 0.517-0.707 1-1.25 1.45-0.787 0.014-1.553 0.039-2.3 0.075-0.067-0.201-0.1-0.459-0.1-0.775 0.067-0.867 0.083-1.45 0.05-1.75-0.3 0.867-0.533 1.45-0.7 1.75-0.4 0.7-0.883 1-1.45 0.9 0-0.767-0.133-1.417-0.4-1.95-0.033 0.167-0.133 0.617-0.3 1.35-0.143 0.428-0.309 0.694-0.5 0.8-0.081 0.043-0.164 0.06-0.25 0.05h-0.025c-0.194-0.055-0.386-0.271-0.575-0.65-0.267-0.567-0.417-0.867-0.45-0.9-0.066 0.233-0.117 0.517-0.15 0.85v0.9c-0.3-0.033-0.65-0.167-1.05-0.4-0.567-0.333-0.9-0.517-1-0.55 0.033 0.067 0.2 0.333 0.5 0.8 0.142 0.213 0.217 0.421 0.225 0.625-0.185 0.066-0.368 0.132-0.55 0.2-0.32-0.027-0.695-0.102-1.125-0.225-0.8-0.2-1.367-0.3-1.7-0.3 0.098 0.325 0.531 0.741 1.3 1.25-0.027 0.015-0.053 0.032-0.075 0.05-1.573-0.066-2.764-0.1-3.575-0.1 0.533 0.433 1.25 0.683 2.15 0.75h0.4c-0.114 0.091-0.239 0.191-0.375 0.3-0.468 0.148-1.11 0.198-1.925 0.15-1.133-0.066-1.9 0.017-2.3 0.25 0.2 0.133 0.717 0.25 1.55 0.35 0.767 0.067 1.233 0.2 1.4 0.4-0.067 0.033-0.434 0.05-1.1 0.05-0.467 0-0.733 0.133-0.8 0.4 0.4 0.2 0.9 0.316 1.5 0.35 0.249 0.022 0.565 0.039 0.95 0.05l0.025 1.75c-0.477-0.158-0.935-0.341-1.375-0.55-1.7-0.833-2.55-1.667-2.55-2.5 0-0.967 1.05-2.067 3.15-3.3 2.6-1.533 5.9-2.483 9.9-2.85 4.267-0.4 7.617-0.1 10.05 0.9 0.405 0.161 0.763 0.327 1.075 0.5-0.51 0.264-0.969 0.54-1.375 0.825 0.02-0.037 0.036-0.079 0.05-0.125-0.031 0.058-0.064 0.116-0.1 0.175-0.236 0.167-0.453 0.342-0.65 0.525-0.102 0.094-0.202 0.186-0.3 0.275zm15.15 41.1c-0.473 0.095-0.923 0.153-1.351 0.176-0.433 0-1.166-0.084-2.199-0.25-0.934-0.167-1.684-0.233-2.25-0.2-0.367 0.066-0.65 0.116-0.851 0.149-0.333 0.067-0.616 0.067-0.85 0-0.099-0.034-0.649-0.317-1.649-0.85-0.366-0.1-0.649-0.184-0.85-0.25-0.334-0.134-0.566-0.283-0.7-0.45-0.134-0.133-0.233-0.399-0.3-0.8-0.06-0.24-0.119-0.44-0.175-0.6 0.104-0.156 0.179-0.356 0.225-0.601 0.134 0.7 0.5 1.316 1.1 1.851 0.634 0.533 1.301 0.783 2 0.75 0.5-0.034 1.067-0.25 1.7-0.65 0.733-0.467 1.283-0.767 1.65-0.9 1.566-0.466 2.633-0.966 3.2-1.5 0.733-0.733 1.216-1.899 1.449-3.5 0.067-0.333 0.134-1.166 0.2-2.5 0.033-1.033 0.15-1.85 0.351-2.449 0.466-1.434 0.666-3.051 0.6-4.851-0.066-2.066-0.517-3.649-1.35-4.75-0.667-0.899-1.801-1.85-3.4-2.85-0.233-0.167-0.517-0.534-0.85-1.1-0.334-0.533-0.584-0.85-0.75-0.95-0.233-0.1-0.667-0.1-1.301 0-0.633 0.133-1.066 0.133-1.3 0-0.2-0.066-0.366-0.283-0.5-0.65-0.166-0.367-0.283-0.567-0.35-0.6-0.267-0.133-0.684-0.2-1.25-0.2-0.667 0.033-1.101 0.017-1.3-0.05l0.05-0.4 0.35-1.25h0.05c0.367 0.1 0.95 0.167 1.75 0.2 0.134 0.033 0.301 0.167 0.5 0.4 0.233 0.267 0.4 0.417 0.5 0.45 0.334 0.133 0.884 0.217 1.65 0.25 0.2 0.067 0.45 0.25 0.75 0.55 0.3 0.333 0.55 0.533 0.75 0.6 0.5 0.2 1.55 0.3 3.15 0.3 1.466-0.033 2.466 0.183 3 0.65 0.199 0.2 0.383 0.55 0.55 1.05 0.166 0.533 0.316 0.899 0.45 1.1 0.166 0.233 0.5 0.566 1 1 0.433 0.367 0.733 0.7 0.899 1 0.5 0.934 0.816 2.533 0.95 4.8 0.1 2.2-0.017 3.95-0.35 5.25-0.034 0.2-0.217 0.567-0.551 1.101-0.267 0.399-0.366 0.8-0.3 1.2 0.033 0.3 0.283 0.733 0.75 1.3 0.434 0.467 0.617 0.934 0.55 1.399-0.066 0.534-0.383 1.084-0.949 1.65-0.667 0.566-1.134 1-1.4 1.3-0.434 0.533-1.05 1.384-1.85 2.55-0.467 0.867-0.817 1.5-1.051 1.9-0.045 0.076-0.096 0.151-0.147 0.225zm-12.875-24.475c-0.542 1.151-1.234 2.568-2.075 4.25-1.733 3.634-2.783 6.517-3.15 8.65-0.084 0.479-0.143 0.929-0.175 1.35-0.28-0.104-0.555-0.271-0.825-0.5 0.032 0.228-1e-3 0.611-0.1 1.15-0.081-0.013-0.165-0.029-0.25-0.051-6e-3 0.039-0.015 0.072-0.025 0.101-0.93 0.031-1.805-0.136-2.625-0.5-1.067-0.566-1.967-1-2.7-1.3 0.033 0.466 0.25 0.916 0.65 1.35 0.233 0.2 0.65 0.483 1.25 0.85-0.134 0.053-0.267 0.095-0.4 0.125-0.338-0.149-0.555-0.225-0.65-0.225-0.167-0.033-0.333 0-0.5 0.1-0.139 0.069-0.264 0.111-0.375 0.125-0.217-0.036-0.442-0.094-0.675-0.175-0.867-0.333-1.6-0.833-2.2-1.5-0.065 0.219-0.09 0.427-0.075 0.625-0.525-0.168-0.983-0.159-1.375 0.025-0.367-0.4-0.983-0.617-1.85-0.65-0.489-0.017-0.881 0.033-1.175 0.15-0.381-0.077-0.656-0.144-0.825-0.2-0.215-0.123-0.44-0.215-0.675-0.275-0.029-0.011-0.054-0.02-0.075-0.024l-0.7-0.851c-0.16-0.202-0.31-0.41-0.45-0.625-0.242-0.407-0.459-0.866-0.65-1.375l0.05-3.05c0.013 0.79 0.347 1.739 1 2.851 0.667 1.166 1.367 1.966 2.1 2.399-0.267-0.967-0.4-1.666-0.4-2.1 0.7 0.8 1.4 1.316 2.1 1.55l-0.15-1.6c0.833 0.833 1.517 1.366 2.05 1.6-0.5-1.134-0.883-2.533-1.15-4.2-0.3-1.7-0.383-3.149-0.25-4.35 0.4 0.366 0.7 1.217 0.9 2.55 0.233 1.5 0.45 2.45 0.65 2.85 0.534 0.967 1.25 1.867 2.15 2.7 1.033 0.934 2.017 1.5 2.95 1.7-0.533-0.767-0.8-1.866-0.8-3.3 0.233 0.133 0.633 0.684 1.2 1.649 0.4 0.733 0.883 1.067 1.45 1 0.067-0.566 0.433-0.983 1.1-1.25 0.9-0.399 1.433-0.666 1.6-0.8 0.667-0.6 1.033-1.767 1.1-3.5 0.167-1.6 0.267-2.833 0.3-3.7 0.066-1.533-0.117-2.733-0.55-3.6-0.367-0.667-0.617-1.15-0.75-1.45-0.233-0.466-0.383-1-0.45-1.6-0.067-0.667-0.184-1.217-0.35-1.65-0.133-0.333-0.417-0.833-0.85-1.5-0.867-1.267-1.65-2.15-2.35-2.65-0.8-0.4-1.35-0.7-1.65-0.9-0.533-0.367-0.833-0.967-0.9-1.8-1 0.667-1.733 1.05-2.2 1.15-0.833 0.133-1.333-0.35-1.5-1.45-0.2 0.467-0.45 0.767-0.75 0.9-0.333 0.167-0.6 0.017-0.8-0.45-0.1 0.1-0.517 0.65-1.25 1.65-0.167-0.167-0.3-0.283-0.4-0.35-0.167-0.167-0.283-0.367-0.35-0.6l-0.25 0.401-0.05-2.15c0.233 0 0.45-0.083 0.65-0.25 0.233-0.233 0.433-0.383 0.6-0.45 0.267-0.1 0.767-0.267 1.5-0.5 0.2-0.1 0.45-0.267 0.75-0.5 0.267-0.2 0.5-0.333 0.7-0.4 0.067-0.034 0.2 0 0.4 0.1s0.35 0.133 0.45 0.1 0.267-0.133 0.5-0.3c0.2-0.167 0.367-0.267 0.5-0.3l1.7-0.25c0.333 0.034 0.733 0.05 1.2 0.05 0.1 0 0.133 0.15 0.1 0.45s0.033 0.483 0.2 0.55c0.233 0.066 0.6-0.05 1.1-0.35s0.883-0.45 1.15-0.45c0.133 0 0.45 0.117 0.95 0.35 0.5 0.2 0.883 0.3 1.15 0.3 0 0.066-0.033 0.617-0.1 1.65-0.034 0.8 0.017 1.35 0.15 1.65 0.167 0.4 0.5 0.783 1 1.15 0.533 0.434 0.9 0.817 1.1 1.15 0.233 0.434 0.417 1.117 0.55 2.05 0.167 0.967 0.35 1.667 0.55 2.1 0.233 0.5 0.767 1.2 1.6 2.1 0.767 0.867 1.283 1.583 1.55 2.15 0.044 0.099 0.086 0.198 0.125 0.3zm-5.225 16.575c-0.138-0.326-0.255-0.585-0.35-0.775 0.034 0.065 0.109 0.132 0.225 0.2h0.025c0.333-0.134 0.583-0.6 0.75-1.4 0.167-0.767 0.5-1.199 1-1.3 0.033 0.367 0 1.316-0.1 2.851 0.033 1.366 0.35 2.017 0.95 1.949 0.033-1.066 0.05-1.866 0.05-2.399 0.033-0.967 0.167-1.733 0.4-2.3-0.033 2.267-0.05 3.566-0.05 3.899 0.133 1.601 0.567 2.783 1.3 3.55 0.567 0.634 1.167 0.967 1.8 1 0.116 0 0.225-8e-3 0.325-0.024l-0.025 0.024c-0.233 0.334-0.467 0.551-0.7 0.65-0.167 0.066-0.45 0.1-0.85 0.1-0.314-0.025-0.556-0.018-0.725 0.025-0.026-0.012-0.051-0.021-0.075-0.025l-0.5-0.4c-0.039-0.059-0.081-0.117-0.125-0.175-0.642-0.586-1.2-1.194-1.675-1.825-0.031-0.016-0.064-0.032-0.1-0.05-0.159-0.231-0.317-0.498-0.475-0.801-0.194-0.404-0.386-0.871-0.575-1.399-0.193-0.543-0.359-1.001-0.5-1.375zm9.05 7.625c0.613 0.218 1.18 0.409 1.699 0.575-0.069 0.01-0.136 0.018-0.199 0.024h-0.05l-1.45-0.599zm-4.025-1.3c0.435 0.104 0.918 0.236 1.45 0.399l-0.025 0.026c-0.019 7e-3 -0.036 0.016-0.05 0.024l-0.35-0.1c-0.385-0.142-0.727-0.259-1.025-0.349z" clip-rule="evenodd" fill="#AF9765" fill-rule="evenodd"/>
<path d="m24.8 10.025c-0.015 0.02-0.032 0.037-0.05 0.05 0.036-0.059 0.069-0.117 0.1-0.175-0.014 0.046-0.031 0.088-0.05 0.125zm-1.85 1.125c0.205-0.031 0.405-0.081 0.6-0.15 0.089-0.035 0.172-0.076 0.25-0.125-0.094 0.11-0.186 0.219-0.275 0.325-0.204-0.017-0.395-0.034-0.575-0.05zm-15.175 2.05c1.798-0.867 4.374-1.3 7.725-1.3 2.5 0 4.383 0.267 5.65 0.8 0.663 0.271 1.146 0.654 1.45 1.15 0.023 0.555 0.173 1.114 0.45 1.675 0.02 0.179 0.036 0.37 0.05 0.575 0.066 2.167 0.4 3.917 1 5.25 0.167 0.367 0.483 0.816 0.95 1.35 0.534 0.6 0.867 1 1 1.2 0.357 0.509 0.691 1.009 1 1.5-0.248 0.562-0.573 1.262-0.975 2.1-0.04-0.102-0.082-0.201-0.125-0.3-0.267-0.567-0.784-1.284-1.55-2.15-0.833-0.9-1.367-1.6-1.6-2.1-0.2-0.434-0.383-1.133-0.55-2.1-0.133-0.934-0.317-1.617-0.55-2.05-0.2-0.333-0.567-0.716-1.1-1.15-0.5-0.367-0.833-0.75-1-1.15-0.133-0.3-0.184-0.85-0.15-1.65 0.066-1.033 0.1-1.583 0.1-1.65-0.267 0-0.65-0.1-1.15-0.3-0.5-0.233-0.816-0.35-0.95-0.35-0.267 0-0.65 0.15-1.15 0.45s-0.867 0.417-1.1 0.35c-0.167-0.067-0.233-0.25-0.2-0.55s0-0.45-0.1-0.45c-0.467 0-0.867-0.017-1.2-0.05l-1.7 0.25c-0.133 0.034-0.3 0.133-0.5 0.3-0.233 0.167-0.4 0.267-0.5 0.3s-0.25 0-0.45-0.1-0.333-0.133-0.4-0.1c-0.2 0.066-0.433 0.2-0.7 0.4-0.3 0.233-0.55 0.4-0.75 0.5-0.733 0.233-1.233 0.4-1.5 0.5-0.167 0.066-0.367 0.217-0.6 0.45-0.2 0.167-0.417 0.25-0.65 0.25l-0.05-0.35 1.875-1.5zm0.25-0.9c-0.13 0.065-0.255 0.132-0.375 0.2-0.164 0.09-0.381 0.24-0.65 0.45h-0.4c-0.9-0.067-1.617-0.317-2.15-0.75 0.811 0 2.002 0.033 3.575 0.1zm20.275 9.45c0.019-0.085 0.035-0.169 0.05-0.25 0.086-0.402 0.161-0.777 0.226-1.125 0.819 0.463 1.67 0.872 2.55 1.225 0.312 0.77 1.104 1.237 2.375 1.4 0.7 0.1 1.717 0.167 3.05 0.2 0.4 0.066 1.2 0.25 2.4 0.55 0.934 0.2 1.733 0.317 2.399 0.35 0.034 0.667 0.284 1.017 0.75 1.05 0.267 0.033 0.733 0.083 1.4 0.15 0.634 0.233 1.15 0.7 1.55 1.4 0.134 0.267 0.4 0.934 0.8 2 0.434 1.133 0.867 2.633 1.301 4.5 0.566 2.333 0.949 3.833 1.149 4.5 0.533 1.833 0.684 3.35 0.45 4.55-0.134 0.566-0.467 1.283-1 2.15-0.634 1-1.017 1.666-1.15 2-0.1 0.3-0.25 0.983-0.449 2.05-0.233 1-0.567 1.583-1 1.75-0.2 0.1-0.467 0.066-0.801-0.101-0.366-0.166-0.583-0.25-0.649-0.25-0.3 0.067-0.55 0.167-0.75 0.301-0.233 0.199-0.467 0.366-0.7 0.5-0.212 0.136-0.429 0.303-0.65 0.5h-0.05c-1.1 0.399-1.733 0.616-1.899 0.649-0.238 0.065-0.472 0.123-0.7 0.175 0.051-0.073 0.102-0.148 0.149-0.225 0.233-0.4 0.584-1.033 1.051-1.9 0.8-1.166 1.416-2.017 1.85-2.55 0.267-0.3 0.733-0.733 1.4-1.3 0.566-0.566 0.883-1.116 0.949-1.65 0.067-0.466-0.116-0.933-0.55-1.399-0.467-0.566-0.717-1-0.75-1.3-0.066-0.4 0.033-0.801 0.3-1.2 0.334-0.533 0.517-0.9 0.551-1.101 0.333-1.3 0.449-3.05 0.35-5.25-0.134-2.267-0.45-3.866-0.95-4.8-0.166-0.3-0.467-0.633-0.899-1-0.5-0.434-0.834-0.767-1-1-0.134-0.2-0.284-0.566-0.45-1.1-0.167-0.5-0.351-0.85-0.55-1.05-0.534-0.467-1.534-0.683-3-0.65-1.601 0-2.65-0.1-3.15-0.3-0.2-0.067-0.45-0.267-0.75-0.6-0.3-0.3-0.55-0.483-0.75-0.55-0.767-0.033-1.316-0.117-1.65-0.25-0.1-0.033-0.267-0.183-0.5-0.45-0.199-0.233-0.366-0.367-0.5-0.4-0.8-0.034-1.383-0.1-1.75-0.2h-0.053zm-6.4-10.725c-0.042-8e-3 -0.076-0.017-0.1-0.025-0.466-0.267-0.816-0.45-1.05-0.55-0.221-0.101-0.454-0.167-0.7-0.2 0.416-0.272 0.899-0.755 1.45-1.45 0.033 0.3-0.083 0.784-0.35 1.45 0.434 0.133 0.9 0.067 1.4-0.2 0.434-0.267 0.784-0.633 1.05-1.1 0.033 0.6-0.184 1.05-0.65 1.35-0.537 0.296-0.887 0.537-1.05 0.725zm-15.275 2.225c-0.241 0.215-0.517 0.465-0.825 0.75-0.367 0.3-0.55 0.533-0.55 0.7 0 0.205 0.217 0.296 0.65 0.275v0.275c-0.384-0.011-0.701-0.027-0.95-0.05-0.6-0.034-1.1-0.15-1.5-0.35 0.066-0.267 0.333-0.4 0.8-0.4 0.667 0 1.033-0.017 1.1-0.05-0.167-0.2-0.633-0.333-1.4-0.4-0.833-0.1-1.35-0.217-1.55-0.35 0.4-0.233 1.167-0.316 2.3-0.25 0.815 0.048 1.457-2e-3 1.925-0.15zm3-1.725c-0.508 0.212-1.017 0.454-1.525 0.725-0.77-0.509-1.203-0.925-1.3-1.25 0.333 0 0.9 0.1 1.7 0.3 0.43 0.123 0.805 0.198 1.125 0.225zm0.55-0.2c-8e-3 -0.204-0.083-0.412-0.225-0.625-0.3-0.467-0.467-0.733-0.5-0.8 0.1 0.033 0.433 0.217 1 0.55 0.4 0.233 0.75 0.367 1.05 0.4v-0.9c0.033-0.333 0.083-0.617 0.15-0.85 0.033 0.033 0.184 0.333 0.45 0.9 0.189 0.378 0.381 0.595 0.575 0.65-0.829 0.134-1.662 0.359-2.5 0.675zm8.475-1.125c0.543-0.451 0.959-0.934 1.25-1.45 0.033 0.267 0.017 0.567-0.05 0.9-0.051 0.126-0.109 0.31-0.175 0.55h-1.025zm-2.3 0.075c-1.042 0.066-2.042 0.157-3 0.275-0.134 0.015-0.268 0.031-0.4 0.05 0.191-0.106 0.357-0.373 0.5-0.8 0.167-0.733 0.267-1.183 0.3-1.35 0.267 0.533 0.4 1.183 0.4 1.95 0.567 0.1 1.05-0.2 1.45-0.9 0.167-0.3 0.4-0.883 0.7-1.75 0.034 0.3 0.017 0.883-0.05 1.75 0 0.316 0.033 0.574 0.1 0.775zm-0.7 32.7c0.133-0.03 0.266-0.072 0.4-0.125-0.6-0.366-1.017-0.649-1.25-0.85-0.4-0.434-0.617-0.884-0.65-1.35 0.733 0.3 1.633 0.733 2.7 1.3 0.82 0.364 1.695 0.531 2.625 0.5-0.122 0.537-0.463 0.838-1.025 0.899-0.637 0-1.121 0.025-1.45 0.075-0.364-0.056-0.665-0.131-0.9-0.225-0.173-0.086-0.324-0.161-0.45-0.224zm-1.525 0c-0.042 0.016-0.084 0.025-0.125 0.025-0.4 0.033-1.1-0.217-2.1-0.75-0.257-0.144-0.499-0.252-0.725-0.325-0.015-0.198 0.01-0.406 0.075-0.625 0.6 0.667 1.333 1.167 2.2 1.5 0.233 0.081 0.458 0.138 0.675 0.175zm6.55-1.225c-0.021 0.268-0.029 0.526-0.025 0.775-0.3-0.018-0.6-0.059-0.9-0.125 0.099-0.539 0.132-0.923 0.1-1.15 0.27 0.229 0.545 0.396 0.825 0.5zm11.25 10.625l-0.525-0.075c0.063-7e-3 0.13-0.015 0.199-0.024 0.114 0.034 0.222 0.067 0.326 0.099z" clip-rule="evenodd" fill="#917E54" fill-rule="evenodd"/>
<path d="m12.675 10.65h0.025c0.086 0.01 0.169-7e-3 0.25-0.05 0.132-0.019 0.266-0.036 0.4-0.05 0.958-0.118 1.958-0.209 3-0.275 0.747-0.036 1.513-0.061 2.3-0.075h1.025c0.129 5e-3 0.254 0.021 0.375 0.05 0.246 0.033 0.479 0.1 0.7 0.2 0.233 0.1 0.583 0.283 1.05 0.55 0.024 8e-3 0.058 0.017 0.1 0.025 0.186 0.042 0.536 0.084 1.05 0.125 0.18 0.016 0.371 0.033 0.575 0.05-0.182 0.228-0.34 0.461-0.475 0.7-0.15-0.082-0.317-0.165-0.5-0.25-1.233-0.583-2.758-0.908-4.575-0.975l-0.525-0.025c-0.733-4e-3 -1.517 0.029-2.35 0.1l-5.45 1.375c-0.805 0.357-1.555 0.782-2.25 1.275 0.124-0.069 0.249-0.136 0.375-0.2l-1.875 1.5v0.275c-0.433 0.021-0.65-0.07-0.65-0.275 0-0.167 0.183-0.4 0.55-0.7 0.309-0.285 0.584-0.535 0.825-0.75 0.136-0.108 0.261-0.208 0.375-0.3 0.269-0.21 0.486-0.36 0.65-0.45 0.12-0.068 0.245-0.135 0.375-0.2 0.022-0.018 0.048-0.035 0.075-0.05 0.508-0.271 1.017-0.513 1.525-0.725 0.182-0.067 0.365-0.134 0.55-0.2 0.838-0.316 1.671-0.541 2.5-0.675z" clip-rule="evenodd" fill="#C2AA78" fill-rule="evenodd"/>
<path d="m27.9 23.125c0.171-0.546 0.321-1.088 0.45-1.625-0.015 0.081-0.031 0.165-0.05 0.25l-0.35 1.25-0.05 0.125zm-23.85 16.35c-1.035-1.667-1.436-3.826-1.2-6.475 0.2-2.066 0.85-4.733 1.95-8 0.697-2.058 1.081-4.383 1.15-6.975l-0.025-1.025-0.025-1.75v-0.55l0.05 0.35 0.05 2.15 0.25-0.4c0.067 0.233 0.183 0.434 0.35 0.6 0.1 0.067 0.233 0.184 0.4 0.35 0.733-1 1.15-1.55 1.25-1.65 0.2 0.467 0.467 0.617 0.8 0.45 0.3-0.133 0.55-0.433 0.75-0.9 0.167 1.1 0.667 1.583 1.5 1.45 0.467-0.1 1.2-0.483 2.2-1.15 0.067 0.833 0.367 1.433 0.9 1.8 0.3 0.2 0.85 0.5 1.65 0.9 0.7 0.5 1.483 1.383 2.35 2.65 0.434 0.667 0.717 1.167 0.85 1.5 0.167 0.434 0.283 0.983 0.35 1.65 0.066 0.6 0.217 1.133 0.45 1.6 0.133 0.3 0.383 0.784 0.75 1.45 0.434 0.866 0.617 2.066 0.55 3.6-0.033 0.867-0.133 2.101-0.3 3.7-0.066 1.733-0.433 2.9-1.1 3.5-0.167 0.134-0.7 0.4-1.6 0.8-0.667 0.267-1.033 0.684-1.1 1.25-0.567 0.067-1.05-0.267-1.45-1-0.566-0.966-0.966-1.517-1.2-1.649 0 1.434 0.267 2.533 0.8 3.3-0.933-0.2-1.917-0.767-2.95-1.7-0.9-0.833-1.617-1.733-2.15-2.7-0.2-0.399-0.417-1.35-0.65-2.85-0.2-1.333-0.5-2.184-0.9-2.55-0.133 1.199-0.05 2.649 0.25 4.349 0.267 1.667 0.65 3.066 1.15 4.2-0.533-0.233-1.217-0.767-2.05-1.6l0.15 1.6c-0.7-0.233-1.4-0.75-2.1-1.55 0 0.434 0.133 1.133 0.4 2.1-0.733-0.434-1.433-1.233-2.1-2.399-0.653-1.111-0.987-2.061-1-2.851l-0.05 3.05c0.191 0.509 0.408 0.968 0.65 1.375zm2.225 2.375l-0.425-0.3c-0.185-0.169-0.376-0.361-0.575-0.575 0.235 0.061 0.46 0.152 0.675 0.275 0.168 0.057 0.444 0.123 0.825 0.2-0.223 0.094-0.39 0.227-0.5 0.4zm14.45 1.65c-6e-3 -0.102-0.015-0.201-0.025-0.3-0.027-0.21-0.043-0.435-0.05-0.675-4e-3 -0.249 4e-3 -0.508 0.025-0.775 0.033-0.421 0.091-0.871 0.175-1.35 0.233-0.134 0.633-0.351 1.2-0.65 1.2-0.733 2.067-1.583 2.6-2.55-0.133 0.1-0.333 0.149-0.6 0.149-0.333 0.034-0.55 0.067-0.65 0.101-0.033-0.467 0.184-1.033 0.65-1.7 0.267-0.366 0.667-0.9 1.2-1.6 0.032-0.046 0.066-0.096 0.1-0.15-0.939 3.146-0.972 5.446-0.1 6.9l0.25-0.7c0.533 0.833 0.833 1.866 0.9 3.1 0.9 0.066 1.633-0.05 2.2-0.35 0.601-0.3 1.15-0.851 1.65-1.65 0.2-0.3 0.4-0.95 0.6-1.95 0.667-1.199 1.134-2.116 1.4-2.75 0.4-1.033 0.583-2.8 0.55-5.3-0.066-2.833-0.633-4.2-1.7-4.1l-2.3 0.2c-0.3 0.262-0.592 0.578-0.875 0.949 0.286-0.594 0.444-1.044 0.476-1.35-0.667 0.667-1.15 1.083-1.45 1.25 0.066-0.566 0.216-1.367 0.45-2.4 0.267-1.1 0.434-1.917 0.5-2.45 0.2 0.067 0.633 0.083 1.3 0.05 0.566 0 0.983 0.066 1.25 0.2 0.066 0.033 0.184 0.233 0.35 0.6 0.134 0.367 0.3 0.583 0.5 0.65 0.233 0.133 0.667 0.133 1.3 0 0.634-0.1 1.067-0.1 1.301 0 0.166 0.1 0.416 0.417 0.75 0.95 0.333 0.566 0.616 0.933 0.85 1.1 1.6 1 2.733 1.95 3.4 2.85 0.833 1.101 1.283 2.684 1.35 4.75 0.066 1.8-0.134 3.417-0.6 4.851-0.2 0.6-0.317 1.416-0.351 2.449-0.066 1.334-0.133 2.167-0.2 2.5-0.233 1.601-0.716 2.767-1.449 3.5-0.567 0.534-1.634 1.034-3.2 1.5-0.367 0.134-0.917 0.434-1.65 0.9-0.633 0.4-1.2 0.616-1.7 0.65-0.699 0.033-1.366-0.217-2-0.75-0.602-0.533-0.968-1.149-1.102-1.849-0.046 0.244-0.122 0.444-0.225 0.601-0.043-0.101-0.085-0.184-0.125-0.25-0.064 0.064-0.223 0.289-0.475 0.675-0.1 0.017-0.208 0.024-0.325 0.024-0.633-0.033-1.233-0.366-1.8-1-0.733-0.767-1.167-1.949-1.3-3.55 0-0.333 0.017-1.633 0.05-3.899-0.233 0.566-0.367 1.333-0.4 2.3 0 0.533-0.017 1.333-0.05 2.399-0.6 0.067-0.917-0.583-0.95-1.949 0.1-1.534 0.133-2.483 0.1-2.851-0.5 0.101-0.833 0.533-1 1.3-0.167 0.801-0.417 1.267-0.75 1.4h-0.025zm0.125 0.575c0.141 0.374 0.307 0.832 0.5 1.375 0.189 0.528 0.38 0.995 0.575 1.399-0.277-0.474-0.511-0.957-0.7-1.449-0.158-0.417-0.283-0.843-0.375-1.275v-0.05zm-13.25-22.075c-0.167-0.967-0.217-1.683-0.15-2.15l-0.85-0.2c-0.233 0.567-0.434 1.467-0.6 2.7s-0.367 2.15-0.6 2.75c-0.3 0.733-0.483 1.867-0.55 3.4-0.1 1.566-0.283 2.7-0.55 3.4 0.5-0.733 0.784-1.667 0.85-2.801 0.067 0.967 0.35 2.767 0.85 5.401 0.333-0.634 0.5-1.634 0.5-3 0.033-1.467 0.15-2.483 0.35-3.05 0.066 0.1 0.267 0.283 0.6 0.55 0.2-0.533 0.316-1.316 0.35-2.35 0.034-1.133 0.05-1.933 0.05-2.4 0.033-0.467-0.05-1.217-0.25-2.25zm1.9 2.7c-0.033 2.1-0.017 3.833 0.05 5.2 0.1-0.167 0.333-0.45 0.7-0.851 0.233 0.733 0.567 1.851 1 3.351 0.433 1.3 0.983 2.366 1.65 3.199 0.2-0.399 0.267-1.116 0.2-2.149s-0.017-1.75 0.15-2.15c0.967 1.434 1.817 2.217 2.55 2.351 0.367-1.101 0.534-2.601 0.5-4.5-0.033-1.767-0.216-3.284-0.55-4.55-0.367-1.233-1-2.4-1.9-3.5-1.1-1.3-2.184-1.917-3.25-1.85l-1.05 0.2c0 1.166-0.017 2.916-0.05 5.249zm18.125 26.2c-0.11-0.028-0.218-0.053-0.325-0.075l0.025-0.025c0.1 0.033 0.2 0.066 0.3 0.1z" clip-rule="evenodd" fill="#D0B989" fill-rule="evenodd"/>
<path d="m22.6 13.85c-0.304-0.496-0.787-0.879-1.45-1.15-1.267-0.534-3.15-0.8-5.65-0.8-3.352 0-5.927 0.434-7.725 1.3-0.126 0.064-0.251 0.131-0.375 0.2 0.695-0.493 1.445-0.918 2.25-1.275l5.45-1.375c0.833-0.071 1.617-0.104 2.35-0.1l0.525 0.025c1.816 0.067 3.341 0.392 4.575 0.975 0.183 0.085 0.35 0.168 0.5 0.25-0.202 0.399-0.335 0.815-0.4 1.25-0.036 0.23-0.053 0.464-0.05 0.7zm0.725 2.15c0.284 0.458 0.65 0.917 1.1 1.375 0.277 2.591 0.902 4.482 1.875 5.675 0.405 0.499 0.78 0.974 1.125 1.425-6e-3 0.024-0.015 0.049-0.025 0.075l-0.15 0.4c-0.062 0.133-0.128 0.283-0.2 0.45-0.309-0.491-0.643-0.991-1-1.5-0.133-0.2-0.466-0.6-1-1.2-0.466-0.534-0.783-0.983-0.95-1.35-0.6-1.333-0.934-3.083-1-5.25-0.014-0.205-0.031-0.396-0.05-0.575 0.083 0.157 0.174 0.315 0.275 0.475zm2.55 34.4c-0.418-0.11-0.793-0.193-1.125-0.25 0.036-0.015 0.077-0.023 0.125-0.025 0.169-0.043 0.411-0.051 0.725-0.025 0.4 0 0.683-0.033 0.85-0.1 0.233-0.1 0.466-0.316 0.7-0.65l0.025-0.024c0.252-0.386 0.411-0.61 0.475-0.675 0.04 0.066 0.082 0.149 0.125 0.25 0.057 0.159 0.115 0.359 0.175 0.6 0.066 0.4 0.166 0.667 0.3 0.8 0.134 0.167 0.366 0.316 0.7 0.45 0.2 0.066 0.483 0.15 0.85 0.25 1 0.533 1.55 0.816 1.65 0.85 0.233 0.067 0.517 0.067 0.85 0 0.2-0.033 0.483-0.083 0.851-0.149 0.566-0.033 1.316 0.033 2.25 0.2 1.033 0.166 1.767 0.25 2.199 0.25 0.428-0.022 0.878-0.081 1.351-0.176 0.229-0.052 0.462-0.109 0.7-0.175 0.166-0.033 0.8-0.25 1.899-0.649h0.05c0.222-0.197 0.438-0.364 0.65-0.5 0.233-0.134 0.467-0.301 0.7-0.5 0.2-0.134 0.45-0.233 0.75-0.301 0.066 0 0.283 0.084 0.649 0.25 0.334 0.167 0.601 0.2 0.801 0.101 0.433-0.167 0.767-0.75 1-1.75 0.199-1.066 0.35-1.75 0.449-2.05 0.134-0.334 0.517-1 1.15-2 0.533-0.867 0.866-1.584 1-2.15 0.233-1.2 0.083-2.717-0.45-4.55-0.2-0.667-0.583-2.167-1.149-4.5-0.434-1.867-0.867-3.367-1.301-4.5-0.399-1.066-0.666-1.733-0.8-2-0.399-0.7-0.916-1.167-1.55-1.4-0.667-0.066-1.134-0.117-1.4-0.15-0.466-0.033-0.716-0.383-0.75-1.05-0.666-0.033-1.466-0.15-2.399-0.35-1.2-0.3-2-0.483-2.4-0.55-1.333-0.034-2.35-0.1-3.05-0.2-1.271-0.163-2.063-0.63-2.375-1.4 0.24 0.098 0.482 0.189 0.725 0.275l1.525 0.5c3.097 0.906 6.505 1.231 10.225 0.975l0.325-0.025c0.085-8e-3 0.168-0.016 0.25-0.025l3.9-0.525c0.05-9e-3 0.1-0.018 0.149-0.025 0.352-0.068 0.693-0.143 1.025-0.225-0.512 2.269-0.395 5.028 0.35 8.275 1.301 5.634 2 8.867 2.101 9.7 0.03 0.336 0.047 0.669 0.05 1 0.055 1.598-0.146 3.048-0.6 4.35-0.165 0.46-0.356 0.901-0.575 1.325-0.212 0.382-0.445 0.748-0.7 1.101-0.036 0.042-0.069 0.084-0.1 0.125-0.057 0.074-0.115 0.149-0.176 0.225-0.947 1.156-2.197 2.132-3.75 2.925-0.025 5e-3 -0.051 0.013-0.074 0.025-0.029 6e-3 -0.054 0.015-0.075 0.024-0.134-0.267-0.334-0.433-0.601-0.5-0.267-0.066-0.517 0.017-0.75 0.25-0.9 0.724-2 1.231-3.3 1.525-0.271 0.082-0.539 0.157-0.8 0.225-1.733 0.367-3.583 0.367-5.55 0-0.086-0.015-0.178-0.031-0.275-0.05-0.353-0.073-0.753-0.174-1.2-0.3-0.246-0.063-0.505-0.139-0.774-0.225-0.171-0.044-0.347-0.094-0.525-0.15-0.104-0.032-0.212-0.065-0.325-0.1-0.52-0.166-1.086-0.357-1.699-0.575-0.05-0.016-0.101-0.032-0.15-0.05-0.771-0.285-1.479-0.535-2.125-0.75-0.1-0.034-0.2-0.067-0.3-0.101-0.533-0.164-1.016-0.297-1.451-0.401zm-14.7-8.475c0.226 0.073 0.468 0.182 0.725 0.325 1 0.533 1.7 0.783 2.1 0.75 0.041 0 0.083-9e-3 0.125-0.025 0.111-0.014 0.236-0.056 0.375-0.125 0.167-0.1 0.333-0.133 0.5-0.1 0.095 0 0.312 0.075 0.65 0.225 0.126 0.063 0.277 0.139 0.45 0.226 0.235 0.094 0.536 0.169 0.9 0.225 0.33-0.05 0.813-0.075 1.45-0.075 0.562-0.062 0.903-0.362 1.025-0.899 0.01-0.028 0.019-0.062 0.025-0.101 0.085 0.021 0.169 0.038 0.25 0.051 0.3 0.066 0.6 0.107 0.9 0.125 7e-3 0.24 0.023 0.465 0.05 0.675 0.01 0.099 0.019 0.198 0.025 0.3-0.116-0.068-0.191-0.135-0.225-0.2 0.095 0.19 0.212 0.449 0.35 0.775v0.05c-0.14 0.03-0.282 0.056-0.425 0.075-5e-3 0.036-0.014 0.07-0.025 0.1-0.633 0.233-1.217 0.334-1.75 0.3-0.114 0-0.28-0.017-0.5-0.05-0.053-4e-3 -0.103-4e-3 -0.15 0-0.014-0.018-0.03-0.034-0.05-0.05-0.243-0.054-0.543-0.129-0.9-0.225-0.031-8e-3 -0.064-0.016-0.1-0.025-0.434-0.1-1.067-0.1-1.9 0-0.867 0.066-1.5 0.05-1.9-0.05-0.133-0.033-0.733-0.316-1.8-0.851-0.233-0.1-0.533-0.183-0.9-0.25-0.4-0.066-0.7-0.133-0.9-0.199-0.2-0.067-0.45-0.217-0.75-0.45-0.333-0.2-0.6-0.334-0.8-0.4-0.167-0.033-0.467-0.033-0.9 0-0.4 0.031-0.7 0.014-0.9-0.052 0.021-0.054 0.046-0.104 0.075-0.15 0.11-0.173 0.277-0.306 0.5-0.399 0.294-0.117 0.686-0.167 1.175-0.15 0.867 0.033 1.483 0.25 1.85 0.65 0.392-0.185 0.85-0.194 1.375-0.026z" clip-rule="evenodd" fill="#6A5D3D" fill-rule="evenodd"/>
<path d="m26.075 27.5c0.402-0.838 0.727-1.538 0.975-2.1 0.072-0.167 0.139-0.316 0.2-0.45l0.15-0.4c0.01-0.026 0.019-0.051 0.025-0.075l0.375-1.125 0.1-0.225 0.05-0.125-0.05 0.4c-0.066 0.533-0.233 1.35-0.5 2.45-0.233 1.033-0.383 1.833-0.45 2.4 0.3-0.167 0.783-0.583 1.45-1.25-0.031 0.306-0.189 0.756-0.476 1.35 0.283-0.371 0.575-0.688 0.875-0.949l2.3-0.2c1.067-0.101 1.634 1.267 1.7 4.1 0.033 2.5-0.149 4.267-0.55 5.3-0.267 0.634-0.733 1.551-1.4 2.75-0.199 1-0.399 1.65-0.6 1.95-0.5 0.8-1.05 1.351-1.65 1.65-0.566 0.3-1.3 0.416-2.2 0.35-0.066-1.233-0.367-2.267-0.9-3.1l-0.25 0.7c-0.872-1.454-0.839-3.754 0.1-6.9-0.034 0.055-0.068 0.104-0.1 0.15-0.533 0.699-0.933 1.233-1.2 1.6-0.466 0.667-0.683 1.233-0.65 1.7 0.1-0.033 0.317-0.066 0.65-0.101 0.267 0 0.467-0.05 0.6-0.149-0.533 0.967-1.4 1.816-2.6 2.55-0.566 0.3-0.966 0.517-1.2 0.65 0.367-2.134 1.417-5.017 3.15-8.65 0.842-1.683 1.534-3.1 2.076-4.251zm-16.575-2.8c0.033-2.333 0.05-4.083 0.05-5.25l1.05-0.2c1.066-0.067 2.15 0.55 3.25 1.85 0.9 1.1 1.533 2.267 1.9 3.5 0.333 1.267 0.517 2.784 0.55 4.55 0.034 1.899-0.133 3.399-0.5 4.5-0.733-0.134-1.583-0.917-2.55-2.351-0.167 0.4-0.217 1.117-0.15 2.15 0.066 1.033 0 1.75-0.2 2.149-0.667-0.833-1.217-1.899-1.65-3.199-0.433-1.5-0.767-2.617-1-3.351-0.367 0.4-0.6 0.684-0.7 0.851-0.067-1.366-0.083-3.099-0.05-5.199zm-1.9-2.7c0.2 1.033 0.283 1.783 0.25 2.25 0 0.467-0.017 1.267-0.05 2.4-0.033 1.034-0.15 1.817-0.35 2.35-0.333-0.267-0.534-0.45-0.6-0.55-0.2 0.566-0.317 1.583-0.35 3.05 0 1.366-0.167 2.366-0.5 3-0.5-2.634-0.783-4.434-0.85-5.4-0.067 1.133-0.35 2.067-0.85 2.8 0.267-0.7 0.45-1.834 0.55-3.4 0.066-1.533 0.25-2.667 0.55-3.4 0.233-0.6 0.434-1.517 0.6-2.75s0.367-2.133 0.6-2.7l0.85 0.2c-0.067 0.467-0.017 1.183 0.15 2.15z" clip-rule="evenodd" fill="#E2CC9D" fill-rule="evenodd"/>
<path d="m55.4 12.975l0.199 0.4c-1.316-1.026-2.282-1.718-2.899-2.075-1.2-0.7-2.334-1.017-3.4-0.95-0.666 0.066-1.217 0.283-1.649 0.65-0.467 0.4-0.733 0.917-0.801 1.55-0.066 0.534-0.133 0.867-0.199 1-0.067 0.133-0.284 0.367-0.65 0.7-0.04 0.035-0.082 0.069-0.125 0.1-0.505 0.452-0.896 0.802-1.175 1.05-0.467 0.467-0.8 0.934-1 1.4-0.033 0.1-0.167 0.633-0.4 1.6-0.166 0.633-0.434 1.117-0.8 1.45-0.7 0.667-1.717 1.033-3.05 1.1-2.334 0.2-5.483-0.067-9.45-0.8h-0.05c-0.438-0.093-0.863-0.209-1.275-0.35-1.059-0.355-2.05-0.889-2.975-1.6-0.466-0.366-0.9-0.766-1.3-1.2-0.53-0.573-0.997-1.206-1.4-1.9-0.087-0.149-0.171-0.299-0.25-0.45-0.019-0.066-0.036-0.133-0.05-0.2-0.037-0.189-0.062-0.372-0.075-0.55-0.03-0.69 0.129-1.349 0.475-1.975 0.126-0.247 0.285-0.488 0.475-0.725 0.022-0.034 0.047-0.067 0.075-0.1-2e-3 0.034-2e-3 0.067 0 0.1-0.022 0.275-0.047 0.617-0.075 1.025-0.025 0.275-0.05 0.583-0.075 0.925 0.1 0.367 0.367 0.883 0.8 1.55 0.024 0.04 0.049 0.082 0.075 0.125 0.017 0.026 0.033 0.051 0.05 0.075 0.1 0.152 0.208 0.302 0.325 0.45 0.619 0.77 1.502 1.52 2.65 2.25 0.429 0.286 0.887 0.544 1.375 0.775 0.768 0.36 1.609 0.651 2.524 0.875 1.5 0.4 2.9 0.55 4.2 0.45 0.566-0.034 1.184-0.2 1.85-0.5 0.367-0.2 0.934-0.483 1.7-0.85 0.4-0.167 0.95-0.383 1.65-0.65 0.5-0.3 0.816-0.75 0.95-1.35 0.033-0.2 0.05-0.717 0.05-1.55-0.033-0.667 0.05-1.183 0.25-1.55 0.115-0.174 0.383-0.432 0.8-0.775 0.063-0.06 0.13-0.118 0.2-0.175 0.467-0.367 0.75-0.733 0.85-1.1 0.066-0.333-0.184-1.367-0.75-3.1-0.467-1.4-0.35-2.233 0.35-2.5 0.633-0.233 1.483-0.217 2.55 0.05 0.707 0.354 1.398 0.729 2.075 1.125 1.195 0.714 2.328 1.498 3.399 2.35 0.42 0.333 0.828 0.674 1.226 1.025 1.15 1 2.067 1.942 2.75 2.825z" clip-rule="evenodd" fill="#825E28" fill-rule="evenodd"/>
<path d="m51.425 9.125c1.764 1.344 3.089 2.627 3.976 3.85-0.684-0.883-1.601-1.825-2.75-2.825-0.398-0.351-0.806-0.692-1.226-1.025zm-28.675 5.525l0.225 0.675c0.022 0.05 0.047 0.1 0.075 0.15 0.078 0.174 0.17 0.349 0.275 0.525-0.101-0.16-0.192-0.318-0.275-0.475-0.277-0.561-0.427-1.12-0.45-1.675-3e-3 -0.236 0.014-0.47 0.05-0.7 0.065-0.435 0.198-0.851 0.4-1.25 0.135-0.239 0.293-0.472 0.475-0.7 0.089-0.106 0.181-0.215 0.275-0.325 0.098-0.089 0.198-0.181 0.3-0.275l-0.15 0.4h0.05c0.684-0.024 1.684-0.433 3-1.225 0.353-0.215 0.728-0.457 1.125-0.725 0.025-0.016 0.05-0.033 0.075-0.05 0.393-0.267 0.768-0.492 1.125-0.675l0.025-0.025c1.259-0.665 2.325-0.881 3.2-0.65 0.066 0.033 0.533 0.267 1.4 0.7 0.566 0.333 1.1 0.417 1.6 0.25 3.634-2.133 5.367-3.633 5.2-4.5-0.36-6e-3 -0.735 2e-3 -1.125 0.025 0.749-0.065 1.44-0.057 2.075 0.025 1.747 0.231 3.855 1.106 6.325 2.625-0.677-0.396-1.368-0.771-2.075-1.125-1.066-0.267-1.917-0.283-2.55-0.05-0.7 0.267-0.817 1.1-0.351 2.5 0.566 1.733 0.816 2.767 0.75 3.1-0.1 0.367-0.383 0.733-0.85 1.1-0.07 0.057-0.137 0.115-0.2 0.175-0.417 0.343-0.685 0.601-0.8 0.775-0.2 0.367-0.283 0.883-0.25 1.55 0 0.833-0.017 1.35-0.05 1.55-0.134 0.6-0.45 1.05-0.95 1.35-0.7 0.267-1.25 0.483-1.65 0.65-0.767 0.367-1.333 0.65-1.7 0.85-0.666 0.3-1.283 0.466-1.85 0.5-1.3 0.1-2.7-0.05-4.2-0.45-0.915-0.224-1.757-0.515-2.524-0.875-0.488-0.231-0.947-0.489-1.375-0.775-1.148-0.73-2.031-1.48-2.65-2.25-0.118-0.148-0.226-0.298-0.325-0.45-0.017-0.024-0.033-0.049-0.05-0.075-0.026-0.043-0.051-0.085-0.075-0.125-0.433-0.667-0.7-1.184-0.8-1.55 0.025-0.342 0.05-0.65 0.075-0.925 0.027-0.408 0.052-0.75 0.075-1.025-2e-3 -0.033-2e-3 -0.066 0-0.1-0.027 0.033-0.053 0.066-0.075 0.1-0.19 0.236-0.349 0.478-0.475 0.725-0.346 0.626-0.505 1.285-0.475 1.975 0.013 0.178 0.038 0.361 0.075 0.55 0.014 0.067 0.031 0.133 0.05 0.2zm26.5 7.875c-0.332 0.082-0.674 0.157-1.025 0.225 0.35-0.074 0.691-0.158 1.025-0.25 0.143-0.028 0.284-0.062 0.425-0.1 0.128-0.032 0.253-0.065 0.375-0.1-0.263 0.08-0.529 0.156-0.8 0.225z" clip-rule="evenodd" fill="#976B2A" fill-rule="evenodd"/>
<path d="m31.85 21.875c-0.242-0.086-0.484-0.177-0.725-0.275-0.88-0.354-1.73-0.762-2.55-1.225-1.112-0.611-2.17-1.32-3.175-2.125-0.355-0.291-0.68-0.583-0.975-0.875-0.449-0.458-0.816-0.917-1.1-1.375-0.105-0.176-0.197-0.351-0.275-0.525-0.028-0.05-0.053-0.1-0.075-0.15l-0.225-0.675c0.079 0.151 0.163 0.301 0.25 0.45 0.403 0.694 0.87 1.327 1.4 1.9 0.4 0.435 0.834 0.834 1.3 1.2 0.924 0.711 1.916 1.244 2.975 1.6 0.412 0.141 0.837 0.257 1.275 0.35h0.05c3.967 0.733 7.116 1 9.45 0.8 1.333-0.067 2.35-0.434 3.05-1.1 0.366-0.333 0.634-0.817 0.8-1.45 0.233-0.967 0.367-1.5 0.4-1.6 0.2-0.466 0.533-0.933 1-1.4 0.278-0.248 0.67-0.598 1.175-1.05 0.043-0.031 0.085-0.065 0.125-0.1 0.366-0.333 0.583-0.567 0.65-0.7 0.066-0.133 0.133-0.466 0.199-1 0.067-0.633 0.334-1.15 0.801-1.55 0.433-0.367 0.983-0.583 1.649-0.65 1.066-0.067 2.2 0.25 3.4 0.95 0.617 0.357 1.583 1.049 2.899 2.075 0.031 0.022 0.065 0.047 0.101 0.075 0.5 0.767 0.816 1.45 0.95 2.05 0.429 1.772-0.188 3.297-1.851 4.575 0.659-0.527 1.159-1.103 1.5-1.725l-0.298-0.05c0-0.733-0.05-1.2-0.15-1.4-0.166-0.333-0.533-0.45-1.1-0.35-0.533 0.133-1.233 0.517-2.1 1.15-1.267 0.933-1.917 1.4-1.95 1.4-0.416 0.269-0.799 0.46-1.15 0.575-0.117 0.032-0.234 0.057-0.35 0.075l-1.65 0.1c-0.6 0.066-1.5 0.25-2.7 0.55-1.166 0.333-2.066 0.517-2.699 0.55-1.301 0.133-2.917 0.167-4.851 0.1-2.166-0.1-3.783-0.167-4.85-0.2-0.689-0.017-1.39-0.083-2.101-0.2-0.575-0.1-1.158-0.233-1.75-0.4-0.118-0.032-0.234-0.065-0.35-0.1 0.109 0.065 0.218 0.132 0.325 0.2 0.822 0.463 1.673 0.872 2.55 1.225 0.238 0.108 0.48 0.208 0.726 0.3z" clip-rule="evenodd" fill="#755729" fill-rule="evenodd"/>
<path d="m54.8 20.075c-0.834 0.65-1.917 1.225-3.25 1.725-0.479 0.182-0.979 0.348-1.5 0.5-0.122 0.035-0.247 0.068-0.375 0.1-0.141 0.039-0.282 0.072-0.425 0.1-0.334 0.092-0.676 0.176-1.025 0.25-0.05 7e-3 -0.1 0.016-0.149 0.025l-3.9 0.525c-0.082 9e-3 -0.165 0.018-0.25 0.025l-0.326 0.025c-3.72 0.256-7.128-0.069-10.225-0.975l-1.525-0.5c-0.246-0.092-0.487-0.192-0.725-0.3-0.877-0.354-1.728-0.762-2.55-1.225-0.107-0.068-0.216-0.135-0.325-0.2 0.115 0.035 0.231 0.068 0.35 0.1 0.592 0.167 1.175 0.3 1.75 0.4 0.711 0.117 1.411 0.183 2.101 0.2 1.066 0.033 2.684 0.1 4.85 0.2 1.934 0.067 3.55 0.034 4.851-0.1 0.633-0.034 1.533-0.217 2.699-0.55 1.2-0.3 2.101-0.483 2.7-0.55l1.65-0.1c0.115-0.018 0.232-0.043 0.35-0.075 0.352-0.114 0.734-0.306 1.15-0.575 0.033 0 0.684-0.467 1.95-1.4 0.866-0.633 1.566-1.017 2.1-1.15 0.566-0.1 0.934 0.017 1.1 0.35 0.099 0.2 0.149 0.667 0.149 1.4l0.3 0.05c-0.341 0.623-0.841 1.198-1.5 1.725z" clip-rule="evenodd" fill="#56401E" fill-rule="evenodd"/>
</svg>
