<?xml version="1.0" encoding="UTF-8"?>
<svg width="425.96" height="338.95" enable-background="new 0 0 425.958 338.95" viewBox="0 0 425.958 338.95" xmlns="http://www.w3.org/2000/svg">
 <g fill-rule="evenodd">
  <path d="m40.543,39.146c8.947,30.017 23.091,63.932 13.133,77.785-10.825,12.268-40.842-.145-52.532-8.802-7.071,4.331 25.689,33.192 46.471,29.729 26.985-1.731 27.13-13.999 29.006-16.163 29.584-50.077 10.391-41.563-19.626-80.961-6.059-16.889-18.039-5.922-16.452-1.593z" fill="#998177" stroke="#000" stroke-linecap="round" stroke-linejoin="round" stroke-miterlimit="2.4142" stroke-width=".5189"/>
  <path d="m122.95,52.424c-6.492-7.361-18.615-16.454-38.675-29.73-10.247,1.587-26.122,14.142-27.709,17.75 1.3,5.34 3.608,28.719 3.608,34.637l2.021,3.03c0,9.091-2.31,20.636-.145,29.729-.145,3.464 4.473,4.762 6.494,3.319 1.876,8.804 4.331,9.524 8.659,9.958 9.669-1.154 9.669-9.093 16.596-11.401 3.175,5.34 3.03,11.258 3.175,16.452-2.166,7.792-5.771,19.773-.867,27.565 4.186-23.957 6.927.72 8.228,3.03 1.009,3.897 1.875,9.09 6.494,10.823-5.917-36.946 8.082,13.566 9.093,14.144-1.011-6.35.721-14.866-.723-20.926 2.598,10.679 5.052,21.789 13.566,27.998 0-4.475-2.021-10.102-2.021-13.132 1.442,6.783 10.391,25.109 15.441,27.128-.722-5.771-5.484-16.592-7.071-21.212 4.328,6.061 10.678,20.204 18.039,21.649-.865-3.897-3.175-8.083-3.175-12.558 2.741,8.083 14.144,25.976 16.885,24.246-.723-3.463-3.319-12.41-4.186-16.74 3.032,7.505 9.813,15.584 16.164,14.14 0-3.03-1.589-8.224-1.589-11.109 .435,3.463.866,6.783 1.733,11.254 0,10.103 5.193,10.825 3.606,23.235v2.889c0,4.616 1.155,13.563 1.155,19.627 1.01,1.44 2.02,4.471 2.02,7.36l2.022,3.175c0,13.566-4.042,26.987-4.042,38.964l-5.34,7.506-3.03,5.916c.287.722 11.834,9.957 16.597,12.987 0-1.44 3.319-9.813 3.319-12.987 1.009-7.65 5.34-3.608 6.205-5.916-2.453-19.338-1.299-43.439 1.876-67.54 5.771-5.483 1.587-34.923 1.587-43.873 3.032-10.391 6.928-25.109 9.093-37.234-2.31,12.703-3.752,18.186-9.237,37.234 11.979-2.308 36.08-9.091 53.253-11.113 10.824-1.152 21.357-.574 37.233-.574 3.608,0 17.029.719 25.111,3.03 2.165,3.03 23.523,1.296 22.514-3.175 .432.434-39.11-41.563-10.824-49.356-4.329,0-24.1,9.091 10.824,49.356 12.41,7.791 49.066,47.477 55.849,67.251 2.454,18.471.434,26.983-7.358,48.055l2.741,2.023-9.235,13.854c7.792,4.471 11.689,6.924 19.481,10.387 1.299-2.452 2.453-7.79 2.453-15.295 2.743-.578 5.773-2.02 6.351-5.916 0-25.547 1.443-47.77 6.781-71.871 3.032-4.472 2.599-10.392-1.442-13.855-19.627-17.748-20.205-25.542-30.594-45.024 17.605-16.742 19.481-40.554 17.895-64.509-.723-5.053-9.235-17.318-12.41-19.482 9.956,8.369 12.266,19.191 12.41,19.626 2.165,0 2.165-2.454 1.731-4.331 2.453,3.321 4.618,4.909 4.329-1.154 1.587,1.298 1.3,2.888 3.753,1.732-6.639-14.144-12.844-22.514-21.647-30.596-23.955-23.955-58.592-23.955-95.971-16.163 0,0-93.372-16.452-121.95-6.496-7.359,2.599-13.853,9.958-20.06,10.825 .02-.011-28.27.856-37.07-18.626z" fill="#cb8c53" stroke="#000" stroke-linecap="round" stroke-linejoin="round" stroke-miterlimit="2.4142" stroke-width=".0741"/>
  <path d="m117.18,48.671c2.308,6.781 4.763,10.823 4.763,17.174l3.752,5.771h-3.752l-2.886,1.73c0,3.032-3.608,3.032-3.608,6.207l1.011,7.36c12.699,5.196 12.41,10.68 15.007,22.946 1.156,7.939.289,17.172 5.918,23.523 0,2.019 3.03-.433 3.03,1.587 7.793,8.946.867,12.988 10.392,2.164 0-5.338-10.392-16.307 3.897-11.689 1.874-2.019 15.729-13.131 19.048-5.772 6.494,0 6.063-9.524 15.587-13.421-1.299-1.587 2.165-5.34 3.896-1.876 2.743-3.175 1.876-8.804 1.876-13.566 .434-.434-.576-14.575 3.753-7.648 0-10.967 3.175-4.618-.578-12.99 1.012-2.597 7.217-6.35 10.391-6.35 2.311-2.886-26.12-1.73-15.441-5.771-8.657,1.009-6.781.145-15.007,3.319-5.341,2.021-9.093,5.627-14.577,7.792-9.524,4.185-22.368-1.154-30.018-4.762-6.928-2.021-8.658-9.38-10.392-12.123h-1.01c-.433,0-.866-1.443-1.298-1.443h-1.01c-1.3-.569-1.3-2.59-2.74-2.157m203.91,106.07c-1.154,5.051 5.484,19.917-6.205,20.783-30.307-9.958-50.222-5.197-60.324-2.023-23.09-3.897-28.863,19.916-36.656-5.916l-5.195,21.935c5.051,2.022 9.813,3.175 14.864,3.175 69.562-21.646 64.941-12.988 90.342-11.399 6.927.863 14.431,1.585 19.771-.578l-4.906-7.361c-6.35-10.101-6.205-13.854-6.205-23.522 1.587-1.876 5.771-7.214 9.235-7.214-3.16-5.2-17.45-.01-14.71,12.11m76.92-55.849 3.897,22.948s1.298,11.112 1.298,12.986c0,5.775-3.03,12.703-3.03,18.475-1.731,1.876-4.617,10.245-6.352,12.123 0,3.753-3.028,4.617-5.627,7.936l-5.051,5.775c-6.063,2.453-13.422,5.772-18.039,9.091l-5.484,2.742-4.907,1.445 6.783,1.007c3.319-1.875 16.597-6.638 21.647-6.638 1.731-2.019 4.186-1.445 5.916-1.445l2.888-4.472c4.906-1.878 11.834-15.875 13.853-21.214 3.6-11.56 11.97-45.9-7.8-60.769" fill="#be7d47"/>
  <path d="m56.707,40.157c-2.597-9.958-13.999-11.545-16.019-1.156 .722-26.554 39.832-22.223 40.265-15.73-8.804,5.483-17.03,7.506-24.246,16.886z" fill="#e6e6e6" stroke="#000" stroke-linecap="round" stroke-linejoin="round" stroke-miterlimit="2.4142" stroke-width=".2224"/>
  <path d="m204.05,259.08c-4.04,7.36-6.35,12.558-6.35,21.793l-.865,5.482-3.176,4.909c-.721,0-1.588,3.175-2.311,3.175 0,.866-1.009,3.463-1.729,4.326 0-4.615-1.732,6.064-1.732,10.396-3.176,3.319-5.484,6.634-7.36,12.409 8.081,6.061 9.669,9.091 14.433,11.833 3.751-10.388 3.175-19.049 9.669-18.182 0-3.03-1.154-18.33-.867-21.938-.434-8.079-.576,2.601.434-21.646 .145-5.053 1.876-16.018 2.165-22.083-.86,1.01-3.17,11.25-2.31,9.52m213.59-35.64c-.864,0 4.042,5.775 1.299,8.227l-3.751,11.977c-1.731,1.734-.867,7.361-2.599,8.229l-6.061.723-2.741,7.646c3.319,16.019-4.187,38.53-7.794,47.191 2.454,1.879 2.454-.719 3.318,1.156-.575.723-7.071,10.824-9.813,14.718 8.659,4.186 11.256,6.783 18.184,9.669 3.752-3.604 1.298-10.247 3.03-14.718 2.165-1.012 4.33-2.886 5.629-5.771 0-29.588 1.876-44.596 6.638-71.148 2.887-4.909 2.598-8.514.578-12.988l-5.93-4.92" fill="#fff"/>
  <path d="m227.43,219.11c4.187,4.904 13.566,58.445 21.214,75.187 2.743,3.03 3.319,7.216 1.156,10.969-1.156,1.444-2.311,4.042-3.319,5.482 0,1.59-1.012,7.506-1.012,7.506-6.928-2.02-11.256-3.175-17.605-7.506 9.091-7.36 3.608-13.421 6.35-17.174-3.753-20.782-9.524-30.596-20.349-51.951-3.608-3.898-3.319-10.825-4.474-14.722 0-34.637-4.328-23.813 16.597-27.132 1.3,4.9 2.89,13.41 1.44,19.33m119.06-27.71c9.38,23.957 14.864,33.771 14.864,62.343-6.205,17.607-7.792,23.668-16.885,38.534-3.897,1.586-10.968,7.936-12.557,12.844 2.021,0 11.113,3.03 16.741,10.391 1.876-2.312 3.031-7.36 5.34-12.269 3.319,1.878 7.216.433 9.093-4.476 0-32.899 16.596-38.675 25.687-64.65-10.37-9.51-25.96-31.88-42.27-42.7" fill="#fff" stroke="#000" stroke-linecap="round" stroke-linejoin="round" stroke-miterlimit="2.4142" stroke-width=".0741"/>
  <path d="m209.54,204.24c-.145,8.802 1.154,17.029 1.299,22.801l.145,7.506c.576,1.589.722,3.029 2.021,5.627 1.876,2.022 4.329,5.627 6.783,5.627 .434-1.008 0-2.452.72-3.175l5.485-.43c1.587-1.878-2.311-6.497-.867-8.083 3.175,0 4.908-4.475 4.908-7.794-1.444-2.164-1.444-4.905-3.175-6.927l.576-5.627c0-5.197-1.01-9.813-2.31-14.144-7.78,2.01-16.73-1.31-15.57,4.6m137.53-11.54c11.113,19.197 15.298,44.883 15.011,54.842-.146,2.018-.434,6.782-.434,8.66 2.163-.722 4.04-5.92 6.205-8.228l2.597,4.042v5.627c4.331,5.049 5.629-4.616 9.382-6.35 3.175-5.486 6.205-11.836 7.937-17.318-11.7-13.28-24.26-32.18-40.71-41.27" fill="#999"/>
  <path d="m179.38,321.57c-3.319,3.753-6.639,8.08-10.535,11.977 1.01,0 3.175-1.007 5.195-1.007l5.34-7.072c-2.021,1.441-5.34,7.072-7.505,10.103 9.814,2.163 24.821,4.326 23.668-1.879-5.79-3.61-13-9.38-16.17-12.12m50.94-13.42c-3.319,3.753-7.503,8.802-11.256,12.699 1.01,0 3.175-.723 5.195-.723l5.052-7.505c-2.021,1.444-5.196,7.22-7.361,10.246 9.526,2.167 24.68,1.878 23.523-4.327-3.89-5.92-11.11-10.39-15.15-10.39m102.03-3.46c-3.464,3.753-7.792,8.802-11.545,12.699 .866,0 3.175-.723 5.195-.723l5.34-7.501c-2.165,1.44-5.484,7.212-7.647,10.246 9.813,2.163 25.542,2.02 24.533-4.33-4.18-5.93-11.54-10.4-15.87-10.4m56.57,18.61c-3.897,3.897-6.352,8.661-10.536,12.559 1.01,0 3.608-.723 5.917-.723l5.773-7.506c-2.311,1.441-6.063,7.217-8.371,10.247 10.823,2.308 27.563,1.012 26.41-5.193-6.49-2.89-15.15-7.8-19.19-9.39" fill="#826d65" stroke="#000" stroke-linecap="round" stroke-linejoin="round" stroke-miterlimit="2.4142" stroke-width=".0741"/>
  <path d="m64.212,71.473c3.175-19.626 11.545-20.638 19.771-12.123l8.37,8.515c0,2.743.722,4.473 4.329,6.928 12.412,0 10.825,11.4 27.132,11.4 3.319,3.608 7.36,9.38 7.36,14.864 4.907,4.042 4.329,5.771 3.897,13.855 .432,10.247 6.637,15.442 12.121,24.102 0,7.359 12.268,13.419 12.268,20.78 9.669,5.484 23.379,7.504 23.379,30.594-12.989-10.102-7.938.578-2.165,11.258-4.763,0-2.886-2.022-7.072-2.022 1.443,3.319 1.443,4.042 3.897,5.631 1.731,1.875 6.061,4.331 5.195,7.068-9.671,0-13.276-9.087-15.731-13.132 0,2.89 3.319,12.847 3.608,15.589-4.328-.434-13.132-15.44-16.596-24.102 .723,4.62 1.731,8.228 3.175,12.699-7.217-.141-16.452-19.771-17.75-21.067 1.731,5.338 6.35,13.562 6.927,20.779-7.216-5.917-14.433-21.646-15.441-26.984 .575,3.749 1.587,9.524 1.587,12.41-8.659-4.908-11.545-21.215-12.701-25.834v18.762c-.72,1.011-7.503-26.555-10.102-27.421-1.299,1.009.722,9.237 1.011,13.855-7.216-3.463-6.783-20.492-10.68-24.536-2.021-1.296-2.597,7.363-3.319,9.237-3.464-4.329-3.752-13.999.145-25.397 .578-4.187-.434-15.011-3.03-17.174-2.021,0-5.918,4.473-10.102,8.804-2.886,1.298-5.051,3.462-10.68,1.443-2.164-2.021-3.751-4.908-4.329-8.948-1.298.434-2.454.434-4.762-.145-3.752-2.597-2.599-15.298-2.599-19.915l2.868-19.792z" fill="#fff" stroke="#000" stroke-linecap="round" stroke-linejoin="round" stroke-miterlimit="2.4142" stroke-width=".2224"/>
  <path d="m213.14,188.22c27.276,5.627 53.541-19.481 83.416-12.121 11.256,2.742 27.997,7.068 40.984,4.472 1.01.433 5.918,8.513 9.382,11.547-2.31,4.327-17.174,5.193-22.081,2.452-19.192-5.771-42.718-2.741-58.881-2.741-16.74,0-40.119,8.802-56.86,11.977-.28.29 2.02-8.66 4.04-15.59z" fill="#fff"/>
  <path d="m72.583,97.737c1.587-2.741 3.03-3.175 5.051-4.473-.723.145-.867-1.154-1.011-1.876-.865-1.154-1.732-1.299-3.03-.289-.434.289-1.154,1.443-1.299,2.021 0,.145.289,2.019.289,2.019v2.598z"/>
  <path d="m66.089,97.737c-.289-.72-1.156-2.308-1.876-3.317-1.156-1.589-1.732-1.011-2.166-.578-.578,1.296-.578,1.443-.867,2.308 1.877-.72 3.753.433 4.909,1.587z"/>
  <path d="m79.221,54.011c0,10.103 2.741,11.834 2.741,20.923 .578,0-6.494,10.971-5.916,10.971 0,1.875-1.011,3.028-1.011,4.905-3.753,4.329-4.762,11.689-4.762,17.174 0,2.742-.289,2.166-1.443,3.608 3.752,16.309 14.144,8.659 21.214.145 0,.578 2.597-2.888 4.186-2.021l4.329,7.361c.578.576 9.093,6.205 4.907,5.049l4.186,3.032c0,3.03-2.166,4.905 0,7.361 0,1.875 4.907,1.296 4.907,3.028 .434.722-3.175,4.909-3.175,5.484v1.298c1.009,2.455 7.358-1.298 8.513,1.732l5.34.723c.578,1.876 13.854.578 10.103,3.608 4.908,0 3.752,2.453 8.083,2.453 3.751,3.752 9.091,2.454 11.689,2.454l2.163,2.452h1.012l1.154-1.154c-3.175-3.752-8.516-8.657-8.516-14.142-3.174-8.228-4.039-6.205-10.246-15.298-.578-.723-1.588-3.753-2.165-9.237 0-3.03 1.155-4.907-1.01-7.359 .578-6.063-3.175-11.113-3.753-9.237-1.009-6.061-3.752-8.515-6.494-13.997l-9.09-1.301c-11.69-10.389-14.433-10.389-19.195-10.967-3.169-5.615-10.674-16.584-17.744-19.037z" fill="#d89c5f"/>
  <path d="m82.251,91.677c-1.154-4.475-7.216-7.072-8.371-6.062-5.195,3.752-3.897,5.34-10.536,2.454-1.587.433-1.298.72-1.876,2.021l-.288,6.06c.722-1.011.867-5.482 4.186,0 1.154,2.741.865,3.753 1.443,5.916 1.011.723 4.042.867 5.34-2.019 .722-2.021.722-5.196.144-6.928 .865-2.452 2.021-3.03 2.742,1.3 2.165,1.008 6.062-2.745 7.216-2.745z" fill="#999" stroke="#000" stroke-linecap="round" stroke-linejoin="round" stroke-miterlimit="2.4142" stroke-width=".7413"/>
  <path d="m85.282,102.21c-2.308,7.503-15.731,14.864-15.731-1.589 .289,3.177 1.732,6.063.578,9.526-.721,1.154-5.484,3.752-7.792-1.011" fill="none" stroke="#000" stroke-linecap="round" stroke-linejoin="round" stroke-miterlimit="2.4142" stroke-width=".0741"/>
  <path d="m113.42,52.133c-3.174-2.166-1.731-4.327-7.216-1.875-3.028,1.587-1.298,5.049-4.329,7.503 1.154,0 2.888-.432 4.042-.576 5.21,1.442 6.07-1.01 7.51-5.052m-49.063,16.02c-1.012-1.876-.145-3.608-2.455-5.629-1.298-1.009-2.741.72-2.452,2.166 .287.578.287,1.011.576,1.587 1.299,4.186 2.744,2.165 4.331,1.876" stroke="#000" stroke-linecap="round" stroke-linejoin="round" stroke-miterlimit="2.4142" stroke-width=".7413"/>
  <path d="m109.09,57.473c2.452-.287 4.328-2.452 4.04-4.762-.143-2.308-2.309-3.896-4.905-3.608-2.454.291-4.186,2.452-4.042,4.762 .15,2.31 2.46,3.897 4.91,3.608z" fill="#995549" stroke="#000" stroke-linecap="round" stroke-linejoin="bevel" stroke-miterlimit="2.4142" stroke-width=".2224"/>
  <path d="m60.459,68.585c1.01,1.3 2.31,1.156 2.886-.287s.289-3.752-.72-5.053c-.867-1.441-2.166-1.296-2.743.146-.721,1.442-.432,3.751.577,5.194z" fill="#995549" stroke="#000" stroke-linecap="round" stroke-linejoin="bevel" stroke-miterlimit="2.4142" stroke-width=".2224"/>
  <path d="m108.52,55.453c-1.009-.145-1.876-1.154-2.021-2.31-.143-1.441.867-2.739 2.31-2.884 1.299-.291 2.31.865 2.599,2.31 0,1.587-.867,2.884-2.165,3.03-.29,0-.58,0-.72-.146m-47.771,11.689c-.434-.865-.289-1.875 0-2.597 .289-1.01 1.154-1.154 1.587-.432 .578.719.578,2.163.289,3.028-.434,1.011-1.156,1.156-1.587.434-.145-.142-.289-.286-.289-.433"/>
  <path d="m107.79,52.133c-.432,0-.865-.287-.865-.721s.289-.722.723-.722c.289-.145.72.145.72.578 .16.434-.13.865-.57.865m-45.888,12.412c-.144-.289-.144-.578-.144-.865 .144-.289.289-.289.433-.145 .289.287.289.721.145,1.01s-.289.288-.434,0" fill="#fff"/>
  <path d="m145.75,73.782c-2.742,12.41-4.907,18.473-.289,22.368 26.843,5.485 17.463-86.013-24.533-46.469-.867-1.01-30.451-23.524-35.069-26.41 8.945-13.421 33.189-23.234 47.049-23.234 72.445,0 67.249,100.16 27.274,114.15-29.729,9.96-31.027-32.181-15.729-43.582 1.88-2.31 3.47.865 1.3,3.174z" fill="#998177" stroke="#000" stroke-linecap="round" stroke-linejoin="round" stroke-miterlimit="2.4142" stroke-width=".0741"/>
  <path d="m122.08,51.991c7.071-2.888 18.327-4.907 19.05-20.493-6.496,2.019-20.493-1.156-25.978,13.999 2.31,2.31 2.6,1.296 6.93,6.494m-63.497.578c-3.175.431-7.072.72-10.391,3.317 1.445,3.897 6.349,7.794 11.258,10.68 .576-1.733-1.732-12.845-.867-13.997" fill="#fff" stroke="#000" stroke-linecap="round" stroke-linejoin="round" stroke-miterlimit="2.4142" stroke-width=".7413"/>
  <path d="m117.03,46.362c1.588,0 2.888-2.599 2.888-3.608 .576-1.443.287-2.021 1.588-2.021 0,0 .432.578.432.72 .433,0 1.155-.574 1.298-.865 0-1.732 1.445-2.453 2.888-3.175 0,.291.145.722.145.865 .721,0 1.73-.574 2.165-1.009l1.299.436c1.01,0 2.308-1.734 3.175-2.023 .721-.143 1.729-.434 2.165,0l-.578.722c.721,0 2.02-.433 2.597.145 0,0-3.318,3.175-1.009,3.175v1.01l-3.319,3.608c-.867,0-2.021-.287-2.741-.287-.723.865-1.445,2.308-2.165,3.03-.578,0-1.732.723-2.166,1.296l-.578-.431-3.605,2.454c-.86-1.156-2.88-2.31-4.47-4.042m-60.612,8.368c-.72,0-1.443.578-2.163.578l-.434-.578c-.434.146-2.454,1.587-3.03,1.587-.434.578-.145.436.434.869 .576.287 2.019.432 2.452,1.01l.578,2.165-1.012-.291c0,2.888 3.319,1.878 4.475,3.465 .865,0 1.01,1.875 1.732,1.875 0-3.895-.867-8.08-1.156-11.977-.431,1.01-.576.723-1.876,1.297" fill="#e6e6e6"/>
  <path d="m186.59,39.434c10.102,37.666-16.74,53.108-28.573,49.789-4.906,6.063-4.041,6.494 1.154,9.093 14.72.432 20.349-3.03 27.853-20.638 1.3-9.958 4.33-25.545-.43-38.244m-88.463-7.361c4.04-16.739 51.663-43.726 87.165,5.196-18.759-48.201-73.312-43.582-99.29-13.998 3.034,1.875 7.941,5.772 12.127,8.802m46.903,41.421c-15.007,23.232 1.731,40.84 18.041,39.252-11.547,5.627-26.122,4.04-28.144-14.431-2.308-13.71 7.217-29.73 11.402-28.286 .14,1.151-1.3,3.461-1.3,3.461m-95.539-41.707c.434,11.111 4.764,20.06 7.505,30.593 10.68,48.634 7.072,52.245 5.629,56.571-16.886,16.452-41.275,8.659-59.604-4.473-3.03-3.03-3.464-7.65-1.443-5.629 23.234,14.144 45.315,18.039 52.82,7.216 2.164-4.329 4.618-10.967 1.299-26.698-2.597-11.256-4.907-20.06-8.804-32.472-1.3-3.753-5.34-15.151-6.062-18.473 .866-4.188 4.33-7.508 8.66-6.64" fill="#e6e6e6"/>
 </g>
</svg>
