<?xml version="1.0" encoding="UTF-8"?>
<svg viewBox="0 0 168.34718 95.194473" xmlns="http://www.w3.org/2000/svg" xmlns:xlink="http://www.w3.org/1999/xlink">
 <defs>
  <filter id="b">
   <feGaussianBlur stdDeviation="3.2897"/>
  </filter>
  <filter id="f" x="-.04699" y="-.12515" width="1.094" height="1.2503">
   <feGaussianBlur stdDeviation="2.5974"/>
  </filter>
  <linearGradient id="a">
   <stop stop-color="#977640" offset="0"/>
   <stop stop-color="#3d280a" stop-opacity="0" offset="1"/>
  </linearGradient>
  <linearGradient id="e" x1="368.67" x2="562.57" y1="92.356" y2="97.558" gradientTransform="matrix(-.25136 -.34551 .29567 -.2151 362.44 304.84)" gradientUnits="userSpaceOnUse">
   <stop offset="0"/>
   <stop stop-opacity="0" offset="1"/>
  </linearGradient>
  <radialGradient id="d" cx="452.8" cy="155.94" r="28.823" gradientTransform="matrix(2.6303 6.1449e-7 -.00506 2.6926 -1052.6 -365.61)" gradientUnits="userSpaceOnUse" xlink:href="#a"/>
  <radialGradient id="c" cx="455.78" cy="161.11" r="28.823" gradientTransform="matrix(-3.2548 .01268 -9.7842e-7 -3.3049 2021 617.52)" gradientUnits="userSpaceOnUse" xlink:href="#a"/>
 </defs>
 <g transform="matrix(.59514 0 0 .59514 3.6968e-8 17.232)">
  <path d="m271.05 13.171-3.875 1.3438c-13.343 18.837 12.539 30.4 2.4375 43.125-3.4602-1.7196-6.5329-2.4938-9.2812-2.5312-0.0751-14.475-25.184-27.602-13-41.188l-4.0938 0.40625c-12.164 17.971 13.691 25.761 13.312 41.219-18.977 4.9389-22.887 48.667-57.188 48.625-31.044-9.2003-107.59-7.5464-157.69-1.75-20.559 4.0778-66.034 9.3319-23.812 16.281 117.41 13.167 127.55-5.1826 205.84 3.4688 74.69 5.9989 32.765-5.6683 37.562-15.094 12.214-14.186 18.86-27.164 11.219-46.656 10.576-14.644-14.161-29.027-1.4375-47.25z" fill="#ccc18b" stroke="#000"/>
  <path d="m83.166 110.29c-22.238-3.9114-16.728-17.361 4.6441-19.157l92.881-11.61c39.339 6.2757 45.957 23.438 25.542 27.284-50.485 5.2997-74.112 12.581-123.07 3.483z" fill="#977640" stroke="#000"/>
  <path transform="matrix(.99841 .05644 -.05644 .99841 16.305 -84.731)" d="m130.03 130.03c3.0852 2.5031-1.852 5.3937-4.1603 5.1278-6.2554-0.72063-8.054-8.4495-6.0953-13.448 3.5036-8.9419 14.793-11.123 22.737-7.0628 11.657 5.958 14.271 21.219 8.0304 32.025-8.3182 14.402-27.674 17.453-41.313 8.9979-17.163-10.64-20.652-34.142-9.9654-50.601 12.943-19.934 40.618-23.861 59.889-10.933 22.71 15.236 27.077 47.098 11.9 69.177-17.522 25.491-53.582 30.296-78.465 12.868-28.274-19.803-33.518-60.068-13.835-87.754 22.081-31.059 66.555-36.743 97.042-14.803 29.803 21.448 38.785 62.642 22.536 95.192" fill="#977640" stroke="#000"/>
  <g stroke="#000">
   <path transform="matrix(.16998 0 0 .16998 249.75 -94.095)" d="m177.14 592.36c0 31.559-25.584 57.143-57.143 57.143s-57.143-25.584-57.143-57.143 25.584-57.143 57.143-57.143 57.143 25.584 57.143 57.143z" fill="#fff" stroke-width="5.6243"/>
   <path transform="matrix(.11375 0 0 .12956 256.38 -70.399)" d="m177.14 592.36c0 31.559-25.584 57.143-57.143 57.143s-57.143-25.584-57.143-57.143 25.584-57.143 57.143-57.143 57.143 25.584 57.143 57.143z" stroke-width="7.8749"/>
   <path transform="matrix(.04259 0 0 .04259 265.79 -22.632)" d="m177.14 592.36c0 31.559-25.584 57.143-57.143 57.143s-57.143-25.584-57.143-57.143 25.584-57.143 57.143-57.143 57.143 25.584 57.143 57.143z" fill="#fff" stroke-width="22.446"/>
  </g>
  <g stroke="#000">
   <path transform="matrix(.16998 0 0 .16998 227.07 -93.079)" d="m177.14 592.36c0 31.559-25.584 57.143-57.143 57.143s-57.143-25.584-57.143-57.143 25.584-57.143 57.143-57.143 57.143 25.584 57.143 57.143z" fill="#fff" stroke-width="5.8831"/>
   <path transform="matrix(.11375 0 0 .12956 233.7 -69.383)" d="m177.14 592.36c0 31.559-25.584 57.143-57.143 57.143s-57.143-25.584-57.143-57.143 25.584-57.143 57.143-57.143 57.143 25.584 57.143 57.143z" stroke-width="8.2374"/>
   <path transform="matrix(.04259 0 0 .04259 243.11 -21.616)" d="m177.14 592.36c0 31.559-25.584 57.143-57.143 57.143s-57.143-25.584-57.143-57.143 25.584-57.143 57.143-57.143 57.143 25.584 57.143 57.143z" fill="#fff" stroke-width="23.479"/>
  </g>
  <path d="m245.18 80.632c10.078 7.5277 18.622 5.2424 26.704 0" fill="none" stroke="#977640" stroke-linecap="round" stroke-linejoin="round" stroke-width="1.788"/>
  <path d="m77.1 28.511c-2.5912 30.857-5.4456 76.058 55.562 80.557 32.286-6.5539 37.645 13.256 53.192-36.43-75.562 62.498-137.04-29.881-56.351-85.464 6.1786-22.184-33.405 3.4542-52.402 41.337z" fill="url(#d)" filter="url(#b)"/>
  <path transform="matrix(.42727 0 0 .42113 -97.169 11.158)" d="m466.45 44.685c-21.709 82.519 33.201 129.66 89.09 128.63 32.286-15.585 47.025-22.529 51.279-65.647-66.396 115.08-212.51-99.88 7.0471-107.51-24.564-23.307-96.139-45.28-147.42 44.522z" fill="url(#c)" filter="url(#b)"/>
  <path d="m256.35 124.62c19.086-2.8576 22.775 3.5067 13.696-2.6736-22.659-15.424 1.0672-17.672 6.3057-47.113 3.0874-6.3897-19.123-29.979-48.054 12.123-21.741 27.985-99.222 21.825-99.374 29.976-0.12304 6.5978 109.78 8.4025 127.43 7.6869z" fill="url(#e)" filter="url(#f)"/>
 </g>
</svg>
