<?xml version="1.0" encoding="UTF-8"?>
<svg enable-background="new" version="1.1" viewBox="0 0 506.41 322.84" xmlns="http://www.w3.org/2000/svg" xmlns:xlink="http://www.w3.org/1999/xlink">
 <defs>
  <pattern id="w" xlink:href="#v" patternTransform="translate(718.68 332.94)"/>
  <linearGradient id="a">
   <stop stop-color="#b5ad94" offset="0"/>
   <stop stop-color="#d9d4c1" offset=".48963"/>
   <stop stop-color="#c6b98d" offset="1"/>
  </linearGradient>
  <pattern id="v" width="16.291914" height="14.404769" patternTransform="translate(691.89 313.3)" patternUnits="userSpaceOnUse">
   <path transform="matrix(.78018 .62555 -.62555 .78018 -337.52 -680.75)" d="m709.13 320.51a9.0914 4.5457 0 1 1 -18.183 0 9.0914 4.5457 0 1 1 18.183 0z" fill="#c2aa9e" opacity=".27397" stroke="#000" stroke-linecap="round" stroke-linejoin="round"/>
  </pattern>
  <filter id="n" color-interpolation-filters="sRGB">
   <feGaussianBlur stdDeviation="1.0605966"/>
  </filter>
  <filter id="o" color-interpolation-filters="sRGB">
   <feGaussianBlur stdDeviation="2.6333515"/>
  </filter>
  <filter id="p" color-interpolation-filters="sRGB">
   <feGaussianBlur stdDeviation="2.0443824"/>
  </filter>
  <filter id="q" color-interpolation-filters="sRGB">
   <feGaussianBlur stdDeviation="13.204141"/>
  </filter>
  <linearGradient id="r" x1="405.18" x2="385.73" y1="366.42" y2="256.42" gradientTransform="translate(26.786 19.643)" gradientUnits="userSpaceOnUse" xlink:href="#a"/>
  <linearGradient id="s" x1="530.28" x2="537.54" y1="217.12" y2="225.39" gradientUnits="userSpaceOnUse">
   <stop stop-color="#b5ad94" offset="0"/>
   <stop stop-color="#d9d4c1" offset=".58035"/>
   <stop stop-color="#c6b98d" offset="1"/>
  </linearGradient>
  <linearGradient id="t" x1="502.56" x2="563.36" y1="223.64" y2="223.64" gradientUnits="userSpaceOnUse">
   <stop stop-color="#b5ad94" offset="0"/>
   <stop stop-color="#d9d4c1" offset=".63145"/>
   <stop stop-color="#c6b98d" offset="1"/>
  </linearGradient>
  <linearGradient id="u" x1="542.33" x2="541.93" y1="269.62" y2="259.01" gradientUnits="userSpaceOnUse" xlink:href="#a"/>
  <radialGradient id="x" cx="269.98" cy="232.32" r="143.58" gradientTransform="matrix(1 0 0 .81663 0 42.602)" gradientUnits="userSpaceOnUse">
   <stop stop-color="#99643f" offset="0"/>
   <stop stop-color="#91694e" offset="1"/>
  </radialGradient>
  <radialGradient id="y" cx="525.86" cy="109.67" r="269" gradientTransform="matrix(1 0 0 .43774 0 61.662)" gradientUnits="userSpaceOnUse">
   <stop offset="0"/>
   <stop stop-opacity="0" offset="1"/>
  </radialGradient>
 </defs>
 <g transform="translate(-115.97 -110.35)">
  <path d="m564.46 323.25c-1.3184 13.77-7.9468 22.482-18.688 27.274-5.09 2.271-10.003 4.9381-15.152 7.0711-29.129 12.066-59.271 21.527-88.893 32.325-8.7571 3.1921-17.344 6.8936-26.264 9.5964-17.078 5.1747-34.497 9.2725-52.023 12.627-13.026 2.493-26.209 4.1452-39.396 5.5558-6.8819 0.7362-13.787 1.4988-20.708 1.5152-18.631 0.0444-32.099 3.988-53.033 3.5355-8.046-0.17389-18.218-1.6877-26.264-1.5152-19.719 0.42274-40.73-3.3828-57.579-13.637-12.136-7.3861-18.211-22.085-29.8-30.305-3.3916-2.4057-7.7289-2.8508-9.5964-6.566-2.5864-5.1453 3.0305-15.657 4.5457-16.668 1.5152-1.0102 1.9056-14.007 4.0406-20.708 1.7385-5.4564 5.9321-9.7114 10.102-13.637 5.5092-5.187 10.851-8.2296 18.183-10.102 109.49-27.956 224.06-29.637 335.88-45.962 9.778-1.4275 19.627-6.593 29.294-4.5457 13.706 2.9027 28.091 10.748 35.355 22.728 3.8565 6.3605 1.5507 14.8 2.0203 22.223 0.29782 4.7076 1.5067 9.5327 0.50508 14.142-0.3997 1.8394-2.346 3.177-2.5254 5.0508z" filter="url(#p)" opacity=".2363" stroke="#000" stroke-width="1px"/>
  <g transform="matrix(.99352 0 0 1 3.661 0)" stroke="#000" stroke-width="1px">
   <path d="m562.67 321.46c-1.3184 13.77-7.9468 22.482-18.688 27.274-5.09 2.271-10.003 4.9381-15.152 7.0711-29.129 12.066-59.271 21.527-88.893 32.325-8.7571 3.1921-17.344 6.8936-26.264 9.5964-17.078 5.1747-34.497 9.2725-52.023 12.627-13.026 2.493-26.209 4.1452-39.396 5.5558-6.8819 0.7362-13.787 1.4988-20.708 1.5152-18.631 0.0444-32.099 3.988-53.033 3.5355-8.046-0.17388-18.218-1.6877-26.264-1.5152-19.719 0.42273-40.73-3.3828-57.579-13.637-12.136-7.3861-18.211-22.085-29.8-30.305-3.3916-2.4057-7.7289-2.8508-9.5964-6.566-2.5864-5.1453 3.0305-15.657 4.5457-16.668 1.5152-1.0102 1.9056-14.007 4.0406-20.708 1.7385-5.4564 5.9321-9.7114 10.102-13.637 5.5092-5.187 10.851-8.2296 18.183-10.102 109.49-27.956 224.06-29.637 335.88-45.962 9.778-1.4275 19.627-6.593 29.294-4.5457 13.706 2.9027 28.091 10.748 35.355 22.728 3.8565 6.3605 1.5507 14.8 2.0203 22.223 0.29782 4.7076 1.5067 9.5327 0.50508 14.142-0.39971 1.8394-2.346 3.177-2.5254 5.0508z" fill="url(#r)"/>
   <path d="m562.67 321.46c-1.3184 13.77-7.9468 22.482-18.688 27.274-5.09 2.271-10.003 4.9381-15.152 7.0711-29.129 12.066-59.271 21.527-88.893 32.325-8.7571 3.1921-17.344 6.8936-26.264 9.5964-17.078 5.1747-34.497 9.2725-52.023 12.627-13.026 2.493-26.209 4.1452-39.396 5.5558-6.8819 0.7362-13.787 1.4988-20.708 1.5152-18.631 0.0444-32.099 3.988-53.033 3.5355-8.046-0.17389-18.218-1.6877-26.264-1.5152-19.719 0.42274-40.73-3.3828-57.579-13.637-12.136-7.3861-18.211-22.085-29.8-30.305-3.3916-2.4057-7.7289-2.8508-9.5964-6.566-2.5864-5.1453 3.0305-15.657 4.5457-16.668 1.5152-1.0102 1.9056-14.007 4.0406-20.708 1.7385-5.4564 5.9321-9.7114 10.102-13.637 5.5092-5.187 10.851-8.2296 18.183-10.102 109.49-27.956 224.06-29.637 335.88-45.962 9.778-1.4276 19.627-6.593 29.294-4.5457 13.706 2.9027 28.091 10.748 35.355 22.728 3.8565 6.3605 1.5507 14.8 2.0203 22.223 0.29782 4.7076 1.5067 9.5327 0.50508 14.142-0.3997 1.8394-2.346 3.177-2.5254 5.0508z" fill="url(#w)" opacity=".15411"/>
  </g>
  <path d="m563.95 309.39 9.5964 8.3338c0.11815 1.8268 0.46639 3.7687-2.0203 4.2931l-13.132-3.5355c-0.50508-4.714 1.3469-7.7445 5.5558-9.0914z" fill="#ccc5ae" stroke="#000" stroke-width="1px"/>
  <path d="m543.6 262.91c4.6858-2.6661 9.8792-4.317 15.91-4.2932 0.41937 2.1887 2.6222 4.3773 0 6.566l-9.5964 4.0406z" fill="#ccc5ae" stroke="#000" stroke-width="1px"/>
  <g transform="translate(20.714 18.571)" stroke="#000">
   <path d="m503.06 238.18 51.518-35.86 4.0406 6.566c-14.968 10.14-27.79 22.696-37.376 38.891-6.1105-3.4068-15.682-4.9865-18.183-9.5964z" fill="url(#s)" stroke-width="1px"/>
   <path transform="translate(-1.0714 -.71429)" d="m563.93 204.86c0 2.5642-1.9987 4.6429-4.4643 4.6429s-4.4643-2.0787-4.4643-4.6429 1.9987-4.6428 4.4643-4.6428 4.4643 2.0787 4.4643 4.6428z" fill="url(#t)" stroke-linecap="round" stroke-linejoin="round"/>
  </g>
  <path d="m532.64 321.91c-112.45 42.127-229.93 64.617-351.92 67.804-3.799 2.2407-4.5655-2.9074-0.74549 0.28572 125.4 5.8633 243.09-14.51 352.35-65.754z" color="#000000" enable-background="accumulate" fill="#ac9d93" filter="url(#n)" opacity=".43493" style="block-progression:tb;text-indent:0;text-transform:none"/>
  <g transform="translate(34.286 20)" fill="url(#u)" stroke="#000">
   <path d="m514.67 254.59c-5.6028 8.8146-1.2115 15.63 3.0305 22.476 13.498-7.7698 38.14-7.9646 54.296-9.5964l1.2627-8.5863c-20.31 2.4702-39.618-0.0682-58.589-4.2932z" stroke-width="1px"/>
   <path transform="matrix(1.3125 0 0 1.3125 -157.57 -5.6266)" d="m563.93 204.86c0 2.5642-1.9987 4.6429-4.4643 4.6429s-4.4643-2.0787-4.4643-4.6429 1.9987-4.6428 4.4643-4.6428 4.4643 2.0787 4.4643 4.6428z" stroke-linecap="round" stroke-linejoin="round" stroke-width=".7619"/>
   <path transform="translate(2.1429)" d="m576.43 263.08c0 0.39449-0.3198 0.71428-0.71429 0.71428-0.39448 0-0.71428-0.31979-0.71428-0.71428s0.3198-0.71429 0.71428-0.71429c0.39449 0 0.71429 0.3198 0.71429 0.71429z" stroke-linecap="round" stroke-linejoin="round" stroke-width="4"/>
  </g>
  <g stroke="#000" stroke-width="1px">
   <g transform="matrix(.99118 0 0 .98719 37.208 15.168)" filter="url(#o)" opacity=".83219">
    <path d="m278.8 338.69c33.783 5.9107 145.47-1.1537 133.34-74.246 0 0-12.328-135.29-151.02-148.49-61.06-5.8114-140.32 56.509-133.85 130.81 6.172 70.79 44.053 94.655 80.39 100.82 36.338 6.1673 71.132-8.8985 71.132-8.8985z"/>
    <path d="m179.3 254.34c-10.945-9.0481 11.908-17.219 11.9-3.6659-7e-3 10.387-11.779 18.974-20.115 12.167-9.7104-10.447-5.1551-31.054 9.2469-34.742 20.322-4.4036 37.755 20.418 29.222 38.584-7.7048 16.398-34.639 20.807-44.92 4.646-22.887-34.566 13.789-74.533 44.965-62.08 21.885 10.037 37.034 33.253 32.829 54.204-3.1262 18.079-15.152 37.707-33.161 40.09-11.366 2.6459-25.737 3.5975-35.556-4.7573-23.141-20.211-29.475-46.775-24.38-74.556 4.4741-29.748 40.444-57.598 63.882-58.378 41.677-4.603 88.639 22.791 96.796 68.673 7.1592 40.271-10.608 103.9-54.948 109.72"/>
   </g>
   <g transform="translate(34.791 8.4848)" fill="url(#x)">
    <path d="m278.8 338.69c33.783 5.9107 145.47-1.1537 133.34-74.246 0 0-12.328-135.29-151.02-148.49-61.06-5.8114-140.32 56.509-133.85 130.81 6.172 70.79 44.053 94.655 80.39 100.82 36.338 6.1673 71.132-8.8985 71.132-8.8985z"/>
    <path d="m179.3 254.34c-10.945-9.0481 11.908-17.219 11.9-3.6659-7e-3 10.387-11.779 18.974-20.115 12.167-9.7104-10.447-5.1551-31.054 9.2469-34.742 20.322-4.4036 37.755 20.418 29.222 38.584-7.7048 16.398-34.639 20.807-44.92 4.646-22.887-34.566 13.789-74.533 44.965-62.08 21.885 10.037 37.034 33.253 32.829 54.204-3.1262 18.079-15.152 37.707-33.161 40.09-11.366 2.6459-25.737 3.5975-35.556-4.7573-23.141-20.211-29.475-46.775-24.38-74.556 4.4741-29.748 40.444-57.598 63.882-58.378 41.677-4.603 88.639 22.791 96.796 68.673 7.1592 40.271-10.608 103.9-54.948 109.72"/>
   </g>
  </g>
  <path d="m270.47 292.09 58.562 34.281 3.7601-7.4184z" color="#000000" enable-background="accumulate" fill="#784421" style="block-progression:tb;text-indent:0;text-transform:none"/>
  <path d="m275.88 277.59-0.34375 0.96875 64.469 23.125 1.9637-6.6764z" color="#000000" enable-background="accumulate" fill="#784421" style="block-progression:tb;text-indent:0;text-transform:none"/>
  <path d="m277.97 261.91-0.21875 1 66.799 21.171 0.88881-7.1713z" color="#000000" enable-background="accumulate" fill="#784421" style="block-progression:tb;text-indent:0;text-transform:none"/>
  <path d="m345.62 249-67.875 12.906 0.1875 1 68.312-3z" color="#000000" enable-background="accumulate" fill="#784421" style="block-progression:tb;text-indent:0;text-transform:none"/>
  <path d="m332.56 212.96-58.06 35.51l0.46875 0.875 60.344-32z" color="#000000" enable-background="accumulate" fill="#784421" style="block-progression:tb;text-indent:0;text-transform:none"/>
  <path d="m288.69 179.44-25.875 51.594 0.875 0.46875 31.449-49.402z" color="#000000" enable-background="accumulate" fill="#784421" style="block-progression:tb;text-indent:0;text-transform:none"/>
  <path d="m255.49 173.85c-8.0452 0.70589-15.561-0.35246-24.931 4.771l3.8438 36.938 1-0.0937z" color="#000000" enable-background="accumulate" fill="#784421" style="block-progression:tb;text-indent:0;text-transform:none"/>
  <path d="m198.19 203.91-6.3676 8.6518 17.305 11.161 0.84375-0.53125z" color="#000000" enable-background="accumulate" fill="#784421" style="block-progression:tb;text-indent:0;text-transform:none"/>
  <path d="m193.34 247.38-10.875 0.40625 0.12334 6.8709 10.783-6.2772-0.0312-1z" color="#000000" enable-background="accumulate" fill="#784421" style="block-progression:tb;text-indent:0;text-transform:none"/>
  <path d="m194.78 271.47-8.0312 4.7188 2.9688 7.5 5.5938-11.344z" color="#000000" enable-background="accumulate" fill="#784421" style="block-progression:tb;text-indent:0;text-transform:none"/>
  <path d="m204.72 285.66-8.2373 10.259 4.0498 3.0532 5.125-12.969z" color="#000000" enable-background="accumulate" fill="#784421" style="block-progression:tb;text-indent:0;text-transform:none"/>
  <path d="m228.03 288.62-0.96875 0.21875 1.0734 25.051 5.9891-0.30068z" color="#000000" enable-background="accumulate" fill="#784421" style="block-progression:tb;text-indent:0;text-transform:none"/>
  <path d="m247.31 269.31 23.656 21.906 2.875-7.0312z" color="#000000" enable-background="accumulate" fill="#784421" style="block-progression:tb;text-indent:0;text-transform:none"/>
  <path d="m243.17 217.28-3.8252 28.818 0.84375 0.5625l14.82-22.69z" color="#000000" enable-background="accumulate" fill="#784421" style="block-progression:tb;text-indent:0;text-transform:none"/>
  <path d="m243.56 311.97-12.395 41.589 7.8327 1.8489 5.5625-43.312z" color="#000000" enable-background="accumulate" fill="#784421" style="block-progression:tb;text-indent:0;text-transform:none"/>
  <path d="m260.75 304-0.84375 0.53125l29.53 48.47c8.5918-2.3129 17.663-3.763 23.987-10.158z" color="#000000" enable-background="accumulate" fill="#784421" style="block-progression:tb;text-indent:0;text-transform:none"/>
  <path d="m210.16 308.38-26.46 13.888 4.2414 4.331 22.812-17.438z" color="#000000" enable-background="accumulate" fill="#784421" style="block-progression:tb;text-indent:0;text-transform:none"/>
  <path d="m189.72 283.69-21.781 4.0625 1.5832 5.2046 20.386-8.2671z" color="#000000" enable-background="accumulate" fill="#784421" style="block-progression:tb;text-indent:0;text-transform:none"/>
  <path d="m164.28 225.28c-1.9937 7.6168-2.4772 14.856-2.5824 22.001l20.801-4.6571 0.65625-0.75z" color="#000000" enable-background="accumulate" fill="#784421" style="block-progression:tb;text-indent:0;text-transform:none"/>
  <path d="m190.02 173.95-4.6168 5.5794l15.85 20.47 0.78125-0.59375z" color="#000000" enable-background="accumulate" fill="#784421" style="block-progression:tb;text-indent:0;text-transform:none"/>
  <path d="m223.78 144.66 14.878-8.4784-8.0658 42.51-0.0312-0.0625z" color="#000000" enable-background="accumulate" fill="#784421" style="block-progression:tb;text-indent:0;text-transform:none"/>
  <path d="m277.16 124.56-6.25 50.375 1 0.0937 29.91-49.952s-7.1251-0.75113-24.66-0.51699z" color="#000000" enable-background="accumulate" fill="#784421" style="block-progression:tb;text-indent:0;text-transform:none"/>
  <path d="m364.84 144.72-56.125 44.688 0.625 0.78125 67.582-37.745z" color="#000000" enable-background="accumulate" fill="#784421" style="block-progression:tb;text-indent:0;text-transform:none"/>
  <path d="m428.12 212.09-85.03 23.41l0.25 0.96875 86.971-19.655z" color="#000000" enable-background="accumulate" fill="#784421" style="block-progression:tb;text-indent:0;text-transform:none"/>
  <path d="m346.41 258.91-0.15625 1 101.55 21.304-0.86692-8.2826z" color="#000000" enable-background="accumulate" fill="#784421" style="block-progression:tb;text-indent:0;text-transform:none"/>
  <path d="m337.25 311.78-0.5625 0.84375 48.625 30.875 23.575-8.2171z" color="#000000" enable-background="accumulate" fill="#784421" style="block-progression:tb;text-indent:0;text-transform:none"/>
  <path transform="matrix(.3209 .19999 -.19999 .3209 213.17 53.296)" d="m782.87 127.88c0 25-73.256 158.18-285.78 38.104-106.51-60.17-228.25-66.429-228.25-91.428 0-25 113.66-82.628 263.73-68.433 121.79 11.52 250.29 96.763 250.29 121.76z" fill="#e9c6af" fill-rule="evenodd" filter="url(#q)" opacity=".099315" stroke="url(#y)"/>
 </g>
</svg>
