<svg id="Ebene_2" data-name="Ebene 2" xmlns="http://www.w3.org/2000/svg" xmlns:xlink="http://www.w3.org/1999/xlink" viewBox="0 0 359.26 262"><defs><style>.cls-1{fill:#cbbb9d;}.cls-2{fill:#1a171b;}.cls-3{fill:#fff;}.cls-4{fill:#673b15;}.cls-5{fill:#7c4d25;}.cls-6{stroke:#1a171b;stroke-miterlimit:10;stroke-width:1.18px;fill:url(#radial-gradient);}.cls-7{fill:url(#radial-gradient-2);}.cls-8{opacity:0.2;}</style><radialGradient id="radial-gradient" cx="365.09" cy="338.97" r="0" gradientUnits="userSpaceOnUse"><stop offset="0" stop-color="#fff"/><stop offset="1"/></radialGradient><radialGradient id="radial-gradient-2" cx="433.84" cy="330.18" r="66.32" gradientUnits="userSpaceOnUse"><stop offset="0" stop-color="#ca9e64"/><stop offset="1" stop-color="#7c4d25"/></radialGradient></defs><path class="cls-1" d="M293.45,279.21c-.32,39.72-6.47,2.87-6.47,2.87s-2.27-42.84-14-61.47c-8.51,3.76-18,1.72-22.3-5.22a14.46,14.46,0,0,1-2-9.41c8.4-2.7,22.35-5.82,36.42-2.9a27.29,27.29,0,0,1-7.22,15.83A119.18,119.18,0,0,1,293.45,279.21Z" transform="translate(-248.01 -156.7)"/><path class="cls-2" d="M294.53,279.22c0,2.94-.07,5.9-.2,8.85-.07,1.48-.15,3-.29,4.46-.07.74-.15,1.49-.27,2.25a14,14,0,0,1-.53,2.35,5.19,5.19,0,0,1-.32.7,2.65,2.65,0,0,1-.31.42,1.7,1.7,0,0,1-.76.45,1.54,1.54,0,0,1-1-.09,1.91,1.91,0,0,1-.31-.19,2.53,2.53,0,0,1-.22-.19,3.18,3.18,0,0,1-.5-.66,11.85,11.85,0,0,1-1-2.24c-.49-1.46-.86-2.9-1.21-4.35-.69-2.89-1.26-5.78-1.77-8.71v-.13c-.16-2.61-.37-5.25-.62-7.87s-.53-5.24-.86-7.86c-.17-1.31-.32-2.62-.51-3.92l-.57-3.91-.64-3.9c-.2-1.3-.48-2.59-.72-3.88s-.48-2.59-.78-3.87l-.85-3.85-.94-3.83c-.29-1.28-.72-2.52-1.07-3.79l-.54-1.89-.62-1.86-.63-1.86-.32-.93-.37-.91c-.52-1.19-1-2.43-1.5-3.62l-1.76-3.51h0l.62.19c-.69.26-1.36.58-2.08.78a17.36,17.36,0,0,1-2.14.59,20.46,20.46,0,0,1-2.19.38c-.74.07-1.48.14-2.22.14a18.24,18.24,0,0,1-2.22-.11,20.73,20.73,0,0,1-2.21-.35,20.26,20.26,0,0,1-2.14-.65,18.72,18.72,0,0,1-2-.9c-.33-.17-.64-.39-1-.58a5.85,5.85,0,0,1-.93-.63c-.29-.23-.61-.44-.88-.69l-.83-.77c-.28-.25-.5-.56-.75-.83a7.4,7.4,0,0,1-.7-.89l-.65-.94-.52-1a15.13,15.13,0,0,1-.87-2.09,10.4,10.4,0,0,1-.31-1.09,7.93,7.93,0,0,1-.22-1.1,13.8,13.8,0,0,1-.21-2.23,18.57,18.57,0,0,1,.11-2.24l0-.33.32-.09c1.48-.42,3-.93,4.45-1.29l2.25-.57c.75-.21,1.51-.33,2.27-.49l2.27-.47c.76-.15,1.53-.24,2.3-.36l2.3-.34c.76-.11,1.54-.15,2.31-.22l2.31-.2c.77-.1,1.55-.05,2.32-.08l2.33,0a18,18,0,0,1,2.32.07l2.32.15a19.8,19.8,0,0,1,2.32.21l4.6.72.46.07-.06.46-.31,2.25-.5,2.19-.7,2.15-.85,2.08c-.33.68-.68,1.34-1,2s-.77,1.29-1.16,1.93c-.2.32-.44.61-.66.92l-.67.91c-.48.58-1,1.13-1.49,1.7h0l.08-.59,2,3.41,1,1.71c.32.57.6,1.17.9,1.76l1.79,3.54c.64,1.16,1.08,2.41,1.62,3.62l1.54,3.67c.46,1.24.89,2.49,1.32,3.74l1.27,3.77,1,3.85,1,3.85.72,3.91.7,3.92c.25,1.3.3,2.63.46,3.94l.4,4,.2,2,.06,2Zm-2.16,0-.28-7.8-.07-1.95-.22-1.93-.44-3.88c-.17-1.29-.23-2.59-.5-3.86l-.72-3.83-.73-3.83-1-3.77-1-3.78-1.21-3.7c-.41-1.23-.77-2.48-1.19-3.71l-1.39-3.65c-.49-1.2-.89-2.44-1.43-3.63l-1.55-3.59c-1-2.41-2.2-4.74-3.26-7.14l-.15-.35.23-.24h0c.47-.55,1-1.07,1.42-1.63l.64-.87c.21-.29.44-.57.63-.88.38-.62.77-1.23,1.13-1.86s.66-1.29,1-1.94l.83-2,.66-2.07.49-2.12.29-2.14.4.53-4.52-.71a19.32,19.32,0,0,0-2.28-.21l-2.28-.15a17.47,17.47,0,0,0-2.29-.06l-2.29,0c-.76,0-1.53,0-2.29.07l-2.28.2c-.76.08-1.53.11-2.28.22l-2.27.34c-.76.12-1.52.21-2.27.35l-2.24.47c-.75.16-1.51.28-2.24.48l-2.23.57c-1.49.36-2.94.86-4.41,1.28l.35-.42a18.47,18.47,0,0,0-.11,2.1,13.32,13.32,0,0,0,.2,2.09,6.07,6.07,0,0,0,.21,1,8.19,8.19,0,0,0,.28,1,14.07,14.07,0,0,0,.79,1.92l.53.95.58.85a7.31,7.31,0,0,0,.65.82c.24.26.44.55.7.78l.77.71c.26.24.55.43.82.65a8.32,8.32,0,0,0,.87.59c.3.17.59.38.9.53a15.07,15.07,0,0,0,1.93.85,16,16,0,0,0,2,.61,18.53,18.53,0,0,0,2.09.33,16.57,16.57,0,0,0,2.11.11c.71,0,1.41-.06,2.12-.13s1.4-.18,2.09-.36a20.51,20.51,0,0,0,2-.56c.68-.2,1.32-.51,2-.76l.43-.16.19.35h0l2.1,3.44c.64,1.17,1.2,2.39,1.78,3.6l.43.91.37.94.74,1.86.73,1.87.61,1.91c.39,1.28.86,2.54,1.18,3.83l1.06,3.86c.33,1.29.6,2.59.9,3.89s.55,2.61.8,3.92.53,2.61.74,3.92l.66,3.93.58,3.95c.2,1.31.35,2.64.53,3.95q.5,4,.88,7.93c.25,2.65.49,5.28.64,8v-.13c.48,2.87,1,5.75,1.7,8.57.34,1.41.7,2.82,1.14,4.15a10.15,10.15,0,0,0,.76,1.8,1,1,0,0,0,.16.23s0,0,0,0l-.08,0a.73.73,0,0,0-.48,0,.53.53,0,0,0-.29.16v0a1.74,1.74,0,0,0,.14-.3,12.14,12.14,0,0,0,.43-1.94c.11-.69.19-1.41.26-2.12.14-1.44.23-2.89.3-4.35C292.28,285.06,292.34,282.14,292.37,279.2Z" transform="translate(-248.01 -156.7)"/><path class="cls-3" d="M274.58,206.87c.37,4.24-5,8.16-11.94,8.77s-12.91-2.32-13.28-6.55,5-8.16,11.93-8.77S274.2,202.64,274.58,206.87Z" transform="translate(-248.01 -156.7)"/><path class="cls-2" d="M264.26,206.41c.19,2.19-2.57,4.22-6.18,4.54s-6.69-1.2-6.88-3.4,2.58-4.22,6.18-4.54S264.07,204.22,264.26,206.41Z" transform="translate(-248.01 -156.7)"/><path class="cls-4" d="M285.11,203.08c-14.07-2.92-28,.2-36.42,2.9a20.38,20.38,0,0,1,9.89-14.63c9.09-5.58,20.29-3.87,25,3.82A13,13,0,0,1,285.11,203.08Z" transform="translate(-248.01 -156.7)"/><path class="cls-2" d="M285,203.58c-1.57.07-3.11,0-4.66-.08a21.59,21.59,0,0,0-2.27,0c-.74,0-1.49,0-2.23-.05l-1.11,0c-.37,0-.75,0-1.12,0l-2.26,0c-.76,0-1.51,0-2.26.06l-2.26.16c-.75.06-1.51.08-2.26.17l-2.25.28c-.75.09-1.51.15-2.26.27l-2.25.37c-.75.13-1.51.21-2.25.38l-2.25.43c-1.5.26-3,.64-4.5.93l-.83.15.18-.69h0c.16-.57.3-1.13.44-1.7a13.78,13.78,0,0,1,.56-1.64l.3-.81.37-.77a13.72,13.72,0,0,1,.8-1.52c.3-.49.62-1,.91-1.45s.69-.91,1-1.36l.53-.67.59-.62c.4-.4.76-.84,1.19-1.22a24.61,24.61,0,0,1,2.65-2.12,21.55,21.55,0,0,1,2.92-1.76l1.55-.7,1.61-.58a23.48,23.48,0,0,1,3.32-.76,18.39,18.39,0,0,1,3.4-.22,16.36,16.36,0,0,1,1.71.11,12.09,12.09,0,0,1,1.69.25,11.83,11.83,0,0,1,1.66.41,11.61,11.61,0,0,1,1.62.59,15,15,0,0,1,5.55,4,12.75,12.75,0,0,1,1.92,2.89,14.94,14.94,0,0,1,1.1,6.86l0,.43Zm-.38-1.16a15.11,15.11,0,0,0,0-2.69,11.09,11.09,0,0,0-.75-3.19,11.42,11.42,0,0,0-1.71-2.84,13.86,13.86,0,0,0-2.4-2.32,14,14,0,0,0-2.89-1.71,11.13,11.13,0,0,0-1.57-.62,13.11,13.11,0,0,0-1.63-.45,13.44,13.44,0,0,0-1.66-.3,11.91,11.91,0,0,0-1.69-.13,19.11,19.11,0,0,0-3.38.18,22.12,22.12,0,0,0-3.32.74l-1.6.55-1.56.69a22,22,0,0,0-2.92,1.73,20.8,20.8,0,0,0-2.67,2.11c-.42.38-.78.82-1.17,1.23l-.58.63c-.18.22-.33.46-.5.68-.32.47-.68.91-1,1.4s-.54,1-.81,1.49a15,15,0,0,0-.66,1.55l-.31.78-.21.82a16.08,16.08,0,0,0-.51,3.29h0l-.65-.54c1.44-.56,2.87-1.18,4.36-1.63l2.23-.71c.74-.25,1.5-.4,2.26-.61l2.27-.56c.76-.17,1.53-.29,2.3-.44l2.31-.4c.77-.13,1.56-.18,2.34-.27l2.34-.24c.78-.1,1.56-.06,2.35-.1l2.36,0c.39,0,.78,0,1.18,0l1.19.1c.79.07,1.58.17,2.37.25a17.42,17.42,0,0,1,2.33.38C282.05,201.58,283.35,202,284.65,202.42Z" transform="translate(-248.01 -156.7)"/><path class="cls-1" d="M296,323.94S288.8,345.4,277.6,350.2s-32.66-40.13-10.4-60c26.54-23.69,46.4-30.4,67.2-20.8s13.6,56,26.4,65.6,44.06,27.41,87.11,25.57c50.61-2.17,63.35,1.05,86.65,4.13,21.62,2.85,43.79,1.5,71.32-1.32-22.53,21-54.12,38.48-94.16,39.73-72.89,2.28-101.67,15.39-141.32,14.29-19.23-.53-49.78-4.81-64.8-35.2a289,289,0,0,1-17.23-42.44" transform="translate(-248.01 -156.7)"/><path class="cls-2" d="M296.49,324.1a71.38,71.38,0,0,1-6.37,14.53,42.09,42.09,0,0,1-4.6,6.56,22.65,22.65,0,0,1-6.24,5.29l-.93.5-.23.12a1.23,1.23,0,0,1-.18.08l-.12,0c-.16.06-.28.11-.48.17a5.68,5.68,0,0,1-2.44.12,9.27,9.27,0,0,1-4-1.79,24.29,24.29,0,0,1-5.54-6,52.31,52.31,0,0,1-6.66-14.54,53.22,53.22,0,0,1-2.21-15.83,35.58,35.58,0,0,1,3.68-15.61,28,28,0,0,1,4.69-6.63,35.83,35.83,0,0,1,3-2.73l3-2.58a146.83,146.83,0,0,1,12.6-9.6c2.16-1.53,4.46-2.84,6.73-4.2l3.52-1.86c1.18-.62,2.42-1.11,3.63-1.67a50.14,50.14,0,0,1,15.44-4,41.43,41.43,0,0,1,15.88,1.78l1.91.61c.64.2,1.24.49,1.86.74l1.85.76.47.2c.25.1.32.16.49.24l.86.47a12,12,0,0,1,1.74,1.11c.28.2.58.4.85.62l.77.68.77.69.7.75a16.26,16.26,0,0,1,1.31,1.57c3.34,4.34,5.15,9.48,6.59,14.56a154.82,154.82,0,0,1,3.16,15.5c.85,5.18,1.61,10.37,2.74,15.44a50.2,50.2,0,0,0,2.16,7.42,15.81,15.81,0,0,0,3.94,6.24c.23.19.43.41.68.58l.79.58,1.6,1.15,3.22,2.17,3.32,2.07,3.38,1.95A140.65,140.65,0,0,0,449,359.73l15.72-.51c5.25-.05,10.51-.12,15.76-.11A303.49,303.49,0,0,1,511.93,361c2.61.33,5.22.62,7.82,1l7.79,1.1c2.59.35,5.21.75,7.78,1.07s5.21.59,7.81.84a235.88,235.88,0,0,0,31.35.36c10.46-.49,20.9-1.41,31.33-2.44h0l1.44-.2-1,1.07a138.2,138.2,0,0,1-17.68,15.14c-1.57,1.15-3.21,2.2-4.81,3.3s-3.3,2.07-4.94,3.11-3.4,1.92-5.09,2.88-3.45,1.82-5.2,2.68a137.36,137.36,0,0,1-21.83,8.39,140.11,140.11,0,0,1-22.95,4.53l-2.9.31c-1,.12-1.94.21-2.92.24l-5.84.33-11.56.47c-7.69.39-15.35.88-23,1.56-3.84.3-7.66.76-11.49,1.13s-7.64.9-11.46,1.36c-7.64,1-15.26,2.11-22.87,3.34s-15.23,2.46-22.9,3.53-15.38,2-23.14,2.4c-3.88.15-7.76.33-11.65.23s-7.75-.2-11.66-.53a91.51,91.51,0,0,1-22.87-4.83,62.89,62.89,0,0,1-20.25-11.74A58.64,58.64,0,0,1,305.08,383c-.88-1.76-1.65-3.5-2.48-5.25s-1.67-3.48-2.42-5.27c-1.54-3.55-3.1-7.09-4.51-10.69-2.89-7.18-5.55-14.44-7.78-21.86l1-.28c2.31,7.32,5.08,14.53,8,21.63,1.45,3.57,3.06,7.06,4.64,10.57.76,1.76,1.65,3.48,2.48,5.22s1.66,3.5,2.54,5.18a56.9,56.9,0,0,0,13.93,17.86,62.42,62.42,0,0,0,19.69,11.13,89.76,89.76,0,0,0,22.34,4.54c3.79.28,7.64.46,11.47.42s7.66-.14,11.48-.32c7.65-.47,15.28-1.45,22.89-2.56s15.21-2.45,22.84-3.66,15.28-2.37,22.94-3.41c3.84-.47,7.68-1,11.52-1.4s7.69-.85,11.55-1.16c7.7-.7,15.44-1.23,23.17-1.63l11.57-.51,5.72-.33c1,0,1.9-.13,2.85-.24l2.84-.32a136.93,136.93,0,0,0,22.42-4.48A148.62,148.62,0,0,0,567.15,388c1.72-.81,3.47-1.59,5.14-2.51s3.41-1.73,5-2.72,3.34-1.86,5-2.89,3.25-2,4.85-3.07A183,183,0,0,0,605.54,363l.39.87h0c-10.44,1.07-20.9,2-31.39,2.58a238.72,238.72,0,0,1-31.53-.22c-2.61-.25-5.22-.54-7.83-.81s-5.21-.7-7.81-1l-7.79-1.06c-2.6-.36-5.2-.64-7.8-1a308.78,308.78,0,0,0-31.32-1.71c-5.23,0-10.47.08-15.7.14l-15.72.53a148.62,148.62,0,0,1-31.52-1.88,146.27,146.27,0,0,1-30.34-8.75,150.68,150.68,0,0,1-14.25-6.89l-3.43-2-3.37-2.09-3.3-2.22-1.6-1.15-.79-.58c-.29-.2-.55-.46-.82-.68a17.74,17.74,0,0,1-4.42-6.91,52.85,52.85,0,0,1-2.25-7.67c-1.15-5.17-1.92-10.37-2.78-15.53A153.41,153.41,0,0,0,347,289.69c-1.41-5-3.19-9.91-6.29-13.92a14.06,14.06,0,0,0-1.22-1.44l-.63-.69-.71-.62-.69-.62c-.24-.2-.5-.35-.74-.53a10.46,10.46,0,0,0-1.58-1l-.86-.46c-.13-.06-.34-.19-.39-.2l-.44-.18-1.79-.74c-.6-.23-1.18-.52-1.79-.71l-1.84-.58a39.59,39.59,0,0,0-15.17-1.68,48.18,48.18,0,0,0-14.85,3.9c-1.17.55-2.37,1-3.52,1.62l-3.43,1.82c-2.22,1.34-4.48,2.63-6.6,4.14a143.48,143.48,0,0,0-12.39,9.48l-3,2.58a35.14,35.14,0,0,0-2.81,2.6,26.41,26.41,0,0,0-4.36,6.17,33.72,33.72,0,0,0-3.43,14.75,51.38,51.38,0,0,0,2.15,15.22,50.22,50.22,0,0,0,6.41,14,22.54,22.54,0,0,0,5.05,5.5,7.36,7.36,0,0,0,3.1,1.42,3.5,3.5,0,0,0,1.46,0,3.94,3.94,0,0,0,.45-.15l.11,0c-.08,0,0,0,0,0l.21-.1.81-.43A20.6,20.6,0,0,0,284,343.9a49.27,49.27,0,0,0,4.55-6.21,74.78,74.78,0,0,0,3.77-6.79c1.17-2.32,2.23-4.71,3.2-7.12Z" transform="translate(-248.01 -156.7)"/><path class="cls-1" d="M308.43,280.2c.26-11,.51-39.22-3.24-49.85-5.7-16.17-18.29-35.28-27.52-34.84-10.69,2.07-20.51-1.31-23.53-8.8a13.37,13.37,0,0,1-.48-8.26c11-3.76,31.64-9.46,48.46-6.13v.17a16.44,16.44,0,0,1-1.82,7.25,22.8,22.8,0,0,1-2.84,4.37c-1.88,3.39-3.8,8.15-2.63,12,2.07,6.79,5.19,6.62,13.45,25.42s9.91,32.33,9.88,58" transform="translate(-248.01 -156.7)"/><path class="cls-2" d="M308.43,280.2c-.08-4-.12-8-.26-12s-.24-8-.46-12-.54-8-.92-12c-.2-2-.44-4-.75-5.92a40.68,40.68,0,0,0-3.22-11.33c-.78-1.83-1.58-3.65-2.44-5.44a95.15,95.15,0,0,0-5.82-10.39,58.87,58.87,0,0,0-7.3-9.28,26.15,26.15,0,0,0-4.46-3.66,9.22,9.22,0,0,0-5.08-1.68l.13,0a32,32,0,0,1-9.11.41,22.42,22.42,0,0,1-8.78-2.68,14.54,14.54,0,0,1-6.24-6.75c-.07-.19-.14-.34-.23-.57l-.17-.52a10.82,10.82,0,0,1-.32-1.13,12.14,12.14,0,0,1-.33-2.31,14.87,14.87,0,0,1,.08-2.31l.17-1.14.25-1.12h0l.06-.26.27-.09a142.51,142.51,0,0,1,24-6,91.25,91.25,0,0,1,12.35-1.1c2.07,0,4.15,0,6.21.17,1,.08,2.07.19,3.1.32s2.05.32,3.07.51h0l.4.06v1.26a7.94,7.94,0,0,1,0,.83,13.3,13.3,0,0,1-.21,1.68,16.87,16.87,0,0,1-.93,3.21c-.09.27-.21.52-.32.78a7.51,7.51,0,0,1-.36.76,15.87,15.87,0,0,1-.77,1.46c-.28.51-.59,1-.9,1.43s-.65.9-1,1.35l.09-.13a26.18,26.18,0,0,0-2.28,5.63,10.36,10.36,0,0,0-.09,5.65c.16.43.33,1,.52,1.43s.36.89.59,1.33a23.33,23.33,0,0,0,1.53,2.61c1.13,1.71,2.35,3.48,3.45,5.3s2.14,3.67,3.13,5.55l1.44,2.83,1.35,2.87c.87,1.91,1.74,3.87,2.53,5.81.42.95.8,2,1.18,2.94s.77,2,1.11,3c.71,2,1.34,4,1.92,6.06s1.09,4.11,1.54,6.18.78,4.17,1.1,6.26l.4,3.15.31,3.15c.17,2.11.33,4.21.41,6.32s.15,4.21.2,6.31.05,4.21,0,6.31-.18,4.2-.38,6.3c-.44-4.2-.53-8.39-.74-12.57-.12-2.09-.22-4.19-.41-6.27s-.39-4.16-.63-6.23l-.42-3.1-.5-3.09-.6-3.06c-.2-1-.46-2-.68-3-.49-2-1-4-1.64-6s-1.26-4-2-5.9q-.53-1.47-1.11-2.91c-.38-1-.75-1.92-1.18-2.89-.81-1.94-1.66-3.82-2.53-5.72s-1.79-3.77-2.73-5.62-1.94-3.67-3-5.45-2.21-3.48-3.37-5.28a25.38,25.38,0,0,1-1.62-2.85,16.78,16.78,0,0,1-.66-1.55c-.22-.55-.33-1-.52-1.55a12.27,12.27,0,0,1,.28-6.76,27.13,27.13,0,0,1,2.61-6l0-.06.05-.07c.32-.41.67-.8,1-1.22s.63-.84.89-1.27.55-.88.82-1.36c.14-.24.24-.43.36-.68s.23-.46.33-.7a16.24,16.24,0,0,0,1-2.94,13.55,13.55,0,0,0,.29-1.52,6,6,0,0,0,.09-.77l.05-.79.4.49h0c-1-.19-2-.36-3-.49s-2-.24-3-.32c-2-.15-4.08-.2-6.12-.17a89.2,89.2,0,0,0-12.21,1.09,141.78,141.78,0,0,0-23.82,6l.33-.35h0l-.2,1.06-.11,1.06a15.13,15.13,0,0,0,0,2.13,11.8,11.8,0,0,0,.37,2.07,9.54,9.54,0,0,0,.31,1l.2.52.2.46a13.09,13.09,0,0,0,5.81,5.89,21.13,21.13,0,0,0,8.16,2.32,30.55,30.55,0,0,0,8.58-.52l.06,0h.07a11.25,11.25,0,0,1,6.24,1.88,26.13,26.13,0,0,1,4.84,3.94,60.62,60.62,0,0,1,7.57,9.61,94.45,94.45,0,0,1,6,10.62c.88,1.82,1.71,3.68,2.45,5.56a54.42,54.42,0,0,1,2,5.81,52.69,52.69,0,0,1,1.14,6c.28,2,.48,4,.65,6,.35,4,.47,8,.53,12.07s.07,8.05-.05,12.07S308.69,276.19,308.43,280.2Z" transform="translate(-248.01 -156.7)"/><path class="cls-3" d="M290.37,179.64c.52,5.88-6.91,11.35-16.6,12.2s-18-3.23-18.48-9.12,6.91-11.35,16.6-12.2S289.86,173.75,290.37,179.64Z" transform="translate(-248.01 -156.7)"/><path class="cls-2" d="M276.75,179.11c.29,3.32-3.91,6.41-9.39,6.89s-10.15-1.83-10.44-5.15,3.91-6.42,9.38-6.9S276.45,175.78,276.75,179.11Z" transform="translate(-248.01 -156.7)"/><path class="cls-5" d="M302.12,172.32c-16.82-3.33-37.48,2.37-48.46,6.13,1.69-6.93,8.19-13.84,17.43-17.55,13-5.24,26.48-2.18,30.12,6.84A12.67,12.67,0,0,1,302.12,172.32Z" transform="translate(-248.01 -156.7)"/><path class="cls-2" d="M302,172.81a28,28,0,0,1-3.15.17c-1,0-2,.1-3,.09s-2,.08-3,.08-2,.06-3,.06-2,.06-3,.09-2,.12-3,.2-2,.19-3,.29-2,.21-3,.35-2,.27-3,.44-2,.29-3,.49-2,.33-3,.55-2,.36-3,.58c-2,.42-4,.85-6,1.31l-6,1.41-1,.23.31-.82h0a16.56,16.56,0,0,1,1-4.08,20.27,20.27,0,0,1,1.92-3.77,24.83,24.83,0,0,1,2.59-3.36c.48-.52,1-1,1.5-1.5s1.05-1,1.59-1.39a28.79,28.79,0,0,1,3.47-2.43c.61-.35,1.21-.71,1.83-1s1.26-.64,1.91-.91l1-.41.54-.23L271,159l1.9-.67a38.86,38.86,0,0,1,4.15-1.06l1-.2,1-.13c.7-.07,1.4-.19,2.11-.2s1.41-.08,2.12-.08l2.12.07,2.11.26c.7.11,1.4.28,2.09.42a24.28,24.28,0,0,1,4.06,1.38c.66.28,1.27.68,1.9,1s1.2.82,1.79,1.22,1.09,1,1.61,1.46.95,1.1,1.35,1.7a13.15,13.15,0,0,1,1.82,3.89l.14.48.1.54a6.75,6.75,0,0,1,.16,1.07,14.77,14.77,0,0,1,.05,2.1v.43Zm-.56-1.27c-.06-.37-.1-.75-.19-1.11a7.71,7.71,0,0,0-.27-.89l-.14-.44-.19-.47a13.55,13.55,0,0,0-2-3.17c-.39-.47-.87-.88-1.29-1.32s-1-.76-1.48-1.11-1-.66-1.61-.93-1.12-.54-1.71-.73a22.53,22.53,0,0,0-3.62-1c-.62-.09-1.24-.2-1.87-.26l-1.89-.13h-1.9c-.63,0-1.26.09-1.89.13s-1.26.17-1.89.25l-.94.15-.93.22a35.31,35.31,0,0,0-3.64,1l-1.88.7-.48.17-.38.17-.87.39c-1.16.53-2.29,1.11-3.4,1.73s-2.16,1.35-3.2,2.08a30.92,30.92,0,0,0-3,2.39c-.48.41-.92.87-1.38,1.31s-.89.92-1.29,1.41a28.68,28.68,0,0,0-2.29,3.06,26.76,26.76,0,0,0-1.79,3.45h0l-.65-.59c.95-.41,1.89-.85,2.86-1.22s1.92-.78,2.9-1.13c1.94-.72,3.91-1.39,5.9-2s4-1.15,6-1.64,4.07-.93,6.13-1.27c1-.2,2.06-.35,3.1-.5s2.07-.27,3.12-.36,2.09-.22,3.14-.26,2.1-.15,3.15-.14,2.11,0,3.17.09,2.1.19,3.15.38,2.12.45,3.13.73C300,170.94,300.74,171.23,301.48,171.54Z" transform="translate(-248.01 -156.7)"/><path class="cls-6" d="M365.09,339" transform="translate(-248.01 -156.7)"/><path class="cls-1" d="M291.56,323.13a9.21,9.21,0,0,1,8.27,0" transform="translate(-248.01 -156.7)"/><path class="cls-2" d="M291.32,322.69a8.58,8.58,0,0,1,1.27-.71,10.17,10.17,0,0,1,3.1-.92,9.93,9.93,0,0,1,1.8-.07,7.45,7.45,0,0,1,.84.09,5.31,5.31,0,0,1,.75.13,8.11,8.11,0,0,1,1.11.31l.42.14a1.68,1.68,0,0,1-1.08,3.19,1.79,1.79,0,0,1-.39-.2l-.08,0-.25-.17a5.54,5.54,0,0,0-.69-.42,4.47,4.47,0,0,0-.49-.24c-.18-.07-.37-.17-.58-.23a6.91,6.91,0,0,0-1.34-.32,8.59,8.59,0,0,0-2.7,0,7.2,7.2,0,0,0-1.21.3.5.5,0,0,1-.48-.88Z" transform="translate(-248.01 -156.7)"/><path class="cls-1" d="M273.08,296.21s-4.48-4.17-5.56,1.08,2,2.77,2.78,2.77" transform="translate(-248.01 -156.7)"/><path class="cls-2" d="M273.08,296.21l-.57-.21a13.59,13.59,0,0,0-1.42-.45,4.31,4.31,0,0,0-.86-.15,1.92,1.92,0,0,0-.75.1,1.35,1.35,0,0,0-.54.46,1.23,1.23,0,0,0-.24.39,2.9,2.9,0,0,0-.21.47,9.64,9.64,0,0,0-.31,1.1c-.11.43-.15.75-.21,1.1a2.71,2.71,0,0,0,0,.86c0,.2.09.29.32.34a1.85,1.85,0,0,0,.74,0l.67-.12a1.84,1.84,0,0,1,.6,0h0a2,2,0,0,0-.5.3c-.16.1-.35.23-.59.36a2.75,2.75,0,0,1-.93.34,1.35,1.35,0,0,1-.71-.13.84.84,0,0,1-.34-.25.93.93,0,0,1-.25-.32,3.18,3.18,0,0,1-.34-1.36,8.23,8.23,0,0,1,.05-1.33,8,8,0,0,1,.26-1.35,4,4,0,0,1,.27-.7,2.86,2.86,0,0,1,.41-.68,2.66,2.66,0,0,1,1.37-1,2.73,2.73,0,0,1,1.51,0,3.56,3.56,0,0,1,1.07.52,5.17,5.17,0,0,1,1.18,1.15A3,3,0,0,1,273.08,296.21Z" transform="translate(-248.01 -156.7)"/><path class="cls-1" d="M288.41,158.73" transform="translate(-248.01 -156.7)"/><path class="cls-7" d="M459.63,274.67a77.65,77.65,0,0,0-85.4,38.68c-2.46,4.55-3.14,10-6,14.51-.79,1.22-4.36,3.84-4.36,3.84-2.1-.57-3.86-.19-4.13,2.42-.67,6.35,24.36,14.4,31.46,16.54,9,2.72,24.28,12.46,31.14,18.33,8.68,7.44,12.42,14.6,24.71,17.39a49.64,49.64,0,0,0,59.41-37.44A62.08,62.08,0,0,0,459.63,274.67Z" transform="translate(-248.01 -156.7)"/><path class="cls-2" d="M459.24,276.79l-3.76-.67-1.88-.34-.94-.16-.91-.08-3.64-.33c-.61,0-1.21-.13-1.82-.15h-1.86l-3.71,0c-1.23,0-2.46.17-3.69.24l-1.85.14a12.64,12.64,0,0,0-1.84.21l-3.66.56c-.61.1-1.23.16-1.83.3l-1.8.43-3.61.85c-1.19.35-2.35.76-3.53,1.12a35.38,35.38,0,0,0-3.51,1.2,69.33,69.33,0,0,0-6.79,3c-1.11.56-2.23,1.09-3.32,1.68l-3.19,1.89-1.61,1c-.52.33-1,.7-1.52,1.06l-3.05,2.14c-1,.71-1.92,1.56-2.89,2.34l-1.44,1.19a14.83,14.83,0,0,0-1.39,1.24l-2.67,2.6c-.44.45-.91.85-1.32,1.32L385,300.84l-2.48,2.8c-.77,1-1.5,2-2.26,3a67,67,0,0,0-4.18,6.23l-.5.79-.22.35-.22.43c-.28.56-.62,1.14-.83,1.68-.48,1.07-.93,2.25-1.38,3.43a50.34,50.34,0,0,1-3.05,7.15l-.52.85-.26.43-.13.21-.06.1-.06.09,0,0,0,.05a10,10,0,0,1-1.47,1.43c-1,.83-2.05,1.58-3.12,2.31l-.23.16-.27-.06h0a5.56,5.56,0,0,0-1.87.12,1.31,1.31,0,0,0-.89.93,2.37,2.37,0,0,0-.12,1.56,3.83,3.83,0,0,0,.9,1.44,15.34,15.34,0,0,0,3.24,2.6c1.21.77,2.49,1.46,3.79,2.12a130.92,130.92,0,0,0,16.39,6.51c1.4.47,2.8.92,4.21,1.35l2.12.65,2.15.77a41,41,0,0,1,4.18,1.73c1.42.61,2.74,1.32,4.06,2a142.53,142.53,0,0,1,15.31,9.38,88.46,88.46,0,0,1,7.13,5.55c2.27,2,4.38,4.15,6.47,6.21a46.77,46.77,0,0,0,6.59,5.6,27.65,27.65,0,0,0,7.64,3.58c.68.21,1.38.36,2.07.55l.26.06s-.1,0,0,0h.07l.14,0,.55.09,1.09.19,2.2.37c.36.05.73.14,1.09.17l1.06.07,2.12.14a19,19,0,0,0,2.14.07c1.43-.06,2.87-.07,4.31-.17a47.33,47.33,0,0,0,16.53-4.58,48.21,48.21,0,0,0,23.34-24.29c.51-1.34,1.06-2.66,1.54-4l1.14-4.14.07-.26,0-.09,0-.13.1-.55.22-1.09c.14-.73.29-1.46.38-2.15l.3-2.11.2-2.15a58,58,0,0,0,.1-8.64c-.05-1.44-.26-2.86-.4-4.3s-.42-2.84-.75-4.25-.66-2.8-1-4.19-.81-2.76-1.34-4.1a60.18,60.18,0,0,0-20.16-27.38,57.77,57.77,0,0,0-7.2-4.7,60.85,60.85,0,0,0-16-6.07Zm.86-4.21a64.72,64.72,0,0,1,17.1,6.64,63.7,63.7,0,0,1,14.5,11.2,61.86,61.86,0,0,1,5.9,7,60.81,60.81,0,0,1,4.83,7.79,61.44,61.44,0,0,1,3.68,8.4c.54,1.43.94,2.91,1.39,4.37s.77,3,1,4.46.52,3,.75,4.52.35,3,.39,4.57a60.76,60.76,0,0,1-.17,9.15l-.24,2.27-.35,2.3c-.1.78-.26,1.5-.41,2.22l-.22,1.09-.11.55,0,.13,0,.18-.08.28-1.26,4.43c-.52,1.44-1.12,2.86-1.68,4.29A51.59,51.59,0,0,1,480,384.2a50.55,50.55,0,0,1-17.63,4.72c-1.52.1-3.06.1-4.58.14a16.28,16.28,0,0,1-2.31-.09l-2.32-.18L452,388.7c-.39,0-.74-.12-1.11-.18l-2.19-.39-1.1-.2-.54-.1-.35-.06-.28-.07c-.74-.21-1.49-.38-2.23-.61a30.34,30.34,0,0,1-8.37-4,49.27,49.27,0,0,1-6.93-6c-2.12-2.12-4.15-4.22-6.32-6.16a80.27,80.27,0,0,0-6.86-5.44,141.07,141.07,0,0,0-15-9.34c-1.29-.69-2.58-1.39-3.89-2a35.43,35.43,0,0,0-4-1.71l-2-.75-2.14-.67c-1.42-.46-2.83-.92-4.24-1.4a131.06,131.06,0,0,1-16.62-6.78,41,41,0,0,1-4-2.25,17.6,17.6,0,0,1-3.65-3l-.4-.49-.37-.54a3.8,3.8,0,0,1-.32-.6l-.14-.32c0-.12-.08-.27-.11-.4a3.24,3.24,0,0,1-.12-.75v-.42c0-.26,0-.12,0-.2v-.08a5.24,5.24,0,0,1,.38-1.33,3.37,3.37,0,0,1,.92-1.23,2.91,2.91,0,0,1,1.42-.6,5.05,5.05,0,0,1,2.53.42h0l-.51.1c1-.79,1.95-1.61,2.84-2.47a9.25,9.25,0,0,0,1.17-1.31l.83-1.56a50.37,50.37,0,0,0,2.48-7.07c.37-1.22.76-2.45,1.26-3.73.23-.65.52-1.19.77-1.78l.2-.43c.12-.24.17-.31.26-.48l.47-.84a71.24,71.24,0,0,1,4-6.66c.73-1.07,1.44-2.17,2.2-3.22l2.44-3,1.24-1.51c.41-.51.89-.95,1.33-1.43l2.7-2.82a16.43,16.43,0,0,1,1.42-1.35l1.46-1.3c1-.84,1.92-1.77,3-2.56l3.12-2.36c.52-.39,1-.8,1.57-1.17l1.65-1.05,3.31-2.11c1.13-.65,2.31-1.22,3.47-1.84a71.6,71.6,0,0,1,7.13-3.26,37.09,37.09,0,0,1,3.7-1.34c1.24-.4,2.48-.82,3.74-1.19l3.83-.91L427,272c.64-.15,1.29-.22,1.94-.33l3.89-.58a15.71,15.71,0,0,1,1.95-.2l2-.13c1.31-.07,2.61-.2,3.92-.21l3.93.07,2,0c.65,0,1.31.12,2,.18l4,.41,1,.1.94.17,1.88.35,3.75.71Z" transform="translate(-248.01 -156.7)"/><path class="cls-2" d="M421.84,369.35l-.41-.47c-.26-.32-.69-.72-1.18-1.4a26,26,0,0,1-3.52-6.16,34.53,34.53,0,0,1-2.41-10.76,40.76,40.76,0,0,1,.07-6.79c.1-1.2.27-2.41.46-3.66.06-.31.11-.62.17-.93l.08-.47,0-.24.08-.32c.15-.6.31-1.21.46-1.82a31.62,31.62,0,0,1,1.32-3.91,19.09,19.09,0,0,1,.89-1.95c.33-.63.61-1.3,1-1.92a33.92,33.92,0,0,1,5.51-7.13c.53-.57,1.16-1,1.74-1.56a17.73,17.73,0,0,1,1.85-1.49c.65-.46,1.3-.93,2-1.38l2.11-1.22a34.25,34.25,0,0,1,9.38-3.35A32.43,32.43,0,0,1,462,314.9,27.56,27.56,0,0,1,477,342a20.18,20.18,0,0,1-.39,2.7l-.12.68-.06.33a1.06,1.06,0,0,1-.05.19l0,.07,0,.15-.35,1.21c-.06.2-.1.39-.18.61l-.26.68L475,350a27.09,27.09,0,0,1-1.32,2.43A22.42,22.42,0,0,1,455.94,363a22.19,22.19,0,0,1-5.1-.33l-1.25-.23-.16,0-.07,0-.14,0-.27-.08-.56-.17-.55-.16-.62-.24c-.41-.17-.83-.33-1.23-.51a19.26,19.26,0,0,1-4.15-2.74,17.72,17.72,0,0,1-5.76-16.71,10.14,10.14,0,0,1,.24-1.1l.27-.93a15.48,15.48,0,0,1,.84-2,14.51,14.51,0,0,1,5.39-5.78,13.81,13.81,0,0,1,6.81-2,11.25,11.25,0,0,1,1.65.05l.8.07.78.16c.27.07.47.09.79.19l.67.21c.44.15,1,.39,1.41.59a11.14,11.14,0,0,1,4,3.44,10.36,10.36,0,0,1,1.88,6.82,8.2,8.2,0,0,1-.33,1.81l-.18.6s0-.21,0-.62a10.74,10.74,0,0,0-2.63-7.65,10.18,10.18,0,0,0-3.61-2.56c-.38-.13-.69-.26-1.13-.38l-.69-.16c-.12,0-.4-.06-.6-.09l-.66-.09-.67,0a9.12,9.12,0,0,0-1.38,0,12,12,0,0,0-5.55,1.84,11.66,11.66,0,0,0-4.25,4.81,4,4,0,0,0-.32.75c-.09.26-.2.47-.28.78l-.25.94c-.06.18-.1.56-.15.83a15.21,15.21,0,0,0-.15,3.64,14.77,14.77,0,0,0,2.58,7.08,14.41,14.41,0,0,0,2.66,2.92,15.48,15.48,0,0,0,3.41,2.12c.3.13.6.23.9.34l.45.18.55.15.56.15.28.07.14,0,.07,0c-.15,0,0,0,0,0l1.05.17a18.92,18.92,0,0,0,4.26.16,18.65,18.65,0,0,0,8.18-2.73,18.3,18.3,0,0,0,6.12-6.28c.39-.63.68-1.32,1-2l.38-1,.19-.49a5.72,5.72,0,0,0,.17-.59l.33-1.21.05-.15,0-.08c0-.05,0,.16,0,0l.05-.29.09-.56a14.68,14.68,0,0,0,.3-2.28,22.88,22.88,0,0,0-1.09-9.07,23.43,23.43,0,0,0-11.63-13.48A27.83,27.83,0,0,0,442.35,317a30.51,30.51,0,0,0-14.81,7.67l-1.4,1.42c-.48.46-.85,1-1.28,1.51a30.17,30.17,0,0,0-2.26,3.13c-.36.53-.62,1.11-.93,1.65a15.79,15.79,0,0,0-.83,1.64,25.27,25.27,0,0,0-1.28,3.38c-.19.6-.37,1.2-.56,1.79l0,.11,0,.06c0-.18,0,0,0-.05l0,.22-.1.43-.2.85c-.24,1.14-.47,2.26-.61,3.36a43.58,43.58,0,0,0-.49,6.27,36.5,36.5,0,0,0,.38,5.51c.09.85.29,1.64.42,2.42s.36,1.49.57,2.17a27.54,27.54,0,0,0,2.6,6.05c.34.66.74,1.16.95,1.51l.34.51Z" transform="translate(-248.01 -156.7)"/><path class="cls-2" d="M363.36,331a29.56,29.56,0,0,1,2.81,1.75,20.21,20.21,0,0,1,1.77,1.42l.72.74-.25.25-.78-.62a20.89,20.89,0,0,0-1.86-1.14,29.44,29.44,0,0,0-2.9-1.33Z" transform="translate(-248.01 -156.7)"/><g class="cls-8"><path class="cls-3" d="M378.74,321.92a41,41,0,0,1,1.67-4.2c.6-1.31,1.38-2.88,2.35-4.63s2.16-3.7,3.59-5.73c.7-1,1.5-2,2.3-3.12s1.69-2.15,2.65-3.21a70,70,0,0,1,6.39-6.39c1.21-1,2.4-2.08,3.73-3l2-1.46,2.08-1.36,1-.69,1.08-.62,2.19-1.26c1.52-.74,3-1.54,4.59-2.19a48.86,48.86,0,0,1,4.75-1.82l2.41-.8,2.44-.63a57.22,57.22,0,0,1,9.67-1.56,58.75,58.75,0,0,1,9.1,0l2.13.16,2,.29c1.34.23,2.64.35,3.85.66a57.45,57.45,0,0,1,6.56,1.74,47.52,47.52,0,0,1,4.9,1.78c1.32.56,2.35,1,3,1.36s1.06.51,1.06.51l-.29.95-1.17-.11c-.76-.08-1.87-.2-3.26-.39s-3.09-.33-5-.53-4.1-.28-6.45-.44c-1.17-.08-2.4,0-3.65-.07l-1.92,0-2,.08c-1.33.07-2.69,0-4.07.23l-2.1.18-1.06.09-1.06.17c-1.41.23-2.87.33-4.31.69s-2.91.53-4.35,1l-2.19.57-2.16.69c-1.46.42-2.86,1-4.29,1.56s-2.79,1.24-4.18,1.85l-2,1.05-1,.52-1,.58a77,77,0,0,0-7.45,4.86c-2.3,1.77-4.52,3.52-6.47,5.36-1,.88-1.93,1.82-2.86,2.69s-1.76,1.77-2.54,2.66c-1.63,1.71-3,3.37-4.27,4.87s-2.27,2.83-3.08,4-1.47,2-1.88,2.65l-.64,1Z" transform="translate(-248.01 -156.7)"/></g></svg>